<?xml version="1.0" encoding="utf-8"?>
<!-- Generator: Adobe Illustrator 27.4.0, SVG Export Plug-In . SVG Version: 6.00 Build 0)  -->
<svg version="1.1" id="Ebene_1" xmlns="http://www.w3.org/2000/svg" xmlns:xlink="http://www.w3.org/1999/xlink" x="0px" y="0px"
	 viewBox="0 0 48 48" style="enable-background:new 0 0 48 48;" xml:space="preserve">
<style type="text/css">
	.st0{fill:#FFFFFF;}
</style>
<path class="st0" d="M17.6,23.7c0-0.2,0-0.4,0.1-0.5c0.1-0.2,0.2-0.3,0.4-0.5l9.9-9.9c0.3-0.3,0.6-0.4,1.1-0.4
	c0.4,0,0.8,0.2,1.1,0.4c0.3,0.3,0.5,0.7,0.4,1.1s-0.2,0.7-0.5,1l-8.8,8.8l8.8,8.8c0.3,0.3,0.4,0.6,0.5,1.1c0,0.5-0.1,0.8-0.5,1.1
	c-0.3,0.3-0.6,0.5-1,0.4s-0.8-0.2-1.1-0.5L18,24.7c-0.2-0.2-0.3-0.3-0.4-0.5C17.6,24,17.6,23.9,17.6,23.7z"/>
</svg>
