<?xml version="1.0" encoding="utf-8"?>
<!-- Generator: Adobe Illustrator 27.3.0, SVG Export Plug-In . SVG Version: 6.00 Build 0)  -->
<svg version="1.1" id="Ebene_1" xmlns="http://www.w3.org/2000/svg" xmlns:xlink="http://www.w3.org/1999/xlink" x="0px" y="0px"
	 viewBox="0 0 1125 267.5" style="enable-background:new 0 0 1125 267.5;" xml:space="preserve">
<style type="text/css">
	.st0{display:none;}
	.st1{fill:none;}
	.st2{fill:#FFFFFF;stroke:#FFFFFF;stroke-miterlimit:10;}
	.st3{fill:#D68E44;}
</style>
<rect y="1.8" class="st0" width="1125" height="236"/>
<g>
	<rect x="49.7" y="39.3" class="st1" width="698.3" height="193.5"/>
	<path class="st2" d="M135.7,83.9v14H130V83.6c0-22-8.3-40.4-32.1-40.4c-24.1,0-32.4,18.4-32.4,40.4v92.7c0,22,8.3,40.1,32.4,40.1
		c23.8,0,32.1-18.1,32.1-40.1v-19.9h5.7v19.7c0,25.1-10.4,45.8-38.1,45.8c-27.5,0-37.8-20.7-37.8-45.8V83.9
		c0-25.1,10.4-45.8,37.8-45.8C125.4,38.1,135.7,58.8,135.7,83.9z"/>
	<path class="st2" d="M194,38.1c28,0,38.9,20.5,38.9,45.8v92.2c0,25.4-10.9,45.8-38.9,45.8c-27.5,0-38.3-20.5-38.3-45.8V83.9
		C155.7,58.5,166.5,38.1,194,38.1z M194,216.8c24.3,0,33.2-18.1,33.2-40.4V83.6c0-22.3-8.8-40.4-33.2-40.4
		c-24.1,0-32.6,18.1-32.6,40.4v92.7C161.4,198.6,169.9,216.8,194,216.8z"/>
	<path class="st2" d="M253.3,220.6V39.3h8L325,209V39.3h5.4v181.3h-7l-64.8-173v173H253.3z"/>
	<path class="st2" d="M385.1,44.8h-39.4v-5.4h84.7v5.4h-39.6v175.9h-5.7V44.8z"/>
	<path class="st2" d="M519.5,80v16.3c0,22.3-8.8,34.4-28.7,38.1c20.2,3.1,28.7,16.3,28.7,36.3v28.5c0,7,0.8,15.8,4.9,21.5h-6.2
		c-3.6-5.7-4.4-13.7-4.4-21.5v-28.5c0-26.7-16.1-33.7-39.6-33.7h-22.3v83.7h-5.7V39.3h36C509.2,39.3,519.5,55.1,519.5,80z
		 M513.8,97.1V80.5c0-22-8.5-35.7-31.9-35.7h-30v86.8h22.3C499.3,131.6,513.8,125.1,513.8,97.1z"/>
	<path class="st2" d="M550.4,220.6h-5.7V39.3h5.7V220.6z"/>
</g>
<g>
	<rect x="562.8" y="39.7" class="st1" width="544.2" height="183.1"/>
	<path class="st3" d="M653.2,79.9v8.5c0,19.2-5.4,31.1-21.2,36c17.6,4.9,24.3,18.9,24.3,38.9v15.3c0,27.2-13.2,42.5-41.4,42.5h-41.7
		V39.7h40.7C642.1,39.7,653.2,53.2,653.2,79.9z M633.3,92.5V81.9c0-16.1-5.4-23.8-19.9-23.8h-19.9v58.5h15.5
		C625,116.6,633.3,111.5,633.3,92.5z M636.4,178V162c0-20.2-8-26.9-25.4-26.9h-17.6v67.6h21.5C629.6,202.6,636.4,194.9,636.4,178z"
		/>
	<path class="st3" d="M715.1,204.4c14.5,0,21-9.8,21-26.2V39.7H755v137.5c0,27.5-12.7,45.8-40.7,45.8c-27.7,0-40.4-18.4-40.4-45.8
		V39.7h19.9v138.6C693.9,194.6,700.3,204.4,715.1,204.4z"/>
	<path class="st3" d="M801.1,58.1h-33.4V39.7h86.8v18.4H821V221h-19.9V58.1z"/>
	<path class="st3" d="M888.4,221h-20.2V39.7h20.2V221z"/>
	<path class="st3" d="M908.8,221V39.7h25.6l42,131.1V39.7h17.9V221h-21L927,74.4V221H908.8z"/>
	<path class="st3" d="M1095.1,83.5V99h-19.2V82.4c0-16.3-6.5-26.2-21.2-26.2c-14.5,0-21.2,9.8-21.2,26.2v95.8
		c0,16.3,6.7,26.2,21.2,26.2c14.8,0,21.2-9.8,21.2-26.2V142h-18.6v-18.1h37.8v53.4c0,27.5-13,45.6-40.9,45.6
		c-27.7,0-40.7-18.1-40.7-45.6V83.5c0-27.5,13-45.6,40.7-45.6C1082.1,37.9,1095.1,56,1095.1,83.5z"/>
</g>
<g>
</g>
<g>
</g>
<g>
</g>
<g>
</g>
<g>
</g>
<g>
</g>
<g>
</g>
<g>
</g>
<g>
</g>
<g>
</g>
<g>
</g>
</svg>
