<?xml version="1.0" encoding="utf-8"?>
<!-- Generator: Adobe Illustrator 27.3.0, SVG Export Plug-In . SVG Version: 6.00 Build 0)  -->
<svg version="1.1" id="Ebene_1" xmlns="http://www.w3.org/2000/svg" xmlns:xlink="http://www.w3.org/1999/xlink" x="0px" y="0px"
	 viewBox="0 0 1125 267.5" style="enable-background:new 0 0 1125 267.5;" xml:space="preserve">
<style type="text/css">
	.st0{display:none;}
	.st1{fill:none;}
	.st2{fill:#FFFFFF;stroke:#FFFFFF;stroke-miterlimit:10;}
	.st3{fill:#D68E44;}
</style>
<rect y="1.8" class="st0" width="1125" height="236"/>
<g>
	<rect x="189.7" y="39.3" class="st1" width="698.3" height="193.5"/>
	<path class="st2" d="M275.7,83.9v14H270V83.6c0-22-8.3-40.4-32.1-40.4c-24.1,0-32.4,18.4-32.4,40.4v92.7c0,22,8.3,40.1,32.4,40.1
		c23.8,0,32.1-18.1,32.1-40.1v-19.9h5.7v19.7c0,25.1-10.4,45.8-38.1,45.8c-27.5,0-37.8-20.7-37.8-45.8V83.9
		c0-25.1,10.4-45.8,37.8-45.8C265.4,38.1,275.7,58.8,275.7,83.9z"/>
	<path class="st2" d="M369.2,80v16.3c0,22.3-8.8,34.4-28.7,38.1c20.2,3.1,28.7,16.3,28.7,36.3v28.5c0,7,0.8,15.8,4.9,21.5h-6.2
		c-3.6-5.7-4.4-13.7-4.4-21.5v-28.5c0-26.7-16.1-33.7-39.6-33.7h-22.3v83.7h-5.7V39.3h36C358.9,39.3,369.2,55.1,369.2,80z
		 M363.5,97.1V80.5c0-22-8.5-35.7-31.9-35.7h-30v86.8h22.3C349,131.6,363.5,125.1,363.5,97.1z"/>
	<path class="st2" d="M453.4,131.3H400v83.9h63.5v5.4h-69.2V39.3h69.2v5.4H400v81.3h53.4V131.3z"/>
	<path class="st2" d="M560.9,84.7v90.9c0,25.6-11.7,45.1-39.1,45.1h-38.1V39.3h37.8C549.2,39.3,560.9,58.8,560.9,84.7z M555.2,175.8
		V84.4c0-22.8-9.6-39.6-33.7-39.6h-32.1v170.4h32.1C545.8,215.2,555.2,198.4,555.2,175.8z"/>
</g>
<g>
	<rect x="562.8" y="39.7" class="st1" width="544.2" height="183.1"/>
	<path class="st3" d="M593.4,221h-20.2V39.7h20.2V221z"/>
	<path class="st3" d="M640.3,58.1h-33.4V39.7h86.8v18.4h-33.4V221h-19.9V58.1z"/>
	<path class="st3" d="M785.8,83.2v4.9h-19.2v-6c0-16.3-6.2-25.9-20.7-25.9c-14.5,0-20.7,9.6-20.7,25.6c0,40.7,60.9,44.5,60.9,95.6
		c0,27.5-13.2,45.3-40.9,45.3c-27.7,0-40.7-17.9-40.7-45.3v-10.4h18.9v11.4c0,16.3,6.7,25.9,21.2,25.9c14.5,0,21.2-9.6,21.2-25.9
		c0-40.4-60.6-44.3-60.6-95.3c0-28,13-45.3,40.1-45.3C772.9,37.9,785.8,55.8,785.8,83.2z"/>
</g>
<g>
</g>
<g>
</g>
<g>
</g>
<g>
</g>
<g>
</g>
<g>
</g>
<g>
</g>
<g>
</g>
<g>
</g>
<g>
</g>
<g>
</g>
</svg>
