<?xml version="1.0" encoding="utf-8"?>
<!-- Generator: Adobe Illustrator 27.3.0, SVG Export Plug-In . SVG Version: 6.00 Build 0)  -->
<svg version="1.1" id="Ebene_1" xmlns="http://www.w3.org/2000/svg" xmlns:xlink="http://www.w3.org/1999/xlink" x="0px" y="0px"
	 viewBox="0 0 1010.8 267.5" style="enable-background:new 0 0 1010.8 267.5;" xml:space="preserve">
<style type="text/css">
	.st0{display:none;}
	.st1{fill:none;}
	.st2{fill:#FFFFFF;stroke:#FFFFFF;stroke-miterlimit:10;}
	.st3{fill:#D68E44;}
</style>
<rect x="0.8" y="1.8" class="st0" width="1010" height="236"/>
<g>
	<rect x="0.5" y="39.3" class="st1" width="503.3" height="193.5"/>
	<path class="st2" d="M88,84.7v90.9c0,25.6-11.7,45.1-39.1,45.1H10.9V39.3h37.8C76.4,39.3,88,58.8,88,84.7z M82.3,175.8V84.4
		c0-22.8-9.6-39.6-33.7-39.6H16.6v170.4h32.1C73,215.2,82.3,198.4,82.3,175.8z"/>
	<path class="st2" d="M167.3,131.3h-53.4v83.9h63.5v5.4h-69.2V39.3h69.2v5.4h-63.5v81.3h53.4V131.3z"/>
	<path class="st2" d="M272.7,83.1v3.4H267v-3.6c0-21.5-8-39.6-31.6-39.6c-23.8,0-31.9,17.9-31.9,39.4c0,46.4,69.4,45.1,69.4,94.3
		c0,25.1-10.4,45.1-38.1,45.1c-27.5,0-37.8-19.9-37.8-45.1v-8.8h5.4v9.1c0,22,8.5,39.4,32.4,39.4c23.8,0,32.4-17.4,32.4-39.4
		c0-45.8-69.4-44.3-69.4-94.3c0-26.4,11.1-44.5,37.3-44.8C262.6,38.1,272.7,58.3,272.7,83.1z"/>
	<path class="st2" d="M368.8,83.9v14h-5.7V83.6c0-22-8.3-40.4-32.1-40.4c-24.1,0-32.4,18.4-32.4,40.4v92.7c0,22,8.3,40.1,32.4,40.1
		c23.8,0,32.1-18.1,32.1-40.1v-19.9h5.7v19.7c0,25.1-10.4,45.8-38.1,45.8c-27.5,0-37.8-20.7-37.8-45.8V83.9
		c0-25.1,10.4-45.8,37.8-45.8C358.4,38.1,368.8,58.8,368.8,83.9z"/>
	<path class="st2" d="M462.3,80v16.3c0,22.3-8.8,34.4-28.7,38.1c20.2,3.1,28.7,16.3,28.7,36.3v28.5c0,7,0.8,15.8,4.9,21.5H461
		c-3.6-5.7-4.4-13.7-4.4-21.5v-28.5c0-26.7-16.1-33.7-39.6-33.7h-22.3v83.7H389V39.3h36C451.9,39.3,462.3,55.1,462.3,80z
		 M456.6,97.1V80.5c0-22-8.5-35.7-31.9-35.7h-30v86.8H417C442.1,131.6,456.6,125.1,456.6,97.1z"/>
	<path class="st2" d="M493.1,220.6h-5.7V39.3h5.7V220.6z"/>
</g>
<g>
	<rect x="512.6" y="39.7" class="st1" width="446.2" height="183.1"/>
	<path class="st3" d="M603.2,84v21.8c0,28.7-13.5,43.8-42.2,43.8h-17.9V221H523V39.7h39.6C591.1,39.7,603.2,56.5,603.2,84z
		 M583.3,107V83c0-16.6-6-24.9-20.7-24.9h-19.4v73.3H561C576,131.4,583.3,124.4,583.3,107z"/>
	<path class="st3" d="M646.2,58.1h-33.4V39.7h87v18.4h-33.4V221h-20.2V58.1z"/>
	<path class="st3" d="M734,221h-20.2V39.7H734V221z"/>
	<path class="st3" d="M794.6,37.9c28,0,41.7,17.9,41.7,45.6v93.8c0,27.5-13.7,45.6-41.7,45.6c-27.7,0-41.4-18.1-41.4-45.6V83.5
		C753.2,55.8,766.9,37.9,794.6,37.9z M794.6,204.4c14.8,0,21.5-9.6,21.5-26.2V82.4c0-16.3-6.7-26.2-21.5-26.2
		c-14.5,0-21.5,9.8-21.5,26.2v95.8C773.1,194.9,780.1,204.4,794.6,204.4z"/>
	<path class="st3" d="M855.2,221V39.7h25.6l42,131.1V39.7h17.9V221h-21L873.4,74.4V221H855.2z"/>
</g>
<g>
</g>
<g>
</g>
<g>
</g>
<g>
</g>
<g>
</g>
<g>
</g>
<g>
</g>
<g>
</g>
<g>
</g>
<g>
</g>
<g>
</g>
</svg>
