<?xml version="1.0" encoding="utf-8"?>
<!-- Generator: Adobe Illustrator 27.3.0, SVG Export Plug-In . SVG Version: 6.00 Build 0)  -->
<svg version="1.1" id="Ebene_1" xmlns="http://www.w3.org/2000/svg" xmlns:xlink="http://www.w3.org/1999/xlink" x="0px" y="0px"
	 viewBox="0 0 1010.8 267.5" style="enable-background:new 0 0 1010.8 267.5;" xml:space="preserve">
<style type="text/css">
	.st0{display:none;}
	.st1{fill:none;}
	.st2{fill:#FFFFFF;stroke:#FFFFFF;stroke-miterlimit:10;}
	.st3{fill:#D68E44;}
</style>
<rect x="0.8" y="1.8" class="st0" width="1010" height="236"/>
<g>
	<rect x="140.5" y="39.3" class="st1" width="503.3" height="193.5"/>
	<path class="st2" d="M207.3,136h-50.8v84.7h-5.7V39.3h66.6v5.4h-60.9v85.7h50.8V136z"/>
	<path class="st2" d="M296.2,131.3h-53.4v83.9h63.5v5.4h-69.2V39.3h69.2v5.4h-63.5v81.3h53.4V131.3z"/>
	<path class="st2" d="M330.9,220.6h-5.2l43.8-181.6h8l44.8,181.6h-5.7L406,177.9h-64.5L330.9,220.6z M404.9,172.7L373.3,45.8
		l-30.8,126.9H404.9z"/>
	<path class="st2" d="M466.3,44.8h-39.4v-5.4h84.7v5.4H472v175.9h-5.7V44.8z"/>
</g>
<g>
	<rect x="512.6" y="39.7" class="st1" width="446.2" height="183.1"/>
	<path class="st3" d="M563.4,204.4c14.5,0,21-9.8,21-26.2V39.7h18.9v137.5c0,27.5-12.7,45.8-40.7,45.8c-27.7,0-40.4-18.4-40.4-45.8
		V39.7h19.9v138.6C542.1,194.6,548.6,204.4,563.4,204.4z"/>
	<path class="st3" d="M704,81.1v14.8c0,19.9-7,32.4-22.5,37.3c16.6,4.9,22.8,18.4,22.8,37.8v28.2c0,8,0.3,15.5,3.6,21.8h-20.5
		c-2.3-5.2-3.4-9.8-3.4-22v-28.5c0-20.5-9.6-26.9-26.4-26.9h-14.2V221h-20.2V39.7h40.4C692.1,39.7,704,54.2,704,81.1z M684,100.3V83
		c0-16.3-6-24.9-21-24.9h-19.7v67.1h15C674.5,125.2,684,120,684,100.3z"/>
	<path class="st3" d="M789.7,138.1h-44.3v64.5h54.4V221h-74.6V39.7h74.6v18.4h-54.4V120h44.3V138.1z"/>
	<path class="st3" d="M896.9,83.2v4.9h-19.2v-6c0-16.3-6.2-25.9-20.7-25.9c-14.5,0-20.7,9.6-20.7,25.6c0,40.7,60.9,44.5,60.9,95.6
		c0,27.5-13.2,45.3-40.9,45.3c-27.7,0-40.7-17.9-40.7-45.3v-10.4h18.9v11.4c0,16.3,6.7,25.9,21.2,25.9c14.5,0,21.2-9.6,21.2-25.9
		c0-40.4-60.6-44.3-60.6-95.3c0-28,13-45.3,40.1-45.3C884,37.9,896.9,55.8,896.9,83.2z"/>
</g>
<g>
</g>
<g>
</g>
<g>
</g>
<g>
</g>
<g>
</g>
<g>
</g>
<g>
</g>
<g>
</g>
<g>
</g>
<g>
</g>
<g>
</g>
</svg>
