<?xml version="1.0" encoding="utf-8"?>
<!-- Generator: Adobe Illustrator 27.3.0, SVG Export Plug-In . SVG Version: 6.00 Build 0)  -->
<svg version="1.1" id="Ebene_1" xmlns="http://www.w3.org/2000/svg" xmlns:xlink="http://www.w3.org/1999/xlink" x="0px" y="0px"
	 viewBox="0 0 1010.8 267.5" style="enable-background:new 0 0 1010.8 267.5;" xml:space="preserve">
<style type="text/css">
	.st0{display:none;}
	.st1{fill:none;}
	.st2{fill:#FFFFFF;stroke:#FFFFFF;stroke-miterlimit:10;}
	.st3{fill:#D68E44;}
</style>
<rect x="0.8" y="1.8" class="st0" width="1010" height="236"/>
<g>
	<rect x="211.5" y="39.3" class="st1" width="503.3" height="193.5"/>
	<path class="st2" d="M259.2,216.8c24.1,0,31.9-18.9,31.9-40.7V39.3h5.4v136.5c0,24.9-9.8,46.1-37.3,46.1
		c-27.7,0-37.6-21.2-37.6-46.1V39.3h5.7v136.8C227.3,197.9,235.1,216.8,259.2,216.8z"/>
	<path class="st2" d="M392,83.1v3.4h-5.7v-3.6c0-21.5-8-39.6-31.6-39.6c-23.8,0-31.9,17.9-31.9,39.4c0,46.4,69.4,45.1,69.4,94.3
		c0,25.1-10.4,45.1-38.1,45.1c-27.5,0-37.8-19.9-37.8-45.1v-8.8h5.4v9.1c0,22,8.5,39.4,32.4,39.4c23.8,0,32.4-17.4,32.4-39.4
		c0-45.8-69.4-44.3-69.4-94.3c0-26.4,11.1-44.5,37.3-44.8C381.9,38.1,392,58.3,392,83.1z"/>
	<path class="st2" d="M416.9,220.6h-5.2l43.8-181.6h8l44.8,181.6h-5.7L492,177.9h-64.5L416.9,220.6z M491,172.7L459.4,45.8
		l-30.8,126.9H491z"/>
</g>
<g>
	<rect x="512.6" y="39.7" class="st1" width="446.2" height="183.1"/>
	<path class="st3" d="M603,83.5V99h-19.2V82.4c0-16.3-6.5-26.2-21.2-26.2c-14.5,0-21.2,9.8-21.2,26.2v95.8
		c0,16.3,6.7,26.2,21.2,26.2c14.8,0,21.2-9.8,21.2-26.2V142h-18.6v-18.1H603v53.4c0,27.5-13,45.6-40.9,45.6
		c-27.7,0-40.7-18.1-40.7-45.6V83.5c0-27.5,13-45.6,40.7-45.6C590,37.9,603,56,603,83.5z"/>
	<path class="st3" d="M686.6,138.1h-44.3v64.5h54.4V221h-74.6V39.7h74.6v18.4h-54.4V120h44.3V138.1z"/>
</g>
<g>
</g>
<g>
</g>
<g>
</g>
<g>
</g>
<g>
</g>
<g>
</g>
<g>
</g>
<g>
</g>
<g>
</g>
<g>
</g>
<g>
</g>
</svg>
