<?xml version="1.0" encoding="utf-8"?>
<!-- Generator: Adobe Illustrator 27.3.0, SVG Export Plug-In . SVG Version: 6.00 Build 0)  -->
<svg version="1.1" id="Ebene_1" xmlns="http://www.w3.org/2000/svg" xmlns:xlink="http://www.w3.org/1999/xlink" x="0px" y="0px"
	 viewBox="0 0 1891 198" style="enable-background:new 0 0 1891 198;" xml:space="preserve">
<style type="text/css">
	.st0{fill:none;}
	.st1{fill:#FFFFFF;}
	.st2{fill:#F6A440;}
</style>
<g>
	<rect x="18.3" y="25.1" class="st0" width="1859.1" height="920.5"/>
	<path class="st1" d="M28.9,25.1h43.6l16.8,65.3l16.7-65.3h43.6v107.4h-27.2V50.6l-20.9,81.9H77L56.1,50.6v81.9H28.9V25.1z"/>
	<path class="st2" d="M165.2,93.8c0-11.9,4-21.6,12-29.3c8-7.7,18.8-11.5,32.4-11.5c15.6,0,27.3,4.5,35.3,13.5
		c6.4,7.3,9.6,16.2,9.6,26.9c0,12-4,21.8-11.9,29.4c-7.9,7.6-18.9,11.5-32.9,11.5c-12.5,0-22.6-3.2-30.3-9.5
		C169.9,116.9,165.2,106.6,165.2,93.8z M195.1,93.7c0,6.9,1.4,12.1,4.2,15.4c2.8,3.3,6.3,5,10.6,5c4.3,0,7.8-1.6,10.6-4.9
		c2.8-3.3,4.1-8.5,4.1-15.7c0-6.7-1.4-11.8-4.2-15.1s-6.2-4.9-10.3-4.9c-4.3,0-7.9,1.7-10.8,5C196.5,81.8,195.1,86.9,195.1,93.7z"/>
	<path class="st2" d="M350.8,25.1v107.4h-27.9V121c-3.9,4.9-7.5,8.2-10.7,9.9c-4.3,2.2-9.1,3.4-14.4,3.4c-10.6,0-18.7-4-24.3-12.1
		c-5.6-8.1-8.4-17.8-8.4-29.4c0-12.9,3.1-22.8,9.3-29.6c6.2-6.8,14-10.3,23.5-10.3c4.6,0,8.8,0.8,12.6,2.3c3.8,1.6,7.1,3.9,10.1,7
		V25.1H350.8z M320.9,93.4c0-6.1-1.3-10.7-3.9-13.7c-2.6-3-5.9-4.5-9.8-4.5c-3.5,0-6.4,1.4-8.7,4.3c-2.3,2.9-3.5,7.7-3.5,14.5
		c0,6.3,1.2,11,3.6,14c2.4,3,5.4,4.4,9,4.4c3.8,0,7-1.5,9.5-4.5C319.6,105,320.9,100.1,320.9,93.4z"/>
	<path class="st1" d="M420.6,25.1h43.6l16.8,65.3l16.7-65.3h43.6v107.4h-27.2V50.6l-20.9,81.9h-24.6l-20.9-81.9v81.9h-27.2V25.1z"/>
	<path class="st2" d="M587.7,79.9l-28.5-3c1.1-5,2.6-8.9,4.7-11.8c2-2.9,4.9-5.3,8.8-7.4c2.7-1.5,6.5-2.7,11.3-3.5
		c4.8-0.8,10-1.2,15.5-1.2c8.9,0,16.1,0.5,21.5,1.5c5.4,1,9.9,3.1,13.5,6.3c2.5,2.2,4.5,5.3,6,9.3s2.2,7.9,2.2,11.5v34.4
		c0,3.7,0.2,6.5,0.7,8.6c0.5,2.1,1.5,4.7,3,7.9h-28c-1.1-2-1.9-3.5-2.2-4.6c-0.3-1-0.7-2.7-1-4.9c-3.9,3.8-7.8,6.4-11.6,8.1
		c-5.3,2.1-11.4,3.2-18.4,3.2c-9.3,0-16.3-2.1-21.1-6.4c-4.8-4.3-7.2-9.6-7.2-15.9c0-5.9,1.7-10.8,5.2-14.6
		c3.5-3.8,9.9-6.6,19.2-8.5c11.2-2.2,18.4-3.8,21.8-4.7c3.3-0.9,6.8-2.1,10.5-3.6c0-3.7-0.8-6.2-2.3-7.7c-1.5-1.5-4.2-2.2-8-2.2
		c-4.9,0-8.5,0.8-11,2.3C590.4,74.2,588.9,76.5,587.7,79.9z M613.6,95.6c-4.1,1.5-8.4,2.8-12.8,3.9c-6.1,1.6-9.9,3.2-11.5,4.8
		c-1.7,1.6-2.5,3.4-2.5,5.5c0,2.3,0.8,4.3,2.5,5.7c1.6,1.5,4,2.2,7.2,2.2c3.3,0,6.4-0.8,9.3-2.4s4.9-3.6,6.1-5.9
		c1.2-2.3,1.8-5.3,1.8-9V95.6z"/>
	<path class="st2" d="M660.6,54.7h27.8v12.7c4.1-5.2,8.3-8.9,12.6-11.1c4.2-2.2,9.4-3.3,15.5-3.3c8.3,0,14.7,2.5,19.4,7.4
		c4.7,4.9,7,12.5,7,22.7v49.4h-30V89.7c0-4.9-0.9-8.3-2.7-10.4c-1.8-2-4.3-3-7.6-3c-3.6,0-6.5,1.4-8.8,4.1
		c-2.2,2.7-3.4,7.6-3.4,14.7v37.4h-29.8V54.7z"/>
	<path class="st2" d="M787.8,79.9l-28.5-3c1.1-5,2.6-8.9,4.7-11.8c2-2.9,4.9-5.3,8.8-7.4c2.7-1.5,6.5-2.7,11.3-3.5
		c4.8-0.8,10-1.2,15.5-1.2c8.9,0,16.1,0.5,21.5,1.5c5.4,1,9.9,3.1,13.5,6.3c2.5,2.2,4.5,5.3,6,9.3s2.2,7.9,2.2,11.5v34.4
		c0,3.7,0.2,6.5,0.7,8.6c0.5,2.1,1.5,4.7,3,7.9h-28c-1.1-2-1.9-3.5-2.2-4.6c-0.3-1-0.7-2.7-1-4.9c-3.9,3.8-7.8,6.4-11.6,8.1
		c-5.3,2.1-11.4,3.2-18.4,3.2c-9.3,0-16.3-2.1-21.1-6.4c-4.8-4.3-7.2-9.6-7.2-15.9c0-5.9,1.7-10.8,5.2-14.6
		c3.5-3.8,9.9-6.6,19.2-8.5c11.2-2.2,18.4-3.8,21.8-4.7c3.3-0.9,6.8-2.1,10.5-3.6c0-3.7-0.8-6.2-2.3-7.7c-1.5-1.5-4.2-2.2-8-2.2
		c-4.9,0-8.5,0.8-11,2.3C790.5,74.2,789,76.5,787.8,79.9z M813.7,95.6c-4.1,1.5-8.4,2.8-12.8,3.9c-6.1,1.6-9.9,3.2-11.5,4.8
		c-1.7,1.6-2.5,3.4-2.5,5.5c0,2.3,0.8,4.3,2.5,5.7c1.6,1.5,4,2.2,7.2,2.2c3.3,0,6.4-0.8,9.3-2.4s4.9-3.6,6.1-5.9
		c1.2-2.3,1.8-5.3,1.8-9V95.6z"/>
	<path class="st2" d="M917.2,54.7h27.9v73.5l0.1,3.4c0,4.9-1,9.5-3.1,14c-2.1,4.4-4.8,8-8.3,10.7c-3.4,2.7-7.8,4.7-13.1,5.9
		c-5.3,1.2-11.4,1.8-18.2,1.8c-15.6,0-26.4-2.3-32.2-7c-5.8-4.7-8.8-11-8.8-18.8c0-1,0-2.3,0.1-4l28.9,3.3c0.7,2.7,1.9,4.5,3.4,5.6
		c2.2,1.5,5,2.3,8.3,2.3c4.3,0,7.5-1.1,9.6-3.4c2.1-2.3,3.2-6.3,3.2-12v-11.8c-2.9,3.5-5.9,6-8.8,7.5c-4.6,2.4-9.5,3.7-14.9,3.7
		c-10.4,0-18.8-4.5-25.2-13.6c-4.5-6.4-6.8-15-6.8-25.6c0-12.1,2.9-21.3,8.8-27.7c5.9-6.3,13.5-9.5,23-9.5c6.1,0,11,1,15,3.1
		c3.9,2.1,7.6,5.4,11,10.2V54.7z M889.2,92.4c0,5.6,1.2,9.8,3.6,12.5c2.4,2.7,5.5,4.1,9.4,4.1c3.7,0,6.8-1.4,9.3-4.2
		c2.5-2.8,3.8-7,3.8-12.7c0-5.7-1.3-10-4-13s-5.9-4.5-9.7-4.5s-6.8,1.4-9.1,4.1C890.3,81.5,889.2,86,889.2,92.4z"/>
	<path class="st2" d="M1049.5,101h-59.8c0.5,4.8,1.8,8.3,3.9,10.7c2.9,3.4,6.6,5.1,11.3,5.1c2.9,0,5.7-0.7,8.3-2.2
		c1.6-0.9,3.3-2.6,5.2-4.9l29.4,2.7c-4.5,7.8-9.9,13.4-16.3,16.8c-6.3,3.4-15.5,5.1-27.3,5.1c-10.3,0-18.4-1.5-24.3-4.4
		c-5.9-2.9-10.8-7.5-14.7-13.8c-3.9-6.3-5.8-13.8-5.8-22.3c0-12.2,3.9-22,11.7-29.5c7.8-7.5,18.5-11.3,32.3-11.3
		c11.1,0,19.9,1.7,26.4,5.1s11.4,8.3,14.7,14.6c3.4,6.4,5.1,14.7,5.1,25V101z M1019.2,86.7c-0.6-5.8-2.1-9.9-4.7-12.4
		c-2.5-2.5-5.8-3.7-9.9-3.7c-4.7,0-8.5,1.9-11.4,5.6c-1.8,2.3-3,5.8-3.4,10.5H1019.2z"/>
	<path class="st2" d="M1063.5,54.7h27.9v12.7c2.7-5.5,5.5-9.3,8.3-11.4c2.9-2.1,6.4-3.1,10.6-3.1c4.4,0,9.2,1.4,14.4,4.1l-9.2,21.2
		c-3.5-1.5-6.3-2.2-8.3-2.2c-3.9,0-6.9,1.6-9.1,4.8c-3.1,4.5-4.6,13-4.6,25.5v26.1h-30V54.7z"/>
	<path class="st1" d="M1181.4,25.1h43.6l16.8,65.3l16.7-65.3h43.6v107.4H1275V50.6l-20.9,81.9h-24.6l-20.9-81.9v81.9h-27.2V25.1z"/>
	<path class="st2" d="M1322.5,25.1h29.8v20.3h-29.8V25.1z M1322.5,54.7h29.8v77.8h-29.8V54.7z"/>
	<path class="st2" d="M1425.5,54.7h27.9v73.5l0.1,3.4c0,4.9-1,9.5-3.1,14c-2.1,4.4-4.8,8-8.3,10.7c-3.4,2.7-7.8,4.7-13.1,5.9
		c-5.3,1.2-11.4,1.8-18.2,1.8c-15.6,0-26.4-2.3-32.2-7s-8.8-11-8.8-18.8c0-1,0-2.3,0.1-4l28.9,3.3c0.7,2.7,1.9,4.5,3.4,5.6
		c2.2,1.5,5,2.3,8.3,2.3c4.3,0,7.5-1.1,9.6-3.4c2.1-2.3,3.2-6.3,3.2-12v-11.8c-2.9,3.5-5.9,6-8.8,7.5c-4.6,2.4-9.5,3.7-14.9,3.7
		c-10.4,0-18.8-4.5-25.2-13.6c-4.5-6.4-6.8-15-6.8-25.6c0-12.1,2.9-21.3,8.8-27.7c5.9-6.3,13.5-9.5,23-9.5c6.1,0,11,1,15,3.1
		s7.6,5.4,11,10.2V54.7z M1397.4,92.4c0,5.6,1.2,9.8,3.6,12.5c2.4,2.7,5.5,4.1,9.4,4.1c3.7,0,6.8-1.4,9.3-4.2
		c2.5-2.8,3.8-7,3.8-12.7c0-5.7-1.3-10-4-13s-5.9-4.5-9.7-4.5s-6.8,1.4-9.1,4.1C1398.6,81.5,1397.4,86,1397.4,92.4z"/>
	<path class="st2" d="M1474.4,54.7h27.9v12.7c2.7-5.5,5.5-9.3,8.3-11.4c2.9-2.1,6.4-3.1,10.6-3.1c4.4,0,9.2,1.4,14.4,4.1l-9.2,21.2
		c-3.5-1.5-6.3-2.2-8.3-2.2c-3.9,0-6.9,1.6-9.1,4.8c-3.1,4.5-4.6,13-4.6,25.5v26.1h-30V54.7z"/>
	<path class="st2" d="M1570.4,79.9l-28.5-3c1.1-5,2.6-8.9,4.7-11.8c2-2.9,4.9-5.3,8.8-7.4c2.7-1.5,6.5-2.7,11.3-3.5
		c4.8-0.8,10-1.2,15.5-1.2c8.9,0,16.1,0.5,21.5,1.5c5.4,1,9.9,3.1,13.5,6.3c2.5,2.2,4.5,5.3,6,9.3s2.2,7.9,2.2,11.5v34.4
		c0,3.7,0.2,6.5,0.7,8.6c0.5,2.1,1.5,4.7,3,7.9h-28c-1.1-2-1.9-3.5-2.2-4.6c-0.3-1-0.7-2.7-1-4.9c-3.9,3.8-7.8,6.4-11.6,8.1
		c-5.3,2.1-11.4,3.2-18.4,3.2c-9.3,0-16.3-2.1-21.1-6.4c-4.8-4.3-7.2-9.6-7.2-15.9c0-5.9,1.7-10.8,5.2-14.6
		c3.5-3.8,9.9-6.6,19.2-8.5c11.2-2.2,18.4-3.8,21.8-4.7c3.3-0.9,6.8-2.1,10.5-3.6c0-3.7-0.8-6.2-2.3-7.7c-1.5-1.5-4.2-2.2-8-2.2
		c-4.9,0-8.5,0.8-11,2.3C1573.1,74.2,1571.6,76.5,1570.4,79.9z M1596.3,95.6c-4.1,1.5-8.4,2.8-12.8,3.9c-6.1,1.6-9.9,3.2-11.5,4.8
		c-1.7,1.6-2.5,3.4-2.5,5.5c0,2.3,0.8,4.3,2.5,5.7c1.6,1.5,4,2.2,7.2,2.2c3.3,0,6.4-0.8,9.3-2.4c2.9-1.6,4.9-3.6,6.1-5.9
		c1.2-2.3,1.8-5.3,1.8-9V95.6z"/>
	<path class="st2" d="M1676.7,25.1v29.6h16.4v21.8h-16.4v27.6c0,3.3,0.3,5.5,1,6.6c1,1.7,2.7,2.5,5.1,2.5c2.2,0,5.3-0.6,9.2-1.9
		l2.2,20.6c-7.4,1.6-14.3,2.4-20.7,2.4c-7.4,0-12.9-1-16.4-2.9s-6.1-4.8-7.8-8.7c-1.7-3.9-2.5-10.2-2.5-18.8V76.5h-11V54.7h11V40.4
		L1676.7,25.1z"/>
	<path class="st2" d="M1703.6,93.8c0-11.9,4-21.6,12-29.3c8-7.7,18.8-11.5,32.4-11.5c15.6,0,27.3,4.5,35.3,13.5
		c6.4,7.3,9.6,16.2,9.6,26.9c0,12-4,21.8-11.9,29.4c-7.9,7.6-18.9,11.5-32.9,11.5c-12.5,0-22.6-3.2-30.3-9.5
		C1708.4,116.9,1703.6,106.6,1703.6,93.8z M1733.5,93.7c0,6.9,1.4,12.1,4.2,15.4c2.8,3.3,6.3,5,10.6,5c4.3,0,7.8-1.6,10.6-4.9
		c2.8-3.3,4.1-8.5,4.1-15.7c0-6.7-1.4-11.8-4.2-15.1s-6.2-4.9-10.3-4.9c-4.3,0-7.9,1.7-10.8,5C1734.9,81.8,1733.5,86.9,1733.5,93.7z
		"/>
	<path class="st2" d="M1807.7,54.7h27.9v12.7c2.7-5.5,5.5-9.3,8.3-11.4c2.9-2.1,6.4-3.1,10.6-3.1c4.4,0,9.2,1.4,14.4,4.1l-9.2,21.2
		c-3.5-1.5-6.3-2.2-8.3-2.2c-3.9,0-6.9,1.6-9.1,4.8c-3.1,4.5-4.6,13-4.6,25.5v26.1h-30V54.7z"/>
</g>
<g>
</g>
<g>
</g>
<g>
</g>
<g>
</g>
<g>
</g>
<g>
</g>
<g>
</g>
<g>
</g>
<g>
</g>
<g>
</g>
<g>
</g>
</svg>
