<?xml version="1.0" encoding="utf-8"?>
<!-- Generator: Adobe Illustrator 27.3.0, SVG Export Plug-In . SVG Version: 6.00 Build 0)  -->
<svg version="1.1" id="Ebene_1" xmlns="http://www.w3.org/2000/svg" xmlns:xlink="http://www.w3.org/1999/xlink" x="0px" y="0px"
	 viewBox="0 0 1937 268.5" style="enable-background:new 0 0 1937 268.5;" xml:space="preserve">
<style type="text/css">
	.st0{fill:none;}
	.st1{fill:#FFFFFF;stroke:#0D1117;stroke-width:2;stroke-miterlimit:10;}
	.st2{fill:#F6A440;stroke:#FFFFFF;stroke-miterlimit:10;}
</style>
<g>
	<rect x="1" y="39.8" class="st0" width="1936" height="183.5"/>
	<path class="st1" d="M60.3,220.9L22,60.6v160.6H11.4V39.8h17.1l38.1,160.3l37.8-160.3h17.1v181.3H110V60L72.2,220.9H60.3z"/>
	<path class="st2" d="M182,38c28,0,41.7,17.9,41.7,45.6v93.8c0,27.5-13.7,45.6-41.7,45.6c-27.7,0-41.4-18.1-41.4-45.6V83.6
		C140.6,55.9,154.3,38,182,38z M182,204.6c14.8,0,21.5-9.6,21.5-26.2V82.6c0-16.3-6.7-26.2-21.5-26.2c-14.5,0-21.5,9.8-21.5,26.2
		v95.8C160.5,195,167.5,204.6,182,204.6z"/>
	<path class="st2" d="M326.6,84.9v91.4c0,27.7-13,44.8-41.2,44.8h-42.5V39.8h42.5C313.6,39.8,326.6,56.9,326.6,84.9z M306.6,177.1
		V83.9c0-16.6-7-25.6-21.8-25.6h-21.8v144.5h22C299.6,202.8,306.6,193.7,306.6,177.1z"/>
	<path class="st1" d="M434.6,220.9L396.2,60.6v160.6h-10.6V39.8h17.1l38.1,160.3l37.8-160.3h17.1v181.3h-11.4V60l-37.8,160.8H434.6z
		"/>
	<path class="st2" d="M529.9,221.1h-18.6l34.7-181.3h29.3l34.7,181.3h-20.2l-7-36.5h-45.8L529.9,221.1z M579.9,167.3L559.4,62.6
		l-19.9,104.6H579.9z"/>
	<path class="st2" d="M625.4,221.1V39.8h25.6l42,131.1V39.8h17.9v181.3h-21L643.6,74.6v146.6H625.4z"/>
	<path class="st2" d="M745.1,221.1h-18.6l34.7-181.3h29.3l34.7,181.3h-20.2l-7-36.5h-45.8L745.1,221.1z M795.1,167.3L774.6,62.6
		l-19.9,104.6H795.1z"/>
	<path class="st2" d="M920.7,83.6v15.5h-19.2V82.6c0-16.3-6.5-26.2-21.2-26.2c-14.5,0-21.2,9.8-21.2,26.2v95.8
		c0,16.3,6.7,26.2,21.2,26.2c14.8,0,21.2-9.8,21.2-26.2v-36.3h-18.6V124h37.8v53.4c0,27.5-13,45.6-40.9,45.6
		c-27.7,0-40.7-18.1-40.7-45.6V83.6c0-27.5,13-45.6,40.7-45.6C907.8,38,920.7,56.2,920.7,83.6z"/>
	<path class="st2" d="M1004.4,138.3h-44.3v64.5h54.4v18.4h-74.6V39.8h74.6v18.4h-54.4v61.9h44.3V138.3z"/>
	<path class="st2" d="M1113.9,81.3V96c0,19.9-7,32.4-22.5,37.3c16.6,4.9,22.8,18.4,22.8,37.8v28.2c0,8,0.3,15.5,3.6,21.8h-20.5
		c-2.3-5.2-3.4-9.8-3.4-22v-28.5c0-20.5-9.6-26.9-26.4-26.9h-14.2v77.4h-20.2V39.8h40.4C1102,39.8,1113.9,54.3,1113.9,81.3z
		 M1094,100.5V83.1c0-16.3-6-24.9-21-24.9h-19.7v67.1h15C1084.4,125.3,1094,120.1,1094,100.5z"/>
	<path class="st1" d="M1224.2,220.9l-38.3-160.3v160.6h-10.6V39.8h17.1l38.1,160.3l37.8-160.3h17.1v181.3H1274V60l-37.8,160.8
		H1224.2z"/>
	<path class="st2" d="M1326.3,221.1h-20.2V39.8h20.2V221.1z"/>
	<path class="st2" d="M1427,83.6v15.5h-19.2V82.6c0-16.3-6.5-26.2-21.2-26.2c-14.5,0-21.2,9.8-21.2,26.2v95.8
		c0,16.3,6.7,26.2,21.2,26.2c14.8,0,21.2-9.8,21.2-26.2v-36.3h-18.6V124h37.8v53.4c0,27.5-13,45.6-40.9,45.6
		c-27.7,0-40.7-18.1-40.7-45.6V83.6c0-27.5,13-45.6,40.7-45.6C1414.1,38,1427,56.2,1427,83.6z"/>
	<path class="st2" d="M1527,81.3V96c0,19.9-7,32.4-22.5,37.3c16.6,4.9,22.8,18.4,22.8,37.8v28.2c0,8,0.3,15.5,3.6,21.8h-20.5
		c-2.3-5.2-3.4-9.8-3.4-22v-28.5c0-20.5-9.6-26.9-26.4-26.9h-14.2v77.4h-20.2V39.8h40.4C1515.1,39.8,1527,54.3,1527,81.3z
		 M1507.1,100.5V83.1c0-16.3-6-24.9-21-24.9h-19.7v67.1h15C1497.5,125.3,1507.1,120.1,1507.1,100.5z"/>
	<path class="st2" d="M1561.7,221.1h-18.6l34.7-181.3h29.3l34.7,181.3h-20.2l-7-36.5h-45.8L1561.7,221.1z M1611.7,167.3l-20.5-104.6
		l-19.9,104.6H1611.7z"/>
	<path class="st2" d="M1673.9,58.2h-33.4V39.8h86.8v18.4h-33.4v162.9h-19.9V58.2z"/>
	<path class="st2" d="M1780.8,38c28,0,41.7,17.9,41.7,45.6v93.8c0,27.5-13.7,45.6-41.7,45.6c-27.7,0-41.4-18.1-41.4-45.6V83.6
		C1739.4,55.9,1753.1,38,1780.8,38z M1780.8,204.6c14.8,0,21.5-9.6,21.5-26.2V82.6c0-16.3-6.7-26.2-21.5-26.2
		c-14.5,0-21.5,9.8-21.5,26.2v95.8C1759.3,195,1766.3,204.6,1780.8,204.6z"/>
	<path class="st2" d="M1922.5,81.3V96c0,19.9-7,32.4-22.5,37.3c16.6,4.9,22.8,18.4,22.8,37.8v28.2c0,8,0.3,15.5,3.6,21.8h-20.5
		c-2.3-5.2-3.4-9.8-3.4-22v-28.5c0-20.5-9.6-26.9-26.4-26.9h-14.2v77.4h-20.2V39.8h40.4C1910.6,39.8,1922.5,54.3,1922.5,81.3z
		 M1902.5,100.5V83.1c0-16.3-6-24.9-21-24.9h-19.7v67.1h15C1893,125.3,1902.5,120.1,1902.5,100.5z"/>
</g>
<g>
</g>
<g>
</g>
<g>
</g>
<g>
</g>
<g>
</g>
<g>
</g>
<g>
</g>
<g>
</g>
<g>
</g>
<g>
</g>
<g>
</g>
</svg>
