<?xml version="1.0" encoding="utf-8"?>
<!-- Generator: Adobe Illustrator 27.3.0, SVG Export Plug-In . SVG Version: 6.00 Build 0)  -->
<svg version="1.1" id="Ebene_1" xmlns="http://www.w3.org/2000/svg" xmlns:xlink="http://www.w3.org/1999/xlink" x="0px" y="0px"
	 viewBox="0 0 2048 2048" style="enable-background:new 0 0 2048 2048;" xml:space="preserve">
<style type="text/css">
	.st0{fill:#388FBC;}
</style>
<path d="M197,1347c-0.8-62-2.1-155.3-3-219c-4.4-314.8-6.6-472.2-7.2-472.2c0,0,0,6.3,0.2,20.2c-1.1-25.3,0.1-82.6,39-118
	c30-27.3,68.5-29.1,97-30c225.4-7.2,336.1-4.6,361-4c102.1,2.3,145.9,0.3,207,25c53.9,21.8,90.3,51.8,100,60
	c29,24.6,92.5,120.6,70,90c14.3-17.6,35.9-41.1,66-64c58.2-44.2,113.8-60,143-68c117.2-32.1,216.2-9.2,244-2
	c39.6,10.2,140.7,37.8,223,131c52.8,59.8,73.9,119.4,84,149c46.2,135.1,16.9,250.2,11,272c-10.4,38.5-36,128.5-119,204
	c-109.4,99.5-239.6,102.2-280,103c-11.1,0.2-146.1,1.9-210-52c-5.9-4.9-55.9-47.7-55-47l0,0c0,0,5,100,5,100l0,0
	c0,0-342.6,2.8-976,8"/>
<path class="st0" d="M273,628v722.3c278.7-0.1,557.3-0.2,836-0.3c0-27.7-0.3-55.7-1-84c-3.5-146-15.7-284.3-34-414
	c-16.2-36-60-119.9-154-175c-20.3-11.9-80.7-47.3-158-51c-21.7-1-74.9-1-88.7-1c-1.1,0-2.3,0-3.3,0"/>
<path class="st0" d="M1494,626c-35.3-6-127.8-16.7-229,30c-39.5,18.2-136.5,71.2-185,181c-64.7,146.6-20.7,343.7,121,448
	c91.7,67.5,219.9,93,340,49c177.9-65.1,224.1-241.1,228-257c45.3-185.6-76-324.4-91-341c-50.3-55.5-106.8-83.9-142-98"/>
<path class="st0" d="M1097,1341"/>
<g>
</g>
<g>
</g>
<g>
</g>
<g>
</g>
<g>
</g>
<g>
</g>
<g>
</g>
<g>
</g>
<g>
</g>
<g>
</g>
<g>
</g>
</svg>
