<?xml version="1.0" encoding="utf-8"?>
<!-- Generator: Adobe Illustrator 27.3.0, SVG Export Plug-In . SVG Version: 6.00 Build 0)  -->
<svg version="1.1" xmlns="http://www.w3.org/2000/svg" xmlns:xlink="http://www.w3.org/1999/xlink" x="0px" y="0px"
	 viewBox="0 0 1987 632" style="enable-background:new 0 0 1987 632;" xml:space="preserve">
<style type="text/css">
	.st0{display:none;}
	.st1{display:inline;fill:#202020;stroke:#00FF30;stroke-width:20;stroke-miterlimit:10;}
	.st2{display:inline;}
	.st3{fill:#00FF30;stroke:#FFFFFF;stroke-width:2;stroke-miterlimit:10;}
	.st4{stroke:#FFFFFF;stroke-width:5;stroke-miterlimit:10;}
	.st5{fill:#FFFFFF;}
	.st6{fill:none;}
	.st7{fill:#202020;stroke:#388FBC;stroke-width:20;stroke-miterlimit:10;}
	.st8{fill:#292B2A;}
	.st9{fill:#388FBC;}
	.st10{display:inline;fill:#202020;stroke:#D68E44;stroke-width:20;stroke-miterlimit:10;}
	.st11{fill-rule:evenodd;clip-rule:evenodd;fill:#D68E44;}
	.st12{fill:none;stroke:#2A2B2A;stroke-width:21.8571;stroke-linecap:square;}
	.st13{fill-rule:evenodd;clip-rule:evenodd;fill:#965A28;}
	.st14{fill:none;stroke:#965A28;stroke-width:1.4571;}
	.st15{fill-rule:evenodd;clip-rule:evenodd;fill:#FEFEFE;}
	.st16{fill:none;stroke:#FEFEFE;stroke-width:1.4571;}
</style>
<g id="NMM" class="st0">
	<path id="NMM_x5F_Base" class="st1" d="M1853.3,621H133.7C65.4,621,10,565.6,10,497.3V133.7C10,65.4,65.4,10,133.7,10h1719.7
		c68.3,0,123.7,55.4,123.7,123.7v363.7C1977,565.6,1921.6,621,1853.3,621z"/>
	<g id="NMM_x5F_Icon" class="st2">
		<path id="Green_x5F_Thing" class="st3" d="M581.1,377.2c-2,18.1-4,36.2-6.1,54.3l0,0c-1.9,10.7-5.8,14.5-8.9,16.1
			c-3.9,1.9-17.2,2.7-12.9,2.1l0,0c-8.3-1.5-21-3.7-36.4-6.4c0,0-29.1-5.1-56.1-10c-58.4-10.5-233.4-43.5-175.1-32.5l0,0
			c-4.6-3.9-9.6-9.5-8.9-15.4c1.6-14,34.4-21.7,94-30.4c192.6-28.1,206.6,0.2,207.6,3.9c0.3,0.9,2.9,12.9,2.9,12.9l0,0
			c0,0,0,1.3,0,3.6"/>
		<path id="Background" class="st4" d="M145.9,221.4L145.9,221.4c25.5,115.8,30.1,130,39.3,158.6c0.2,0.5,0.4,1.1,0.4,1.1
			c0.2,0.6,1.6,4.7,3.9,8.6c1.3,2.3,4,6.9,9.3,11.1c1.1,0.8,7.4,4.9,11.4,6.1c0.7,0.2,1.4,0.4,1.4,0.4c2.8,0.6,5,0.4,6.1,0.4
			c4.7-0.4,8.8-1.1,13.9-1.8c1.1-0.1,2.5-0.3,5.4-0.6c4.3-0.4,8.6-0.8,12.9-1.2c20.8-2.3,59.1-4.7,63.2-5
			c29.5-1.9,36.5-3.2,124.3-10.4c73.9-6,145.4-11.4,145.4-11.4s6.4-1,9.3-1.8c9.4-2.5,14.9-11.3,16.1-13.2c2.2-3.6,2.9-7,4.3-13.6
			c2-9.4,1.3-12.2,2.9-26.1c1.2-10.8,1.8-10.4,2.5-19.3c0.6-7.8,1.1-18.2,1.1-18.2c0,0,1.6-21,4.3-43.9c0,0,0.6-5.6,1.8-20
			c0.8-9.8,0.8-12.3,0-15.7c-0.5-2.1-2.5-10.5-10-16.1c-5.6-4.1-11.6-4.7-18.9-5.4c-6.1-0.5-10.8-0.1-11.4,0c0,0-7.3,0.7-403.7-1.8
			c0,0-5.2-0.3-8.9,0c-1.2,0.1-5.8,0.6-10.7,3.2c-1.5,0.8-5.9,3.3-9.6,8.2c-1.3,1.7-4.5,6.3-5.7,12.9
			C144.6,213.5,145.9,221.4,145.9,221.4z"/>
		<polyline id="N" class="st5" points="252,326.5 256,287.9 279.5,326.5 298.8,326.5 307.4,239.7 283.5,239.7 279.9,278.6 
			256.6,239.7 236.7,239.7 228.4,326.5 		"/>
		<polyline id="M" class="st5" points="307.9,326.5 316.2,239.7 344.8,239.7 361.3,290.7 389.3,239.7 413.8,239.7 405.3,326.5 
			381.5,326.5 385.3,286.5 364.5,326.5 347.6,326.5 335.6,286.5 331.5,326.5 		"/>
		<polyline id="M_x5F_2" class="st5" points="414.1,326.5 422.8,239.7 451.2,239.7 467.5,291.1 496.2,239.7 519.9,239.7 
			511.4,326.5 487.6,326.5 491.4,286.8 470.8,326.5 454.1,326.5 441.7,286.8 437.8,326.1 		"/>
	</g>
	<g id="NMM_x5F_Text" class="st2">
		<g id="Text2_x5F_NMM">
			<rect x="664" y="149.3" class="st6" width="1160" height="472"/>
			<path class="st5" d="M672.1,294.9V149.3h20.6l33.7,105.2V149.3h14.4v145.6h-16.8l-37.2-117.7v117.7H672.1z"/>
			<path class="st5" d="M795.5,294.7l-24.1-115.9v116.1h-14.1V149.3h22.7l23.9,116.3l23.1-116.3h22.7v145.6h-15.4V177.8l-23.1,116.9
				H795.5z"/>
			<path class="st5" d="M904.2,294.7l-24.1-115.9v116.1H866V149.3h22.7l23.9,116.3l23.1-116.3h22.7v145.6h-15.4V177.8l-23.1,116.9
				H904.2z"/>
			<path class="st5" d="M1046.3,214.9v14.6h-39.7v-14.6H1046.3z"/>
		</g>
		<g id="Text1_x5F_NMM">
			<rect x="663.6" y="342.8" class="st6" width="1160" height="150.2"/>
			<path class="st5" d="M722.9,371.5v10.7h-12.6v-11.4c0-10.7-4.2-17.2-13.9-17.2c-9.5,0-13.9,6.5-13.9,17.2v62.9
				c0,10.7,4.4,17.2,13.9,17.2c9.7,0,13.9-6.5,13.9-17.2v-15.5h12.6V433c0,18-8.5,29.9-26.9,29.9c-18.2,0-26.7-11.9-26.7-29.9v-61.5
				c0-18,8.5-29.9,26.7-29.9C714.4,341.6,722.9,353.5,722.9,371.5z"/>
			<path class="st5" d="M761.2,341.6c18.4,0,27.4,11.7,27.4,29.9V433c0,18-9,29.9-27.4,29.9C743,463,734,451.1,734,433v-61.5
				C734,353.3,743,341.6,761.2,341.6z M761.2,450.9c9.7,0,14.1-6.3,14.1-17.2v-62.9c0-10.7-4.4-17.2-14.1-17.2
				c-9.5,0-14.1,6.5-14.1,17.2v62.9C747.1,444.6,751.7,450.9,761.2,450.9z"/>
			<path class="st5" d="M832.3,461.6l-19.7-94.7v94.9H801v-119h18.5l19.5,95l18.9-95h18.5v119h-12.6v-95.7L845,461.6H832.3z"/>
			<path class="st5" d="M921.2,461.6l-19.7-94.7v94.9h-11.6v-119h18.5l19.5,95l18.9-95h18.5v119h-12.6v-95.7l-18.9,95.5H921.2z"/>
			<path class="st5" d="M1005.5,450.9c9.5,0,13.8-6.5,13.8-17.2v-90.9h12.4V433c0,18-8.3,30.1-26.7,30.1
				c-18.2,0-26.5-12.1-26.5-30.1v-90.3h13.1v90.9C991.5,444.4,995.8,450.9,1005.5,450.9z"/>
			<path class="st5" d="M1044.6,461.8v-119h16.8l27.5,86v-86h11.7v119h-13.8l-30.4-96.2v96.2H1044.6z"/>
			<path class="st5" d="M1127.5,461.8h-13.3v-119h13.3V461.8z"/>
			<path class="st5" d="M1158.5,354.8h-21.9v-12.1h57.1v12.1h-21.9v106.9h-13.3V354.8z"/>
			<path class="st5" d="M1198.8,342.8h13.8l18.5,58.5l18.7-58.5h12.6l-25.3,76.3v42.7h-13.1v-42.7L1198.8,342.8z"/>
			<path class="st5" d="M1340.5,407.4h-29.1v42.3h35.7v12.1h-49v-119h49v12.1h-35.7v40.6h29.1V407.4z"/>
			<path class="st5" d="M1414.3,372.3v60c0,18.2-8.5,29.4-27,29.4h-27.9v-119h27.9C1405.8,342.8,1414.3,354,1414.3,372.3z
				 M1401.2,432.9v-61.2c0-10.9-4.6-16.8-14.3-16.8h-14.3v94.9h14.5C1396.6,449.7,1401.2,443.7,1401.2,432.9z"/>
			<path class="st5" d="M1440,461.8h-13.3v-119h13.3V461.8z"/>
			<path class="st5" d="M1470.9,354.8H1449v-12.1h57.1v12.1h-21.9v106.9h-13.3V354.8z"/>
			<path class="st5" d="M1528.6,461.8h-13.3v-119h13.3V461.8z"/>
			<path class="st5" d="M1568.3,341.6c18.4,0,27.4,11.7,27.4,29.9V433c0,18-9,29.9-27.4,29.9c-18.2,0-27.2-11.9-27.2-29.9v-61.5
				C1541.1,353.3,1550.1,341.6,1568.3,341.6z M1568.3,450.9c9.7,0,14.1-6.3,14.1-17.2v-62.9c0-10.7-4.4-17.2-14.1-17.2
				c-9.5,0-14.1,6.5-14.1,17.2v62.9C1554.2,444.6,1558.8,450.9,1568.3,450.9z"/>
			<path class="st5" d="M1608.1,461.8v-119h16.8l27.5,86v-86h11.7v119h-13.8l-30.4-96.2v96.2H1608.1z"/>
		</g>
	</g>
</g>
<g id="MO2">
	<path id="MO2_x5F_Base" class="st7" d="M1853.3,622H133.7C65.4,622,10,566.6,10,498.3V134.7C10,66.4,65.4,11,133.7,11h1719.7
		c68.3,0,123.7,55.4,123.7,123.7v363.7C1977,566.6,1921.6,622,1853.3,622z"/>
	<g id="MO2_x5F_Text">
		
			<image style="display:none;overflow:visible;" width="989" height="340" id="Image" xlink:href="MO2-Label.png"  transform="matrix(2.069 0 0 2.069 -24 -36)">
		</image>
		<path id="MO" class="st5" d="M680.6,316.5h36.1v-91.2l43.7,65.8h28.1l45-65.7c0.3,26.6,0.6,53.2,0.9,79.7
			c-2.5,0.2-6.1,0.4-10.3,0.9c-20.6,2.4-39.1,4.7-54.4,15.9c-20.7,15.3-25,39.5-25.3,41.3c-0.5,3-3.7,24.5,9.4,45
			c15.6,24.4,43,29.8,58.2,32.8c6.2,1.2,22.7,3.9,43.2,0c14.8-2.8,32.5-6.2,46.9-21.6c2.9-3.1,18.4-20.2,17.8-46
			c-0.6-25.9-17.2-47.8-36.6-57.2c-1.3-0.6-14.1-4.7-14.1-4.7l0,0c0.3-43.8,0.6-87.6,0.9-131.3l0,0c-15.6,0-31.3,0-46.9,0l0,0
			c-16.3,24.1-32.5,48.2-48.8,72.2l0,0c0,0-47.8-72.2-47.8-72.2l0,0c0,0-18,0-46,0"/>
		<path id="Mo_x5F_o" class="st8" d="M836.8,336.7c-12-0.8-21.3,1.1-27.2,2.8c-7.3,2.1-12.6,3.6-17.8,8.4
			c-7.9,7.4-9.5,17.1-10.3,21.6c-0.9,5-2,11.6,0.9,18.8c4.1,9.9,13.3,14.3,18.8,16.9c12.1,5.7,22.9,5.2,33.8,4.7
			c13.2-0.6,22.4-1.1,31.9-7.5c3.5-2.3,14.8-10,16.9-24.4c2.2-15.1-7.5-26-9.4-28.1c-12-13.6-29.4-13.2-31.9-13.1"/>
		<path id="o2" class="st5" d="M942.8,211c9-0.4,23.7,0.4,38.5,8.4c8.8,4.8,14,10.1,15,11.3c3.5,3.7,11.8,12.8,14.1,27.2
			c0.4,2.4,2.2,15.6-4.7,29.1c-11,21.4-35.4,26.9-45,29.1c-6.5,1.5-31.8,6.8-56.3-7.5c-7.6-4.4-21.8-12.7-27.2-30
			c-6.2-19.8,3.5-36.8,5.6-40.3c11.9-19.6,32.3-23.8,35.7-24.4"/>
		<path id="o2_x5F_2" class="st8" d="M925,242.9c4.7-1.6,11.1-3.1,18.8-2.8c3.8,0.1,10,0.4,16.9,3.8c3.3,1.6,7.1,3.4,10.3,7.5
			c1.4,1.8,6.1,8.4,4.7,16.9c-1.3,7.7-6.8,12.1-9.4,14.1c-8.9,7-19.3,6.7-24.4,6.6c-7.3-0.2-19.9-0.6-27.2-10.3
			c-0.7-0.9-7.8-10.8-3.8-21.6c2.2-5.8,6.5-9,8.4-10.3"/>
		<path id="d-1" class="st5" d="M1103.3,218.5c-9.4-6.8-20.5-6.7-31.9-6.6c-8.1,0.1-18.7,0.2-30,6.6c-12.8,7.2-18.9,18.1-20.6,21.6
			c-8.5,16.7-8.9,40.4,4.7,57.2c11.9,14.8,29.2,17.5,37.5,18.8c9.2,1.4,26.6,4.1,40.3-6.6c15.3-11.9,15.7-32.3,15.9-44.1
			C1119.4,255.2,1119.9,230.4,1103.3,218.5z"/>
		<path id="d-2" class="st8" d="M1069.5,240.1c-3,0.8-9.2,2.6-14.1,8.4c-1.9,2.3-5,6.8-5.6,13.1c0,0.5-0.8,9.8,4.7,16.9
			c11.1,14.1,38.2,7.7,48.8,0.9c2.1-1.3,5.8-3.8,7.5-8.4c1.6-4.4,0.5-8.4,0-10.3c-3.1-11-14.1-16.5-16.9-17.8
			C1091.1,241.5,1081.2,236.9,1069.5,240.1z"/>
		<polygon id="d-Strich" class="st5" points="1105.3,318.2 1138.7,318.2 1138.7,180.5 1101.8,180.5 		"/>
		<rect id="r_x5F_Strich" x="930.3" y="338.8" class="st5" width="36.9" height="102.1"/>
		<path id="r_x5F_r" class="st5" d="M1016.9,374.2L1016.9,374.2c0,0,0-35.7,0-35.7l0,0c0,0-15.4,0.9-31,4.7c0,0-18.9,4.6-29.1,12.2
			c-0.1,0.1-3.8,2.8-3.8,2.8l0,0c0,0-3.3,26.2,3.8,29.1c1.5,0.6,3.3,0.1,6.6-0.9c4.1-1.3,6.8-3.2,7.5-3.8c0,0,11.9-8.4,42.2-8.4
			C1013.4,374.2,1016.9,374.2,1016.9,374.2z"/>
		<path id="g_x5F_1" class="st5" d="M1041.3,342.3c-20.3,15-29.6,38.1-23.5,56.3c6.3,18.5,26.4,26,34.7,29.1
			c10.8,4,33.4,9.2,43.2,1.9c0,0,6.8-5.1,13.1-4.7c0.7,0,1.8,0.2,2.8,0.9c2.4,1.8,2.6,5.8,1.9,8.4c-0.6,2.3-2,3.9-2.8,4.7
			c-3.7,3.6-9.5,4.2-24.4,3.8c-10.2-0.3-15.3-0.4-18.8-0.9c-8-1.2-31.2-7.7-23.5-5.6l0,0c-13.6,16.9-15.3,22.1-14.1,23.5
			c1.1,1.2,6.3,2.5,4.7,1.9l0,0c1.3,0.4,3.2,1.1,5.6,1.9c8.5,2.7,31.9,9.1,64.7,5.6c23.2-2.5,29.8-7.6,31.9-9.4
			c2.1-1.8,11-9.3,11.3-19.7c0.1-5.5-1.9-10.3-1.9-10.3c-1.6-3.8-4.7-8.4-4.7-8.4l0,0c0-19.1,0-38.2,0-57.2l0,0
			c3.1-4.7,6.3-9.4,9.4-14.1l0,0c-10-4.7-20-9.4-30-14.1l0,0l-11.3,9.4l0,0c0,0-5.8-4.2-6.6-4.7c-7.5-5.3-20.9-5.5-27.2-5.6
			c-5.4-0.1-12.8,0.2-21.6,1.9"/>
		<path id="g_x5F_2" class="st8" d="M1108,377.1c0,5.3,0,10.6,0,15.9l0,0c-16.1,12.3-34,15.8-45,8.4c-0.9-0.6-9.2-6.3-9.4-15
			c-0.3-10.2,10.6-18,18.8-20.6c15.9-5.1,29.9,6.6,31,7.5"/>
		<path id="a_x5F_1" class="st5" d="M1166.1,344.2c6.1,16.6,9.4,25.3,9.4,25.3c33.5-7.4,42.2-6.6,42.2-6.6c17,2.3,31.5,10.5,31,12.2
			c-0.4,1.4-10.9-2.4-30-3.8c-15.4-1.1-29.3-2-44.1,4.7c-6.4,2.9-14.1,6.5-18.8,15c-6.3,11.5-2.5,23.5-1.9,25.3
			c5.2,15.8,21.4,22.3,29.1,25.3c0,0,30.6,12.3,62.9-3.8c0,0,0,0,7.5-3.8c5.6,4.4,11.3,8.8,16.9,13.1c7.8-7.5,15.6-15,23.5-22.5
			c-3.4-3.8-6.9-7.5-10.3-11.3c-0.2-26-0.1-37.6,0-42.2c0-0.2,0-0.5,0-0.9c-0.2-6.5-4.3-11.3-7.5-15c-1.7-1.9-4.5-5.2-9.4-8.4
			c-6.2-4.2-12.2-6.1-17.8-7.5c-9-2.3-21.8-5.5-39.4-4.7c-15.4,0.7-28.1,4.1-37.5,7.5"/>
		<path id="a_x5F_2" class="st8" d="M1247.7,408c0.4,1.3,0.9,2.8,0.9,2.8l0,0c0,0-16.1,6-32.8,7.5c-8,0.7-23.6,2.1-28.1-5.6
			c-0.2-0.3-1.9-3.4-0.9-6.6c1.9-6.3,12.8-7.9,16.9-8.4c21.7-3.1,43.1,6.6,43.2,6.6l0,0C1246.8,404.3,1247.2,406.1,1247.7,408z"/>
		<polygon id="n_x5F_strich" class="st5" points="1296.5,339.5 1296.5,441 1332.2,440.9 1332.2,339.5 		"/>
		<path id="N_x5F_2" class="st5" d="M1426,388.3c-10.6,1.6-21.3,3.1-31.9,4.7c-0.5-0.4-0.8-0.7-0.9-0.9c-2.2-2.7-1-6-1.9-13.1
			c0-0.1,0-0.2,0-0.3c-0.1-1.1-0.7-4.4-2.8-7.2c-2.8-3.7-6.7-5.1-8.4-5.6c-14.3-4.6-40.2,4.4-50.7,12.2c-0.5,0.4-1.7,1.3-2.8,0.9
			c-4.9-1.8,0-28.9,0-29.1c30.1-18.2,62.9-20.3,82.6-4.7c4.2,3.4,9.8,9.1,14.1,18.8"/>
		<path id="N_x5F_3" class="st5" d="M1391.7,441h34.9v-66.6c-1-4.5-2.3-8-3.4-10.5c-3.9-8.8-9-13.8-13.1-17.8
			c-2.7-2.7-3.3-2.8-3.8-2.8c-5.4-0.3-10.7,16-14.6,31.1"/>
		
			<rect id="r_x5F_Strich_00000091712025920077913870000012343822810675833988_" x="1750.8" y="338.5" class="st5" width="36.9" height="102.1"/>
		<path id="r_x5F_r_00000126286060484458976120000005563786304499001513_" class="st5" d="M1837.4,374L1837.4,374c0,0,0-35.7,0-35.7
			l0,0c0,0-15.4,0.9-31,4.7c0,0-18.9,4.6-29.1,12.2c-0.1,0.1-3.8,2.8-3.8,2.8l0,0c0,0-3.3,26.2,3.8,29.1c1.5,0.6,3.3,0.1,6.6-0.9
			c4.1-1.3,6.8-3.2,7.5-3.8c0,0,11.9-8.4,42.2-8.4C1833.8,374,1837.4,374,1837.4,374z"/>
		<polyline class="st5" points="1438.7,441 1474.2,441 1474.2,339.5 1438.7,339.5 		"/>
		<polyline class="st5" points="1438.7,333.2 1474.2,333.2 1474.2,307.4 1438.7,307.4 		"/>
		<polyline class="st5" points="1487.1,339.5 1606.1,339.5 1606.1,369.1 1487.1,369.1 		"/>
		<polyline class="st5" points="1611.8,412.7 1611.8,439.4 1481.8,441 1481.8,412.7 1546.8,369.1 1606.1,369.1 1544.2,411.8 		"/>
		<path class="st5" d="M1643.4,379.3"/>
		<path class="st5" d="M1610.8,379.9c1.9-6.6,7.3-21.2,21.6-31.9c20.7-15.5,44.9-11,53.5-9.4c7.7,1.4,23.4,4.3,36.6,17.8
			c11.7,11.9,16.8,27.4,16.9,35.7c0,1,0,11.3,0,11.3c-42.8-0.6-85.7-1.3-128.5-1.9c-1.1-3-2.3-7.6-1.9-13.1c0.2-2.1,0.5-4,0.9-5.6"
			/>
		<path class="st5" d="M1719.7,404.3c5,7.2,10,14.4,15,21.6l0,0c-3.7,2.7-9.8,6.8-17.8,10.3c-2.1,0.9-47.9,20.2-83.5-3.8
			c-5.8-3.9-17.8-12.2-21.6-27.2c-0.8-3.3-4.3-16.8,3.8-26.3c9.4-11.1,29.9-11,34.7-3.8c1.7,2.6,1.4,6,0.9,10.3
			c-0.9,9.2-5.1,12.3-3.8,16.9c1.3,4.3,6.2,6.3,9.4,7.5c17.3,6.7,44.2,1,52.5-0.9"/>
		<path class="st8" d="M1644.6,378c0,0,57.2,0,57.2,0c0,0-3.9-6.2-5.6-8.4c-4.7-6.1-13.6-9.6-21.6-9.4c-9.3,0.2-16,5.4-19.3,7.9
			C1650.7,371.6,1644.6,378,1644.6,378z"/>
	</g>
	<g id="MO2_x5F_Icon">
		<path d="M94.1,423.8c-0.3-20.3-0.7-50.9-1-71.7C91.7,249,91,197.5,90.8,197.5c0,0,0,2.1,0.1,6.6c-0.4-8.3,0-27.1,12.8-38.6
			c9.8-8.9,22.4-9.5,31.8-9.8c73.8-2.4,110.1-1.5,118.2-1.3c33.4,0.8,47.8,0.1,67.8,8.2c17.7,7.1,29.6,17,32.7,19.6
			c9.5,8.1,30.3,39.5,22.9,29.5c4.7-5.8,11.8-13.5,21.6-21c19.1-14.5,37.3-19.6,46.8-22.3c38.4-10.5,70.8-3,79.9-0.7
			c13,3.3,46.1,12.4,73,42.9c17.3,19.6,24.2,39.1,27.5,48.8c15.1,44.2,5.5,81.9,3.6,89.1c-3.4,12.6-11.8,42.1-39,66.8
			c-35.8,32.6-78.5,33.5-91.7,33.7c-3.6,0.1-47.8,0.6-68.8-17c-1.9-1.6-18.3-15.6-18-15.4l0,0l1.6,32.7l0,0c0,0-112.2,0.9-319.6,2.6
			"/>
		<path class="st9" d="M518.9,187.7c-11.6-2-41.9-5.5-75,9.8c-12.9,6-44.7,23.3-60.6,59.3c-21.2,48-6.8,112.6,39.6,146.7
			c30,22.1,72,30.5,111.3,16c58.3-21.3,73.4-79,74.7-84.2c14.8-60.8-24.9-106.2-29.8-111.7c-16.5-18.2-35-27.5-46.5-32.1"/>
		<path class="st9" d="M119,188.4v236.5c91.3,0,182.5-0.1,273.8-0.1c0-9.1-0.1-18.2-0.3-27.5c-1.1-47.8-5.1-93.1-11.1-135.6
			c-5.3-11.8-19.6-39.3-50.4-57.3c-6.6-3.9-26.4-15.5-51.7-16.7c-7.1-0.3-24.5-0.3-29-0.3c-0.4,0-0.8,0-1.1,0"/>
	</g>
</g>
<g id="Vortex" class="st0">
	<path id="Vortex_x5F_Base" class="st10" d="M1853.3,621H133.7C65.4,621,10,565.6,10,497.3V133.7C10,65.4,65.4,10,133.7,10h1719.7
		c68.3,0,123.7,55.4,123.7,123.7v363.7C1977,565.6,1921.6,621,1853.3,621z"/>
	<g id="Vortex_x5F_Text" class="st2">
		<g>
			<rect x="673.3" y="177.7" class="st6" width="1061.7" height="367.3"/>
			<path class="st5" d="M760.9,436.5l56.8-258.8h17.2l-60.8,280h-27.2l-61.6-280h18.8L760.9,436.5z"/>
			<path class="st5" d="M922.5,175.3c43.2,0,62,30,62,70.8v143.2c0,40.8-18.8,70.8-62,70.8c-42.4,0-61.2-30-61.2-70.8V246.1
				C861.3,205.3,880.1,175.3,922.5,175.3z M922.5,443.3c31.2,0,43.6-22.4,43.6-52.8V244.9c0-30.4-12.4-52.8-43.6-52.8
				c-30.8,0-42.8,22.4-42.8,52.8v145.6C879.7,420.9,891.7,443.3,922.5,443.3z"/>
			<path class="st5" d="M1133.3,240.9v24.4c0,32.8-12.8,51.6-40.4,58c28.8,6.4,40.4,26.8,40.4,57.2v43.6c0,11.6,0.8,24.4,6.8,33.6
				h-19.2c-4.8-8.4-6-18.4-6-33.6v-44c0-37.2-20.4-47.6-52.4-47.6h-29.2v125.2h-18.4v-280h58.4
				C1116.1,177.7,1133.3,201.3,1133.3,240.9z M1114.9,268.9v-26.4c0-30-11.6-48-42-48h-39.6v121.2h29.6
				C1095.7,315.7,1114.9,306.5,1114.9,268.9z"/>
			<path class="st5" d="M1216.5,194.5h-56.8v-16.8h132.4v16.8h-57.2v263.2h-18.4V194.5z"/>
			<path class="st5" d="M1409.7,324.1h-76.4v116.8h92v16.8h-110.4v-280h110.4v16.8h-92v112.8h76.4V324.1z"/>
			<path class="st5" d="M1469.7,457.7h-18l63.2-145.2l-58.8-134.8h19.2l52.8,120.4l53.2-120.4h17.6l-58.8,134.8l62.8,145.2h-19.6
				l-56.8-130.4L1469.7,457.7z"/>
		</g>
	</g>
	<g id="Vortex_x5F_Icon" class="st2">
		<g id="Logo">
			<g id="logomark_RGB_512x512">
				<g id="Page-1" transform="translate(19.000000, 70.000000)">
					<path id="Fill-1" class="st11" d="M144,253.2l0.1-4.9c0,0,0,0,0,0c0.5,8.2,3.1,13.9,8.9,19.6l12.8,9.7
						c10.8,5.9,17.4,16.4,26.2,25.3l9.1,10.1c0,0,0,0,0,0l8.1,12.6c3.3,6.3,0.4,1.2,2.7,8l8.7,16.5v0c1.7,5.2,3.2,13,3.2,17.6
						c0,9.5-0.1,12.9-0.6,22.6v0l-3.1,8.2c0,0,0,0,0,0c0,0-15.4,21.3-15.4,21.3l41.4-7.1c4.2-0.9,27.6-12.8,31.2-15l16.5-8.6
						l6.5-3.4c7.4-3.9,7.1-4.7,16-7.6c9.7-3.2,20.5-11.3,27.1-16.8l7.8-8.5v0l42.8-24.8l4.7-3c12.5-8,16.7-22.7,15-37.4
						c-0.4-3.3,7.8-5.1,15.3-6.5c6.2-1.2,12.2-3.3,17.7-6.4l19.9-10.9c12.4-6.4,25.5-16.3,33-28c5.9-9.3,4.6-40,4.6-40v0
						c9-13,19.5-16.4,32.6-33.5c12-15.6,11.9-33.2,11.9-33.2c1.8-52.9-92.7-63.9-136.2-62.7l-76.7,7.4c-12.5,2.2-29.3,3.4-50.6,8.5
						c-2,0.5-71.7,22.5-71.7,22.5c-5.3,1.6-14.4,5.4-19.5,7.8c-39.3,18.1-73,33.5-94.9,71.5c0,0-10.3,20.8,0.5,39.9l10.9,10.5
						c0,0,6.4,5.5,6.4,5.5C125.8,248,133.5,249.5,144,253.2"/>
					<path id="Stroke-3" class="st12" d="M144,253.2l0.1-4.9c0.5,8.2,3.1,13.9,8.9,19.6l12.8,9.7c10.8,5.9,17.4,16.4,26.2,25.3
						l9.1,10.1c0,0,2.7,4.2,8.1,12.6c3.3,6.3,0.4,1.2,2.7,8l8.7,16.5c1.7,5.2,3.2,13,3.2,17.6c0,9.5-0.1,12.9-0.6,22.6l-3.1,8.2
						c0,0-20.9,25.7-17.5,23.2l43.4-9c4.2-0.9,27.6-12.8,31.2-15l16.5-8.6l6.5-3.4c7.4-3.9,7.1-4.7,16-7.6
						c9.7-3.2,20.5-11.3,27.1-16.8l7.8-8.5l42.8-24.8l4.7-3c12.5-8,16.7-22.7,15-37.4c-0.4-3.3,7.8-5.1,15.3-6.5
						c6.2-1.2,12.2-3.3,17.7-6.4l19.9-10.9c12.4-6.4,25.5-16.3,33-28c5.9-9.3,4.6-40,4.6-40c9-13,19.5-16.4,32.6-33.5
						c12-15.6,11.9-33.2,11.9-33.2c1.8-52.9-92.7-63.9-136.2-62.7l-76.7,7.4c-12.5,2.2-29.3,3.4-50.6,8.5
						c-2,0.5-71.7,22.5-71.7,22.5c-5.3,1.6-14.4,5.4-19.5,7.8c-39.3,18.1-73,33.5-94.9,71.5c0,0-10.3,20.8,0.5,39.9l10.9,10.5
						c0,0,6.4,5.5,6.4,5.5C125.8,248,133.5,249.5,144,253.2z"/>
					<path id="Fill-5" class="st13" d="M332,211.1c-169.5,34.7-200.2-0.1-202.4-11.3c-2.2-11.2,27.1-53,175.6-81.5
						c148.5-28.5,191.9-2.9,194.1,8.2C501.6,137.8,501.5,176.4,332,211.1 M536,122.7c-3.8-19.1-58.6-66.9-234.4-33.7
						C125.9,122.2,94.9,190.2,98.7,209.3c3.8,19.1,44.2,81.4,244.5,39.7C543.6,207.3,539.7,141.9,536,122.7"/>
					<path id="Fill-7" class="st13" d="M187.3,294c0,0,28.7,31.7,107.1,31.7C372.8,325.7,400,295,400,295s23,51.2-99.7,51.2
						C204,346.2,187.3,294,187.3,294"/>
					<path id="Fill-9" class="st13" d="M214.3,332.6c0,0,26.9,31.4,81.2,31.4c37.4,0,42.5-5.9,42.5-5.9s-6.8,22.8-54.3,22.8
						C236.1,380.9,214.3,343.6,214.3,332.6"/>
					<path id="Fill-11" class="st13" d="M451.3,224.9c-17.2,34.4-139.5,56.1-203.6,55.5c-61.3-0.5-99.1-23.1-99.1-23.1
						s16.4,45.2,131.3,46.2c114.9,1,212.3-43.1,212.7-79.6c0-5.5-1.7-10.5-4.9-15C477.2,214.4,465.1,219.7,451.3,224.9"/>
					<path id="Fill-13" class="st13" d="M348,172.4c-69.9-0.6-145.2,26.9-145.2,26.9c55.6-17.9,142.2-22.4,197.3-12.5
						c11.8-3.7,22-7.3,30.7-10.9C406.8,170.7,374.7,172.7,348,172.4"/>
					<path id="Stroke-15" class="st14" d="M210.5,193.5c19.8-5.6,45.9-11.3,77.3-13.5"/>
					<path id="Fill-17" class="st13" d="M183.4,204.4c14,0.6,32.1,3.4,44.4,8.5l-14.4-17.9l0.8-22.7
						C207.4,183.4,194.4,195.9,183.4,204.4"/>
					<path id="Fill-19" class="st13" d="M245.2,415.4c-3.2,0-9-0.5-15.4-3.7c-7.1-3.6-11.3-8.7-13.2-11.4l-10.1,19.3"/>
					<path id="Fill-21" class="st15" d="M337.9,207.2C168.3,242,137.7,207.1,135.5,196c-2.2-11.2,27.1-53,175.6-81.5
						c148.5-28.5,192-2.9,194.2,8.2C507.4,133.9,507.4,172.5,337.9,207.2 M541.8,118.9c-3.8-19.1-58.6-66.9-234.4-33.7
						c-175.8,33.2-206.7,101.2-203,120.3c3.8,19.1,44.2,81.4,244.6,39.7C549.4,204.5,545.3,144.7,541.8,118.9"/>
					<path id="Fill-23" class="st15" d="M187.3,293.5c0,0,33.1,26.8,111.3,26.8s105.3-30.1,105.3-30.1s22.9,50.2-99.4,50.2
						C208.5,340.4,187.3,293.5,187.3,293.5"/>
					<path id="Fill-25" class="st15" d="M214.3,332.6c0,0,31.2,27.3,85.3,27.3c37.2,0,42.2-6,42.2-6c0,0-6.9,23.1-54.1,23.1
						C240.5,377,214.3,343.7,214.3,332.6"/>
					<path id="Fill-27" class="st11" d="M228.1,369.3l-9.9,31.4l3.3,3.2c3.3,3.2,7.2,5.9,11.4,7.8l8.6,2l7.4-2.3l21.5-11.2
						l-15.3,2.5c-6.1-0.7-11.1-1.3-16.2-3.9C233.4,396,228.1,369.3,228.1,369.3"/>
					<path id="Fill-29" class="st15" d="M455.3,221c-17.1,34.4-139.2,56.1-203.2,55.5c-61.2-0.5-103.5-18.7-103.5-18.7
						s20.9,40.9,135.6,41.9c114.7,1,211.9-43.1,212.2-79.6c0-5.5-1.7-10.5-4.9-15C481.1,210.5,469.1,215.8,455.3,221"/>
					<path id="Fill-31" class="st15" d="M351,166.5c-69.6-0.6-144.5,25.1-144.5,25.1c55.3-16.7,136.9-16.7,191.7-7.4
						c11.7-3.4,21.9-6.8,30.5-10.2C405,169.1,377.6,166.7,351,166.5"/>
					<path id="Stroke-33" class="st16" d="M216.3,189.7c19.7-5.6,45.9-11.3,77.3-13.5"/>
					<path id="Fill-35" class="st15" d="M193.1,198.6c14,0.6,32.1,3.4,44.4,8.5l-14.4-17.9l0.8-22.7
						C217,177.6,204.1,190.1,193.1,198.6"/>
					<path id="Fill-37" class="st15" d="M249.1,409.6c-3.2,0-9-0.5-15.4-3.7c-7.1-3.6-11.3-8.7-13.2-11.4l-10.1,19.3"/>
					<path id="Fill-39" class="st13" d="M225.4,367.4c0,0,17.7,28,62.3,23.7c0,0-25.2,22.1-49.2,8.6
						C217.5,387.9,225.4,367.4,225.4,367.4"/>
					<path id="Fill-41" class="st15" d="M226.1,367.4c0,0,18,27.8,63.6,23.6c0,0-21.1,17.7-45.5,4.2
						C222.7,383.4,226.1,367.4,226.1,367.4"/>
				</g>
			</g>
		</g>
	</g>
</g>
</svg>
