<?xml version="1.0" encoding="utf-8"?>
<!-- Generator: Adobe Illustrator 27.3.0, SVG Export Plug-In . SVG Version: 6.00 Build 0)  -->
<svg version="1.1" id="Ebene_1" xmlns="http://www.w3.org/2000/svg" xmlns:xlink="http://www.w3.org/1999/xlink" x="0px" y="0px"
	 viewBox="0 0 1920 1080" style="enable-background:new 0 0 1920 1080;" xml:space="preserve">
<style type="text/css">
	.st0{fill:#333333;}
	.st1{fill:#FF0000;}
	.st2{display:none;}
	.st3{display:inline;}
	.st4{fill-rule:evenodd;clip-rule:evenodd;fill:#D68E44;}
	.st5{fill:none;stroke:#2A2B2A;stroke-width:21.8571;stroke-linecap:square;}
	.st6{fill-rule:evenodd;clip-rule:evenodd;fill:#965A28;}
	.st7{fill:none;stroke:#965A28;stroke-width:1.4571;}
	.st8{fill-rule:evenodd;clip-rule:evenodd;fill:#FEFEFE;}
	.st9{fill:none;stroke:#FEFEFE;stroke-width:1.4571;}
	.st10{fill:none;}
	.st11{fill:#FFFFFF;stroke:#000000;stroke-miterlimit:10;}
	.st12{fill:#388FBC;}
</style>
<g>
	<path class="st0" d="M136,705.5c-41.6,0-75.5-33.9-75.5-75.5V460c0-41.6,33.9-75.5,75.5-75.5h881c41.6,0,75.5,33.9,75.5,75.5v170
		c0,41.6-33.9,75.5-75.5,75.5H136z"/>
	<path class="st1" d="M1017,385c41.4,0,75,33.6,75,75v170c0,41.4-33.6,75-75,75H136c-41.4,0-75-33.6-75-75V460c0-41.4,33.6-75,75-75
		H1017 M1017,384H136c-42,0-76,34-76,76v170c0,42,34,76,76,76h881c42,0,76-34,76-76V460C1093,418,1059,384,1017,384L1017,384z"/>
</g>
<g id="Logo" class="st2">
	<g id="logomark_RGB_512x512" class="st3">
		<g id="Page-1" transform="translate(19.000000, 70.000000)">
			<path id="Fill-1" class="st4" d="M108.9,475.5l0.1-2.9c0,0,0,0,0,0c0.3,4.8,1.8,8.1,5.2,11.5l7.5,5.7c6.3,3.5,10.2,9.6,15.3,14.8
				l5.3,5.9c0,0,0,0,0,0l4.7,7.3c1.9,3.7,0.3,0.7,1.6,4.7l5.1,9.6v0c1,3,1.9,7.6,1.9,10.3c0,5.6-0.1,7.6-0.4,13.2v0l-1.8,4.8
				c0,0,0,0,0,0c0,0-9,12.4-9,12.4l24.2-4.2c2.4-0.5,16.1-7.5,18.2-8.8l9.7-5.1l3.8-2c4.3-2.3,4.1-2.8,9.4-4.5
				c5.7-1.9,12-6.6,15.8-9.8l4.5-5v0l25-14.5l2.7-1.8c7.3-4.7,9.8-13.3,8.8-21.9c-0.2-1.9,4.6-3,8.9-3.8c3.6-0.7,7.1-1.9,10.4-3.7
				l11.6-6.3c7.2-3.7,14.9-9.5,19.3-16.4c3.5-5.5,2.7-23.4,2.7-23.4v0c5.3-7.6,11.4-9.6,19.1-19.6c7-9.1,7-19.4,7-19.4
				c1-30.9-54.2-37.4-79.7-36.7l-44.9,4.3c-7.3,1.3-17.1,2-29.6,5c-1.2,0.3-41.9,13.2-41.9,13.2c-3.1,1-8.4,3.2-11.4,4.5
				c-23,10.6-42.7,19.6-55.5,41.8c0,0-6,12.1,0.3,23.3l6.4,6.1c0,0,3.8,3.2,3.8,3.2C98.3,472.4,102.8,473.3,108.9,475.5"/>
			<path id="Stroke-3" class="st5" d="M108.9,475.5l0.1-2.9c0.3,4.8,1.8,8.1,5.2,11.5l7.5,5.7c6.3,3.5,10.2,9.6,15.3,14.8l5.3,5.9
				c0,0,1.6,2.4,4.7,7.3c1.9,3.7,0.3,0.7,1.6,4.7l5.1,9.6c1,3,1.9,7.6,1.9,10.3c0,5.6-0.1,7.6-0.4,13.2l-1.8,4.8
				c0,0-12.2,15.1-10.2,13.6l25.4-5.3c2.4-0.5,16.1-7.5,18.2-8.8l9.7-5.1l3.8-2c4.3-2.3,4.1-2.8,9.4-4.5c5.7-1.9,12-6.6,15.8-9.8
				l4.5-5l25-14.5l2.7-1.8c7.3-4.7,9.8-13.3,8.8-21.9c-0.2-1.9,4.6-3,8.9-3.8c3.6-0.7,7.1-1.9,10.4-3.7l11.6-6.3
				c7.2-3.7,14.9-9.5,19.3-16.4c3.5-5.5,2.7-23.4,2.7-23.4c5.3-7.6,11.4-9.6,19.1-19.6c7-9.1,7-19.4,7-19.4
				c1-30.9-54.2-37.4-79.7-36.7l-44.9,4.3c-7.3,1.3-17.1,2-29.6,5c-1.2,0.3-41.9,13.2-41.9,13.2c-3.1,1-8.4,3.2-11.4,4.5
				c-23,10.6-42.7,19.6-55.5,41.8c0,0-6,12.1,0.3,23.3l6.4,6.1c0,0,3.8,3.2,3.8,3.2C98.3,472.4,102.8,473.3,108.9,475.5z"/>
			<path id="Fill-5" class="st6" d="M218.8,450.9c-99.1,20.3-117.1-0.1-118.3-6.6c-1.3-6.5,15.8-31,102.7-47.6
				c86.8-16.6,112.2-1.7,113.5,4.8C318,408,318,430.5,218.8,450.9 M338.1,399.2c-2.2-11.2-34.3-39.1-137-19.7
				C98.3,398.9,80.2,438.6,82.4,449.8c2.2,11.2,25.8,47.6,143,23.2C342.6,448.6,340.3,410.4,338.1,399.2"/>
			<path id="Fill-7" class="st6" d="M134.2,499.3c0,0,16.8,18.5,62.6,18.5c45.9,0,61.8-18,61.8-18s13.5,29.9-58.3,29.9
				C144,529.8,134.2,499.3,134.2,499.3"/>
			<path id="Fill-9" class="st6" d="M150,521.9c0,0,15.7,18.4,47.5,18.4c21.9,0,24.8-3.5,24.8-3.5s-4,13.4-31.8,13.4
				C162.7,550.2,150,528.3,150,521.9"/>
			<path id="Fill-11" class="st6" d="M288.6,458.9c-10,20.1-81.6,32.8-119,32.5c-35.8-0.3-58-13.5-58-13.5s9.6,26.5,76.8,27
				c67.2,0.6,124.2-25.2,124.4-46.6c0-3.2-1-6.1-2.8-8.8C303.7,452.8,296.7,455.9,288.6,458.9"/>
			<path id="Fill-13" class="st6" d="M228.2,428.2c-40.9-0.4-84.9,15.7-84.9,15.7c32.5-10.5,83.2-13.1,115.4-7.3
				c6.9-2.1,12.9-4.3,17.9-6.4C262.6,427.2,243.8,428.4,228.2,428.2"/>
			<path id="Stroke-15" class="st7" d="M147.8,440.6c11.6-3.3,26.9-6.6,45.2-7.9"/>
			<path id="Fill-17" class="st6" d="M131.9,446.9c8.2,0.3,18.8,2,26,5l-8.4-10.5l0.5-13.2C146,434.7,138.4,442,131.9,446.9"/>
			<path id="Fill-19" class="st6" d="M168.1,570.3c-1.9,0-5.3-0.3-9-2.2c-4.2-2.1-6.6-5.1-7.7-6.6l-5.9,11.3"/>
			<path id="Fill-21" class="st8" d="M222.3,448.6c-99.1,20.3-117.1-0.1-118.4-6.6c-1.3-6.5,15.8-31,102.7-47.6
				c86.9-16.6,112.3-1.7,113.6,4.8C321.4,405.7,321.4,428.3,222.3,448.6 M341.5,396.9c-2.2-11.2-34.3-39.1-137.1-19.7
				c-102.8,19.4-120.9,59.2-118.7,70.4c2.2,11.2,25.8,47.6,143,23.2C346,447,343.6,412,341.5,396.9"/>
			<path id="Fill-23" class="st8" d="M134.2,499c0,0,19.4,15.7,65.1,15.7s61.6-17.6,61.6-17.6s13.4,29.4-58.1,29.4
				C146.6,526.4,134.2,499,134.2,499"/>
			<path id="Fill-25" class="st8" d="M150,521.9c0,0,18.3,16,49.9,16c21.7,0,24.7-3.5,24.7-3.5c0,0-4,13.5-31.6,13.5
				C165.3,547.9,150,528.4,150,521.9"/>
			<path id="Fill-27" class="st4" d="M158,543.4l-5.8,18.4l1.9,1.9c1.9,1.9,4.2,3.4,6.7,4.6l5,1.2l4.3-1.4l12.6-6.5l-9,1.5
				c-3.6-0.4-6.5-0.8-9.5-2.3C161.2,559,158,543.4,158,543.4"/>
			<path id="Fill-29" class="st8" d="M290.9,456.7c-10,20.1-81.4,32.8-118.8,32.5c-35.8-0.3-60.5-10.9-60.5-10.9
				s12.2,23.9,79.3,24.5c67.1,0.6,123.9-25.2,124.1-46.6c0-3.2-1-6.1-2.8-8.8C306,450.5,299,453.6,290.9,456.7"/>
			<path id="Fill-31" class="st8" d="M230,424.8c-40.7-0.3-84.5,14.7-84.5,14.7c32.4-9.8,80-9.8,112.1-4.3c6.9-2,12.8-4,17.8-5.9
				C261.5,426.3,245.5,424.9,230,424.8"/>
			<path id="Stroke-33" class="st9" d="M151.1,438.3c11.5-3.3,26.9-6.6,45.2-7.9"/>
			<path id="Fill-35" class="st8" d="M137.6,443.5c8.2,0.3,18.8,2,26,5l-8.4-10.5l0.5-13.2C151.6,431.3,144,438.6,137.6,443.5"/>
			<path id="Fill-37" class="st8" d="M170.4,566.9c-1.9,0-5.3-0.3-9-2.2c-4.2-2.1-6.6-5.1-7.7-6.6l-5.9,11.3"/>
			<path id="Fill-39" class="st6" d="M156.5,542.3c0,0,10.3,16.4,36.4,13.9c0,0-14.7,12.9-28.7,5
				C151.9,554.2,156.5,542.3,156.5,542.3"/>
			<path id="Fill-41" class="st8" d="M156.9,542.3c0,0,10.5,16.3,37.2,13.8c0,0-12.3,10.3-26.6,2.5
				C154.9,551.6,156.9,542.3,156.9,542.3"/>
		</g>
	</g>
</g>
<g>
	<rect x="408.5" y="493" class="st10" width="1145.5" height="322"/>
	<path class="st11" d="M454.1,493h20v91.7h-13.6v-65.8l-10,65.8h-13.6l-10.7-64.8v64.8h-12.6V493h20l10.6,65.1L454.1,493z"/>
	<path class="st11" d="M505.3,492c14.1,0,21.9,8.4,21.9,23.1v47.7c0,14.7-7.7,23.1-21.9,23.1s-21.9-8.4-21.9-23.1V515
		C483.4,500.3,491.1,492,505.3,492z M505.3,572.6c4.6,0,7.5-2.5,7.5-9v-49.5c0-6.5-2.9-9-7.5-9s-7.5,2.5-7.5,9v49.5
		C497.8,570.2,500.7,572.6,505.3,572.6z"/>
	<path class="st11" d="M559.3,493c14.4,0,21.5,8,21.5,22.7V562c0,14.7-7.1,22.7-21.5,22.7h-22.8V493H559.3z M550.9,571.6h8.1
		c4.6,0,7.3-2.4,7.3-8.9V515c0-6.5-2.8-8.9-7.3-8.9h-8.1V571.6z"/>
	<path class="st11" d="M630.9,492c14.1,0,21.9,8.4,21.9,23.1v47.7c0,14.7-7.7,23.1-21.9,23.1s-21.9-8.4-21.9-23.1V515
		C609,500.3,616.8,492,630.9,492z M630.9,572.6c4.6,0,7.5-2.5,7.5-9v-49.5c0-6.5-2.9-9-7.5-9s-7.5,2.5-7.5,9v49.5
		C623.4,570.2,626.3,572.6,630.9,572.6z"/>
	<path class="st11" d="M690.9,573.4V559c0-8.5-2.9-11.7-9.4-11.7h-5v37.3h-14.4V493h21.7c14.9,0,21.4,6.9,21.4,21.1v7.2
		c0,9.4-3,15.6-9.4,18.6c7.2,3,9.6,10,9.6,19.5v14.1c0,4.5,0.1,7.7,1.6,11.1h-14.7C691.4,582.3,690.9,580.9,690.9,573.4z
		 M676.5,534.3h5.6c5.4,0,8.6-2.4,8.6-9.7v-9c0-6.5-2.2-9.4-7.3-9.4h-6.9V534.3z"/>
	<path class="st11" d="M756.5,533.6v29.1c0,14.7-7.3,23.1-21.5,23.1c-14.1,0-21.5-8.4-21.5-23.1V515c0-14.7,7.3-23.1,21.5-23.1
		c14.1,0,21.5,8.4,21.5,23.1v8.9h-13.6v-9.8c0-6.5-2.9-9-7.5-9s-7.5,2.5-7.5,9v49.5c0,6.5,2.9,8.9,7.5,8.9s7.5-2.4,7.5-8.9v-16.9
		h-6.5v-13.1H756.5z"/>
	<path class="st11" d="M797.8,584.7l-2.5-16.6h-17.7l-2.5,16.6h-13.2l14.7-91.7h21.1l14.7,91.7H797.8z M793.4,555.6l-6.9-46.4
		l-6.9,46.4H793.4z"/>
	<path class="st11" d="M831.9,584.7h-13V493H837l14.8,54.9V493h12.8v91.7h-14.8l-17.9-66.4V584.7z"/>
	<path class="st11" d="M889.4,493v91.7H875V493H889.4z"/>
	<path class="st11" d="M939.8,505.8l-27.4,65.8h27.4v13.1h-42.2v-12.8l27.4-65.8h-26.1V493h40.9V505.8z"/>
	<path class="st11" d="M982.5,531.6v13.1h-19.8v26.9h24.9v13.1h-39.3V493h39.3v13.1h-24.9v25.5H982.5z"/>
	<path class="st11" d="M1025.3,573.4V559c0-8.5-2.9-11.7-9.4-11.7h-5v37.3h-14.4V493h21.7c14.9,0,21.4,6.9,21.4,21.1v7.2
		c0,9.4-3,15.6-9.4,18.6c7.2,3,9.6,10,9.6,19.5v14.1c0,4.5,0.1,7.7,1.6,11.1h-14.7C1025.9,582.3,1025.3,580.9,1025.3,573.4z
		 M1010.9,534.3h5.6c5.4,0,8.6-2.4,8.6-9.7v-9c0-6.5-2.2-9.4-7.3-9.4h-6.9V534.3z"/>
</g>
<path d="M93.3,605.6c-0.1-11-0.4-27.4-0.5-38.7c-0.8-55.6-1.2-83.4-1.3-83.4c0,0,0,1.1,0,3.6c-0.2-4.5,0-14.6,6.9-20.8
	c5.3-4.8,12.1-5.1,17.1-5.3c39.8-1.3,59.4-0.8,63.8-0.7c18,0.4,25.8,0.1,36.6,4.4c9.5,3.9,16,9.2,17.7,10.6
	c5.1,4.3,16.3,21.3,12.4,15.9c2.5-3.1,6.3-7.3,11.7-11.3c10.3-7.8,20.1-10.6,25.3-12c20.7-5.7,38.2-1.6,43.1-0.4
	c7,1.8,24.9,6.7,39.4,23.1c9.3,10.6,13.1,21.1,14.8,26.3c8.2,23.9,3,44.2,1.9,48.1c-1.8,6.8-6.4,22.7-21,36
	c-19.3,17.6-42.3,18.1-49.5,18.2c-2,0-25.8,0.3-37.1-9.2c-1-0.9-9.9-8.4-9.7-8.3l0,0l0.9,17.7l0,0c0,0-60.5,0.5-172.4,1.4"/>
<path class="st12" d="M106.7,478.5v127.6c49.2,0,98.5,0,147.7-0.1c0-4.9-0.1-9.8-0.2-14.8c-0.6-25.8-2.8-50.2-6-73.1
	c-2.9-6.4-10.6-21.2-27.2-30.9c-3.6-2.1-14.3-8.4-27.9-9c-3.8-0.2-13.2-0.2-15.7-0.2c-0.2,0-0.4,0-0.6,0"/>
<path class="st12" d="M322.5,478.2c-6.2-1.1-22.6-3-40.5,5.3c-7,3.2-24.1,12.6-32.7,32c-11.4,25.9-3.7,60.7,21.4,79.2
	c16.2,11.9,38.9,16.4,60.1,8.7c31.4-11.5,39.6-42.6,40.3-45.4c8-32.8-13.4-57.3-16.1-60.2c-8.9-9.8-18.9-14.8-25.1-17.3"/>
<path class="st12" d="M252.3,604.5"/>
<g>
</g>
<g>
</g>
<g>
</g>
<g>
</g>
<g>
</g>
<g>
</g>
<g>
</g>
<g>
</g>
<g>
</g>
<g>
</g>
<g>
</g>
<g>
</g>
<g>
</g>
<g>
</g>
<g>
</g>
</svg>
