<?xml version="1.0" encoding="UTF-8"?>
<svg id="MO2" xmlns="http://www.w3.org/2000/svg" viewBox="0 0 1987 632">
  <defs>
    <style>
      .cls-1 {
        fill: #fff;
      }

      .cls-2 {
        fill: #388fbc;
      }

      .cls-3 {
        stroke: #388fbc;
        stroke-miterlimit: 10;
        stroke-width: 20px;
      }

      .cls-3, .cls-4 {
        fill: #292b2a;
      }
    </style>
  </defs>
  <rect id="MO2_Base" class="cls-3" x="10" y="11" width="1967" height="611" rx="123.67" ry="123.67"/>
  <g id="MO2_Text">
    <path id="MO" class="cls-1" d="m680.6,316.54h36.05v-91.16l43.7,65.83h28.15l45.03-65.67c.31,26.58.63,53.16.94,79.75-2.5.16-6.06.43-10.32.94-20.57,2.45-39.12,4.65-54.42,15.95-20.69,15.28-25.04,39.51-25.33,41.28-.49,2.99-3.69,24.52,9.38,45.03,15.56,24.4,42.99,29.83,58.17,32.84,6.23,1.23,22.67,3.93,43.16,0,14.79-2.84,32.51-6.24,46.91-21.58,2.9-3.09,18.4-20.23,17.83-45.97-.58-25.93-17.16-47.8-36.59-57.23-1.28-.62-14.07-4.69-14.07-4.69h0c.31-43.78.63-87.57.94-131.35h-46.91c-16.26,24.08-32.52,48.16-48.79,72.24h0s-47.84-72.24-47.85-72.24h-45.97"/>
    <path id="Mo_o" class="cls-4" d="m836.81,336.71c-11.96-.77-21.31,1.14-27.21,2.81-7.26,2.07-12.65,3.6-17.83,8.44-7.89,7.37-9.54,17.05-10.32,21.58-.86,5.01-1.99,11.63.94,18.76,4.06,9.87,13.26,14.26,18.76,16.89,12.05,5.75,22.94,5.22,33.78,4.69,13.21-.64,22.44-1.09,31.9-7.51,3.45-2.34,14.81-10.04,16.89-24.39,2.18-15.07-7.52-26.04-9.38-28.15-12.04-13.62-29.37-13.23-31.9-13.13"/>
    <path id="o2" class="cls-1" d="m942.83,210.99c8.97-.39,23.69.4,38.47,8.44,8.8,4.79,13.96,10.15,15.01,11.26,3.47,3.67,11.84,12.75,14.07,27.21.37,2.38,2.22,15.58-4.69,29.08-10.95,21.41-35.37,26.91-45.03,29.08-6.54,1.47-31.79,6.76-56.29-7.51-7.63-4.44-21.76-12.67-27.21-30.02-6.21-19.81,3.5-36.83,5.63-40.34,11.85-19.59,32.34-23.77,35.65-24.39"/>
    <path id="o2_2" class="cls-4" d="m925,242.89c4.68-1.61,11.13-3.11,18.76-2.81,3.8.15,9.96.45,16.89,3.75,3.28,1.57,7.09,3.38,10.32,7.51,1.42,1.81,6.13,8.41,4.69,16.89-1.31,7.68-6.84,12.06-9.38,14.07-8.89,7.03-19.27,6.72-24.39,6.57-7.3-.22-19.92-.6-27.21-10.32-.71-.94-7.82-10.76-3.75-21.58,2.17-5.77,6.47-9.02,8.44-10.32"/>
    <path id="d-1" class="cls-1" d="m1103.26,218.5c-9.44-6.76-20.51-6.66-31.9-6.57-8.07.07-18.66.16-30.02,6.57-12.8,7.22-18.86,18.1-20.64,21.58-8.5,16.66-8.86,40.4,4.69,57.23,11.94,14.83,29.2,17.48,37.53,18.76,9.25,1.42,26.64,4.1,40.34-6.57,15.27-11.88,15.7-32.33,15.95-44.1.22-10.23.74-34.96-15.95-46.91Z"/>
    <path id="d-2" class="cls-4" d="m1069.48,240.08c-3.01.82-9.17,2.61-14.07,8.44-1.91,2.28-5,6.8-5.63,13.13-.05.49-.85,9.8,4.69,16.89,11.05,14.14,38.18,7.73,48.79.94,2.07-1.33,5.81-3.8,7.51-8.44,1.59-4.36.54-8.37,0-10.32-3.05-11.05-14.11-16.47-16.89-17.83-2.77-1.36-12.68-6.03-24.39-2.81Z"/>
    <polygon id="d-Strich" class="cls-1" points="1105.34 318.25 1138.7 318.25 1138.7 180.5 1101.8 180.5 1105.34 318.25"/>
    <rect id="r_Strich" class="cls-1" x="930.28" y="338.8" width="36.94" height="102.06"/>
    <path id="r_r" class="cls-1" d="m1016.95,374.24h0v-35.65h0s-15.38.92-30.96,4.69c0,0-18.92,4.58-29.08,12.2-.09.07-3.75,2.82-3.75,2.81h0s-3.27,26.21,3.75,29.08c1.52.62,3.32.07,6.57-.94,4.08-1.26,6.79-3.25,7.51-3.75,0,0,11.89-8.42,42.22-8.44.17,0,3.75,0,3.75,0Z"/>
    <path id="g_1" class="cls-1" d="m1041.34,342.34c-20.29,15.01-29.62,38.05-23.45,56.29,6.25,18.5,26.38,25.99,34.71,29.08,10.76,4,33.39,9.23,43.16,1.88.02-.02,6.8-5.11,13.13-4.69.65.04,1.78.18,2.81.94,2.44,1.8,2.6,5.79,1.88,8.44-.63,2.33-2.02,3.91-2.81,4.69-3.74,3.64-9.52,4.16-24.39,3.75-10.17-.28-15.26-.42-18.76-.94-7.95-1.18-31.23-7.68-23.45-5.63h0c-13.57,16.94-15.32,22.1-14.07,23.45,1.14,1.24,6.27,2.46,4.69,1.88h0c1.26.45,3.22,1.12,5.63,1.88,8.53,2.66,31.88,9.1,64.74,5.63,23.18-2.45,29.78-7.59,31.9-9.38,2.12-1.79,11.03-9.33,11.26-19.7.12-5.52-1.88-10.32-1.88-10.32-1.57-3.75-4.69-8.44-4.69-8.44h0v-57.23h0c3.13-4.69,6.25-9.38,9.38-14.07h0c-10.01-4.69-20.01-9.38-30.02-14.07h0l-11.26,9.38h0s-5.84-4.18-6.57-4.69c-7.54-5.28-20.9-5.52-27.21-5.63-5.4-.09-12.82.2-21.58,1.88"/>
    <path id="g_2" class="cls-4" d="m1107.95,377.05v15.95h0c-16.09,12.35-34.02,15.77-45.03,8.44-.88-.59-9.15-6.27-9.38-15.01-.27-10.21,10.6-18,18.76-20.64,15.89-5.13,29.88,6.57,30.96,7.51"/>
    <path id="a_1" class="cls-1" d="m1166.12,344.22c6.14,16.59,9.38,25.33,9.38,25.33,33.48-7.35,42.22-6.57,42.22-6.57,17.02,2.28,31.48,10.53,30.96,12.2-.43,1.38-10.92-2.37-30.02-3.75-15.37-1.11-29.35-1.97-44.1,4.69-6.45,2.91-14.11,6.5-18.76,15.01-6.27,11.46-2.5,23.46-1.88,25.33,5.24,15.79,21.43,22.27,29.08,25.33,0,0,30.64,12.25,62.86-3.75,0,0,.02-.01,7.51-3.75,5.63,4.38,11.26,8.76,16.89,13.13,7.82-7.51,15.64-15.01,23.45-22.52-3.44-3.75-6.88-7.51-10.32-11.26-.16-25.96-.12-37.56,0-42.22,0-.16.01-.49,0-.94-.19-6.47-4.27-11.29-7.51-15.01-1.69-1.94-4.54-5.17-9.38-8.44-6.23-4.21-12.17-6.09-17.83-7.51-9-2.26-21.77-5.46-39.4-4.69-15.36.67-28.14,4.09-37.53,7.51"/>
    <path id="a_2" class="cls-4" d="m1247.74,408.01c.4,1.35.94,2.81.94,2.81h0s-16.06,6.03-32.84,7.51c-8.02.71-23.63,2.08-28.15-5.63-.18-.31-1.92-3.38-.94-6.57,1.94-6.27,12.81-7.85,16.89-8.44,21.65-3.14,43.12,6.56,43.16,6.57h0s.37,1.85.94,3.75Z"/>
    <polygon id="n_strich" class="cls-1" points="1296.53 339.52 1296.53 440.95 1332.18 440.85 1332.18 339.52 1296.53 339.52"/>
    <path id="N_2" class="cls-1" d="m1426,388.31c-10.63,1.56-21.27,3.13-31.9,4.69-.46-.38-.77-.73-.94-.94-2.18-2.71-1.04-6.01-1.88-13.13-.01-.13-.02-.19-.03-.28-.14-1.09-.69-4.41-2.78-7.23-2.76-3.73-6.67-5.05-8.44-5.63-14.3-4.63-40.22,4.41-50.66,12.2-.5.37-1.74,1.32-2.81.94-4.9-1.76-.02-28.93,0-29.08,30.14-18.21,62.87-20.25,82.56-4.69,4.25,3.36,9.84,9.07,14.07,18.76"/>
    <path id="N_3" class="cls-1" d="m1391.74,440.95h34.89v-66.58c-.98-4.47-2.34-8-3.44-10.46-3.92-8.75-9.04-13.84-13.13-17.83-2.73-2.65-3.31-2.79-3.75-2.81-5.43-.28-10.72,15.98-14.56,31.1"/>
    <rect id="r_Strich-2" data-name="r_Strich" class="cls-1" x="1750.76" y="338.53" width="36.94" height="102.06"/>
    <path id="r_r-2" data-name="r_r" class="cls-1" d="m1837.42,373.98h0v-35.65h0s-15.38.92-30.96,4.69c0,0-18.92,4.58-29.08,12.2-.09.07-3.75,2.82-3.75,2.81h0s-3.27,26.21,3.75,29.08c1.52.62,3.32.07,6.57-.94,4.08-1.26,6.79-3.25,7.51-3.75,0,0,11.89-8.42,42.22-8.44.17,0,3.75,0,3.75,0Z"/>
    <polyline class="cls-1" points="1438.72 440.95 1474.16 440.95 1474.16 339.52 1438.72 339.52"/>
    <polyline class="cls-1" points="1438.72 333.24 1474.16 333.24 1474.16 307.38 1438.72 307.38"/>
    <polyline class="cls-1" points="1487.09 339.52 1606.06 339.52 1606.06 369.1 1487.09 369.1"/>
    <polyline class="cls-1" points="1611.76 412.7 1611.76 439.43 1481.81 440.95 1481.81 412.7 1546.78 369.1 1606.06 369.1 1544.21 411.77"/>
    <path class="cls-1" d="m1610.83,379.87c1.92-6.55,7.28-21.24,21.58-31.9,20.73-15.45,44.85-10.98,53.48-9.38,7.73,1.43,23.38,4.33,36.59,17.83,11.67,11.92,16.83,27.41,16.89,35.65,0,1.04,0,11.26,0,11.26-42.84-.63-85.69-1.25-128.53-1.88-1.08-2.98-2.28-7.57-1.88-13.13.15-2.12.51-4.01.94-5.63"/>
    <path class="cls-1" d="m1719.66,404.26c5,7.19,10.01,14.39,15.01,21.58h0c-3.72,2.74-9.76,6.78-17.83,10.32-2.08.91-47.9,20.23-83.5-3.75-5.82-3.92-17.79-12.24-21.58-27.21-.84-3.33-4.26-16.83,3.75-26.27,9.43-11.12,29.89-10.96,34.71-3.75,1.73,2.58,1.38,5.96.94,10.32-.94,9.22-5.13,12.27-3.75,16.89,1.28,4.27,6.25,6.28,9.38,7.51,17.28,6.75,44.19,1.02,52.54-.94"/>
    <path class="cls-4" d="m1644.6,377.99h57.23s-3.87-6.16-5.63-8.44c-4.67-6.06-13.57-9.55-21.58-9.38-9.35.2-16.05,5.35-19.31,7.86-4.6,3.54-10.71,9.96-10.71,9.97Z"/>
  </g>
  <g id="MO2_Icon">
    <path d="m94.11,423.84c-.26-20.3-.69-50.86-.98-71.72-1.44-103.09-2.16-154.64-2.36-154.64,0,0,0,2.06.07,6.62-.36-8.29.03-27.05,12.77-38.64,9.82-8.94,22.43-9.53,31.77-9.82,73.82-2.36,110.07-1.51,118.22-1.31,33.44.75,47.78.1,67.79,8.19,17.65,7.14,29.57,16.96,32.75,19.65,9.5,8.06,30.29,39.5,22.92,29.47,4.68-5.76,11.76-13.46,21.61-20.96,19.06-14.48,37.27-19.65,46.83-22.27,38.38-10.51,70.8-3.01,79.91-.65,12.97,3.34,46.08,12.38,73.03,42.9,17.29,19.58,24.2,39.1,27.51,48.8,15.13,44.24,5.53,81.94,3.6,89.08-3.41,12.61-11.79,42.08-38.97,66.81-35.83,32.59-78.47,33.47-91.7,33.73-3.64.07-47.85.62-68.77-17.03-1.93-1.6-18.31-15.62-18.01-15.39h0l1.64,32.75h0s-112.2.92-319.63,2.62"/>
    <path class="cls-2" d="m518.86,187.72c-11.56-1.96-41.85-5.47-75,9.82-12.94,5.96-44.7,23.32-60.59,59.28-21.19,48.01-6.78,112.56,39.63,146.72,30.03,22.11,72.02,30.46,111.35,16.05,58.26-21.32,73.39-78.96,74.67-84.17,14.84-60.78-24.89-106.24-29.8-111.67-16.47-18.18-34.98-27.48-46.5-32.09"/>
    <path class="cls-2" d="m119,188.37v236.55c91.27-.03,182.51-.07,273.78-.1,0-9.07-.1-18.24-.33-27.51-1.15-47.81-5.14-93.11-11.13-135.58-5.31-11.79-19.65-39.27-50.43-57.31-6.65-3.9-26.43-15.49-51.74-16.7-7.11-.33-24.53-.33-29.05-.33h-1.08"/>
  </g>
</svg>