<?xml version="1.0" encoding="utf-8"?>
<!-- Generator: Adobe Illustrator 27.3.0, SVG Export Plug-In . SVG Version: 6.00 Build 0)  -->
<svg version="1.1" id="Ebene_1" xmlns="http://www.w3.org/2000/svg" xmlns:xlink="http://www.w3.org/1999/xlink" x="0px" y="0px"
	 viewBox="0 0 1920 1080" style="enable-background:new 0 0 1920 1080;" xml:space="preserve">
<style type="text/css">
	.st0{fill:#333333;}
	.st1{fill:#FF0000;}
	.st2{display:none;}
	.st3{display:inline;}
	.st4{fill-rule:evenodd;clip-rule:evenodd;fill:#D68E44;}
	.st5{fill:none;stroke:#2A2B2A;stroke-width:21.8571;stroke-linecap:square;}
	.st6{fill-rule:evenodd;clip-rule:evenodd;fill:#965A28;}
	.st7{fill:none;stroke:#965A28;stroke-width:1.4571;}
	.st8{fill-rule:evenodd;clip-rule:evenodd;fill:#FEFEFE;}
	.st9{fill:none;stroke:#FEFEFE;stroke-width:1.4571;}
	.st10{fill:none;}
	.st11{fill:#FFFFFF;stroke:#000000;stroke-miterlimit:10;}
	.st12{fill:#388FBC;}
	.st13{fill:#00FF30;}
	.st14{stroke:#000000;stroke-miterlimit:10;}
	.st15{fill:#FFFFFF;}
	.st16{display:inline;fill:none;}
	.st17{display:inline;fill:#FFFFFF;stroke:#FFFFFF;stroke-miterlimit:10;}
</style>
<g>
	<path class="st0" d="M136,705.5c-41.6,0-75.5-33.9-75.5-75.5V460c0-41.6,33.9-75.5,75.5-75.5h881c41.6,0,75.5,33.9,75.5,75.5v170
		c0,41.6-33.9,75.5-75.5,75.5H136z"/>
	<path class="st1" d="M1017,385c41.4,0,75,33.6,75,75v170c0,41.4-33.6,75-75,75H136c-41.4,0-75-33.6-75-75V460c0-41.4,33.6-75,75-75
		H1017 M1017,384H136c-42,0-76,34-76,76v170c0,42,34,76,76,76h881c42,0,76-34,76-76V460C1093,418,1059,384,1017,384L1017,384z"/>
</g>
<g id="Logo" class="st2">
	<g id="logomark_RGB_512x512" class="st3">
		<g id="Page-1" transform="translate(19.000000, 70.000000)">
			<path id="Fill-1" class="st4" d="M108.9,475.5l0.1-2.9c0,0,0,0,0,0c0.3,4.8,1.8,8.1,5.2,11.5l7.5,5.7c6.3,3.5,10.2,9.6,15.3,14.8
				l5.3,5.9c0,0,0,0,0,0l4.7,7.3c1.9,3.7,0.3,0.7,1.6,4.7l5.1,9.6v0c1,3,1.9,7.6,1.9,10.3c0,5.6-0.1,7.6-0.4,13.2v0l-1.8,4.8
				c0,0,0,0,0,0c0,0-9,12.4-9,12.4l24.2-4.2c2.4-0.5,16.1-7.5,18.2-8.8l9.7-5.1l3.8-2c4.3-2.3,4.1-2.8,9.4-4.5
				c5.7-1.9,12-6.6,15.8-9.8l4.5-5v0l25-14.5l2.7-1.8c7.3-4.7,9.8-13.3,8.8-21.9c-0.2-1.9,4.6-3,8.9-3.8c3.6-0.7,7.1-1.9,10.4-3.7
				l11.6-6.3c7.2-3.7,14.9-9.5,19.3-16.4c3.5-5.5,2.7-23.4,2.7-23.4v0c5.3-7.6,11.4-9.6,19.1-19.6c7-9.1,7-19.4,7-19.4
				c1-30.9-54.2-37.4-79.7-36.7l-44.9,4.3c-7.3,1.3-17.1,2-29.6,5c-1.2,0.3-41.9,13.2-41.9,13.2c-3.1,1-8.4,3.2-11.4,4.5
				c-23,10.6-42.7,19.6-55.5,41.8c0,0-6,12.1,0.3,23.3l6.4,6.1c0,0,3.8,3.2,3.8,3.2C98.3,472.4,102.8,473.3,108.9,475.5"/>
			<path id="Stroke-3" class="st5" d="M108.9,475.5l0.1-2.9c0.3,4.8,1.8,8.1,5.2,11.5l7.5,5.7c6.3,3.5,10.2,9.6,15.3,14.8l5.3,5.9
				c0,0,1.6,2.4,4.7,7.3c1.9,3.7,0.3,0.7,1.6,4.7l5.1,9.6c1,3,1.9,7.6,1.9,10.3c0,5.6-0.1,7.6-0.4,13.2l-1.8,4.8
				c0,0-12.2,15.1-10.2,13.6l25.4-5.3c2.4-0.5,16.1-7.5,18.2-8.8l9.7-5.1l3.8-2c4.3-2.3,4.1-2.8,9.4-4.5c5.7-1.9,12-6.6,15.8-9.8
				l4.5-5l25-14.5l2.7-1.8c7.3-4.7,9.8-13.3,8.8-21.9c-0.2-1.9,4.6-3,8.9-3.8c3.6-0.7,7.1-1.9,10.4-3.7l11.6-6.3
				c7.2-3.7,14.9-9.5,19.3-16.4c3.5-5.5,2.7-23.4,2.7-23.4c5.3-7.6,11.4-9.6,19.1-19.6c7-9.1,7-19.4,7-19.4
				c1-30.9-54.2-37.4-79.7-36.7l-44.9,4.3c-7.3,1.3-17.1,2-29.6,5c-1.2,0.3-41.9,13.2-41.9,13.2c-3.1,1-8.4,3.2-11.4,4.5
				c-23,10.6-42.7,19.6-55.5,41.8c0,0-6,12.1,0.3,23.3l6.4,6.1c0,0,3.8,3.2,3.8,3.2C98.3,472.4,102.8,473.3,108.9,475.5z"/>
			<path id="Fill-5" class="st6" d="M218.8,450.9c-99.1,20.3-117.1-0.1-118.3-6.6c-1.3-6.5,15.8-31,102.7-47.6
				c86.8-16.6,112.2-1.7,113.5,4.8C318,408,318,430.5,218.8,450.9 M338.1,399.2c-2.2-11.2-34.3-39.1-137-19.7
				C98.3,398.9,80.2,438.6,82.4,449.8c2.2,11.2,25.8,47.6,143,23.2C342.6,448.6,340.3,410.4,338.1,399.2"/>
			<path id="Fill-7" class="st6" d="M134.2,499.3c0,0,16.8,18.5,62.6,18.5c45.9,0,61.8-18,61.8-18s13.5,29.9-58.3,29.9
				C144,529.8,134.2,499.3,134.2,499.3"/>
			<path id="Fill-9" class="st6" d="M150,521.9c0,0,15.7,18.4,47.5,18.4c21.9,0,24.8-3.5,24.8-3.5s-4,13.4-31.8,13.4
				C162.7,550.2,150,528.3,150,521.9"/>
			<path id="Fill-11" class="st6" d="M288.6,458.9c-10,20.1-81.6,32.8-119,32.5c-35.8-0.3-58-13.5-58-13.5s9.6,26.5,76.8,27
				c67.2,0.6,124.2-25.2,124.4-46.6c0-3.2-1-6.1-2.8-8.8C303.7,452.8,296.7,455.9,288.6,458.9"/>
			<path id="Fill-13" class="st6" d="M228.2,428.2c-40.9-0.4-84.9,15.7-84.9,15.7c32.5-10.5,83.2-13.1,115.4-7.3
				c6.9-2.1,12.9-4.3,17.9-6.4C262.6,427.2,243.8,428.4,228.2,428.2"/>
			<path id="Stroke-15" class="st7" d="M147.8,440.6c11.6-3.3,26.9-6.6,45.2-7.9"/>
			<path id="Fill-17" class="st6" d="M131.9,446.9c8.2,0.3,18.8,2,26,5l-8.4-10.5l0.5-13.2C146,434.7,138.4,442,131.9,446.9"/>
			<path id="Fill-19" class="st6" d="M168.1,570.3c-1.9,0-5.3-0.3-9-2.2c-4.2-2.1-6.6-5.1-7.7-6.6l-5.9,11.3"/>
			<path id="Fill-21" class="st8" d="M222.3,448.6c-99.1,20.3-117.1-0.1-118.4-6.6c-1.3-6.5,15.8-31,102.7-47.6
				c86.9-16.6,112.3-1.7,113.6,4.8C321.4,405.7,321.4,428.3,222.3,448.6 M341.5,396.9c-2.2-11.2-34.3-39.1-137.1-19.7
				c-102.8,19.4-120.9,59.2-118.7,70.4c2.2,11.2,25.8,47.6,143,23.2C346,447,343.6,412,341.5,396.9"/>
			<path id="Fill-23" class="st8" d="M134.2,499c0,0,19.4,15.7,65.1,15.7s61.6-17.6,61.6-17.6s13.4,29.4-58.1,29.4
				C146.6,526.4,134.2,499,134.2,499"/>
			<path id="Fill-25" class="st8" d="M150,521.9c0,0,18.3,16,49.9,16c21.7,0,24.7-3.5,24.7-3.5c0,0-4,13.5-31.6,13.5
				C165.3,547.9,150,528.4,150,521.9"/>
			<path id="Fill-27" class="st4" d="M158,543.4l-5.8,18.4l1.9,1.9c1.9,1.9,4.2,3.4,6.7,4.6l5,1.2l4.3-1.4l12.6-6.5l-9,1.5
				c-3.6-0.4-6.5-0.8-9.5-2.3C161.2,559,158,543.4,158,543.4"/>
			<path id="Fill-29" class="st8" d="M290.9,456.7c-10,20.1-81.4,32.8-118.8,32.5c-35.8-0.3-60.5-10.9-60.5-10.9
				s12.2,23.9,79.3,24.5c67.1,0.6,123.9-25.2,124.1-46.6c0-3.2-1-6.1-2.8-8.8C306,450.5,299,453.6,290.9,456.7"/>
			<path id="Fill-31" class="st8" d="M230,424.8c-40.7-0.3-84.5,14.7-84.5,14.7c32.4-9.8,80-9.8,112.1-4.3c6.9-2,12.8-4,17.8-5.9
				C261.5,426.3,245.5,424.9,230,424.8"/>
			<path id="Stroke-33" class="st9" d="M151.1,438.3c11.5-3.3,26.9-6.6,45.2-7.9"/>
			<path id="Fill-35" class="st8" d="M137.6,443.5c8.2,0.3,18.8,2,26,5l-8.4-10.5l0.5-13.2C151.6,431.3,144,438.6,137.6,443.5"/>
			<path id="Fill-37" class="st8" d="M170.4,566.9c-1.9,0-5.3-0.3-9-2.2c-4.2-2.1-6.6-5.1-7.7-6.6l-5.9,11.3"/>
			<path id="Fill-39" class="st6" d="M156.5,542.3c0,0,10.3,16.4,36.4,13.9c0,0-14.7,12.9-28.7,5
				C151.9,554.2,156.5,542.3,156.5,542.3"/>
			<path id="Fill-41" class="st8" d="M156.9,542.3c0,0,10.5,16.3,37.2,13.8c0,0-12.3,10.3-26.6,2.5
				C154.9,551.6,156.9,542.3,156.9,542.3"/>
		</g>
	</g>
</g>
<g>
	<rect x="408.5" y="493" class="st10" width="1145.5" height="322"/>
	<path class="st11" d="M413.3,579.1V493h12.2l19.9,62.2V493h8.5v86.1h-10l-22-69.6v69.6H413.3z"/>
	<path class="st11" d="M486.2,579l-14.3-68.5v68.6h-8.4V493H477l14.1,68.8l13.7-68.8h13.4v86.1h-9.1v-69.2L495.4,579H486.2z"/>
	<path class="st11" d="M550.5,579l-14.3-68.5v68.6h-8.4V493h13.4l14.1,68.8l13.7-68.8h13.4v86.1h-9.1v-69.2L559.8,579H550.5z"/>
	<path class="st11" d="M649.4,513.8v7.7h-9.1v-8.2c0-7.7-3.1-12.4-10.1-12.4c-6.9,0-10.1,4.7-10.1,12.4v45.5
		c0,7.7,3.2,12.4,10.1,12.4c7,0,10.1-4.7,10.1-12.4v-11.2h9.1v10.7c0,13-6.2,21.6-19.4,21.6c-13.2,0-19.3-8.6-19.3-21.6v-44.5
		c0-13,6.2-21.6,19.3-21.6C643.3,492.1,649.4,500.7,649.4,513.8z"/>
	<path class="st11" d="M677.1,492.1c13.3,0,19.8,8.5,19.8,21.6v44.5c0,13-6.5,21.6-19.8,21.6c-13.2,0-19.7-8.6-19.7-21.6v-44.5
		C657.4,500.6,663.9,492.1,677.1,492.1z M677.1,571.2c7,0,10.2-4.6,10.2-12.4v-45.5c0-7.7-3.2-12.4-10.2-12.4
		c-6.9,0-10.2,4.7-10.2,12.4v45.5C666.9,566.7,670.2,571.2,677.1,571.2z"/>
	<path class="st11" d="M728.5,579l-14.3-68.5v68.6h-8.4V493h13.4l14.1,68.8l13.7-68.8h13.4v86.1h-9.1v-69.2L737.7,579H728.5z"/>
	<path class="st11" d="M792.8,579l-14.3-68.5v68.6h-8.4V493h13.4l14.1,68.8l13.7-68.8h13.4v86.1h-9.1v-69.2L802.1,579H792.8z"/>
	<path class="st11" d="M853.9,571.2c6.9,0,10-4.7,10-12.4V493h9v65.3c0,13-6,21.8-19.3,21.8c-13.2,0-19.2-8.7-19.2-21.8V493h9.5
		v65.8C843.8,566.6,846.8,571.2,853.9,571.2z"/>
	<path class="st11" d="M882.1,579.1V493h12.2l19.9,62.2V493h8.5v86.1h-10l-22-69.6v69.6H882.1z"/>
	<path class="st11" d="M942.2,579.1h-9.6V493h9.6V579.1z"/>
	<path class="st11" d="M964.4,501.7h-15.9V493h41.2v8.7h-15.9v77.4h-9.5V501.7z"/>
	<path class="st11" d="M993.3,493h10l13.4,42.3l13.5-42.3h9.1l-18.3,55.2v30.9h-9.5v-30.9L993.3,493z"/>
</g>
<path class="st12" d="M252.3,604.5"/>
<path id="Green_x5F_Thing" class="st13" d="M357,585.7c-1.3,12.1-2.5,24.2-3.8,36.4l0,0c-1.2,7.2-3.6,9.7-5.6,10.8
	c-2.5,1.2-10.8,1.8-8.1,1.4l0,0c-5.2-1-13.2-2.5-22.9-4.3c0,0-18.3-3.4-35.3-6.7c-36.7-7-146.8-29.1-110.1-21.8l0,0
	c-2.9-2.6-6.1-6.3-5.6-10.3c1-9.4,21.7-14.5,59.1-20.3c121.1-18.8,129.9,0.1,130.5,2.6c0.2,0.6,1.8,8.6,1.8,8.6l0,0c0,0,0,0.8,0,2.4
	"/>
<path id="Background" class="st14" d="M78.1,482.2L78.1,482.2c16,76.2,18.8,85.6,24.6,104.5c0.1,0.4,0.2,0.7,0.2,0.7
	c0.1,0.4,1,3.1,2.5,5.6c0.8,1.5,2.5,4.5,5.8,7.3c0.7,0.5,4.6,3.2,7.1,4c0.4,0.1,0.9,0.2,0.9,0.2c1.7,0.4,3.1,0.3,3.8,0.2
	c2.9-0.2,5.5-0.8,8.7-1.2c0.7-0.1,1.6-0.2,3.4-0.4c2.7-0.3,5.4-0.5,8-0.8c13-1.5,36.9-3.1,39.5-3.3c18.4-1.3,22.8-2.1,77.7-6.8
	c46.2-4,90.9-7.5,90.9-7.5s4-0.7,5.8-1.2c5.9-1.6,9.3-7.4,10.1-8.7c1.4-2.4,1.8-4.6,2.7-8.9c1.2-6.2,0.8-8,1.8-17.2
	c0.8-7.1,1.1-6.8,1.6-12.7c0.4-5.2,0.7-12,0.7-12c0,0,1-13.9,2.7-28.9c0,0,0.4-3.7,1.1-13.2c0.5-6.4,0.5-8.1,0-10.4
	c-0.3-1.4-1.6-6.9-6.3-10.6c-3.5-2.7-7.3-3.1-11.8-3.5c-3.8-0.4-6.7,0-7.1,0c0,0-4.5,0.5-252.4-1.2c0,0-3.3-0.2-5.6,0
	c-0.8,0.1-3.6,0.4-6.7,2.1c-0.9,0.5-3.7,2.1-6,5.4c-0.8,1.1-2.8,4.1-3.6,8.5C77.3,477,78.1,482.2,78.1,482.2z"/>
<polyline id="N" class="st15" points="153.6,550.7 156.2,524.9 172,550.7 184.9,550.7 190.7,492.6 174.7,492.6 172.3,518.7 
	156.7,492.6 143.3,492.6 137.8,550.7 "/>
<polyline id="M" class="st15" points="199,550.7 204.6,492.6 223.8,492.6 234.8,526.8 253.6,492.6 269.9,492.6 264.2,550.7 
	248.3,550.7 250.9,523.9 237,550.7 225.6,550.7 217.6,523.9 214.8,550.7 "/>
<polyline id="M_x5F_2" class="st15" points="271.1,550.7 277,492.6 296,492.6 306.9,527 326.1,492.6 342,492.6 336.3,550.7 
	320.4,550.7 322.9,524.2 309.1,550.7 297.9,550.7 289.7,524.2 287,550.5 "/>
<g class="st2">
	<rect x="150.7" y="557.6" class="st16" width="146.8" height="10.1"/>
	<path class="st17" d="M157.3,565.6c0.1,0,0.1,0,0.2,0.1l0.5,0.6c-0.3,0.4-0.7,0.8-1.2,1c-0.5,0.2-1.1,0.4-1.7,0.4
		c-0.6,0-1.1-0.1-1.6-0.3c-0.5-0.2-0.9-0.6-1.2-1c-0.3-0.4-0.6-0.9-0.8-1.5c-0.2-0.6-0.3-1.2-0.3-1.9c0-0.7,0.1-1.3,0.3-1.9
		c0.2-0.6,0.5-1.1,0.8-1.5s0.8-0.7,1.3-1c0.5-0.2,1.1-0.3,1.7-0.3s1.1,0.1,1.6,0.3c0.5,0.2,0.8,0.5,1.2,0.9l-0.4,0.6
		c0,0-0.1,0.1-0.1,0.1s-0.1,0-0.2,0c-0.1,0-0.2,0-0.3-0.1c-0.1-0.1-0.2-0.2-0.4-0.3c-0.2-0.1-0.3-0.2-0.6-0.3
		c-0.2-0.1-0.5-0.1-0.9-0.1c-0.4,0-0.8,0.1-1.1,0.2c-0.3,0.2-0.6,0.4-0.9,0.7c-0.2,0.3-0.4,0.7-0.6,1.1c-0.1,0.4-0.2,1-0.2,1.5
		c0,0.6,0.1,1.1,0.2,1.5c0.1,0.5,0.3,0.8,0.6,1.1c0.2,0.3,0.5,0.6,0.9,0.7s0.7,0.2,1.1,0.2c0.2,0,0.5,0,0.6,0c0.2,0,0.4-0.1,0.5-0.1
		c0.2-0.1,0.3-0.1,0.4-0.3c0.1-0.1,0.3-0.2,0.4-0.4C157.2,565.7,157.3,565.6,157.3,565.6z"/>
	<path class="st17" d="M167.2,563c0,0.7-0.1,1.3-0.3,1.9c-0.2,0.6-0.5,1.1-0.9,1.5c-0.4,0.4-0.8,0.7-1.3,1c-0.5,0.2-1.1,0.4-1.7,0.4
		c-0.6,0-1.2-0.1-1.7-0.4c-0.5-0.2-1-0.6-1.3-1c-0.4-0.4-0.7-0.9-0.9-1.5c-0.2-0.6-0.3-1.2-0.3-1.9c0-0.7,0.1-1.3,0.3-1.9
		c0.2-0.6,0.5-1.1,0.9-1.5c0.4-0.4,0.8-0.7,1.3-1c0.5-0.2,1.1-0.4,1.7-0.4c0.6,0,1.2,0.1,1.7,0.4c0.5,0.2,1,0.6,1.3,1
		c0.4,0.4,0.7,0.9,0.9,1.5C167,561.6,167.2,562.3,167.2,563z M165.9,563c0-0.6-0.1-1.1-0.2-1.5c-0.1-0.5-0.3-0.8-0.6-1.1
		c-0.3-0.3-0.6-0.6-0.9-0.7c-0.4-0.2-0.8-0.2-1.2-0.2s-0.9,0.1-1.2,0.2c-0.4,0.2-0.7,0.4-0.9,0.7s-0.5,0.7-0.6,1.1
		c-0.1,0.5-0.2,1-0.2,1.5s0.1,1.1,0.2,1.5s0.3,0.8,0.6,1.1c0.3,0.3,0.6,0.6,0.9,0.7c0.4,0.2,0.8,0.2,1.2,0.2s0.9-0.1,1.2-0.2
		c0.4-0.2,0.7-0.4,0.9-0.7s0.5-0.7,0.6-1.1C165.8,564,165.9,563.5,165.9,563z"/>
	<path class="st17" d="M173.7,564.5c0,0.1,0.1,0.2,0.1,0.3c0-0.1,0.1-0.2,0.1-0.4c0-0.1,0.1-0.2,0.2-0.3l3.3-5.6
		c0-0.1,0.1-0.2,0.2-0.2c0.1,0,0.1,0,0.3,0h0.9v9.2h-1.1v-6.7c0-0.1,0-0.2,0-0.3c0-0.1,0-0.2,0-0.4l-3.3,5.8
		c-0.1,0.2-0.3,0.3-0.5,0.3h-0.2c-0.2,0-0.4-0.1-0.5-0.3l-3.4-5.8c0,0.2,0,0.5,0,0.6v6.7h-1.1v-9.2h0.9c0.1,0,0.2,0,0.3,0
		c0.1,0,0.1,0.1,0.2,0.2l3.3,5.6C173.6,564.3,173.7,564.4,173.7,564.5z"/>
	<path class="st17" d="M186,564.5c0,0.1,0.1,0.2,0.1,0.3c0-0.1,0.1-0.2,0.1-0.4c0-0.1,0.1-0.2,0.2-0.3l3.3-5.6
		c0-0.1,0.1-0.2,0.2-0.2c0.1,0,0.1,0,0.3,0h0.9v9.2h-1.1v-6.7c0-0.1,0-0.2,0-0.3c0-0.1,0-0.2,0-0.4l-3.3,5.8
		c-0.1,0.2-0.3,0.3-0.5,0.3H186c-0.2,0-0.4-0.1-0.5-0.3l-3.4-5.8c0,0.2,0,0.5,0,0.6v6.7h-1.1v-9.2h0.9c0.1,0,0.2,0,0.3,0
		c0.1,0,0.1,0.1,0.2,0.2l3.3,5.6C185.9,564.3,185.9,564.4,186,564.5z"/>
	<path class="st17" d="M196.8,566.6c0.4,0,0.7-0.1,1-0.2c0.3-0.1,0.6-0.3,0.7-0.6c0.2-0.2,0.4-0.5,0.5-0.8c0.1-0.3,0.2-0.7,0.2-1.1
		v-5.6h1.3v5.6c0,0.5-0.1,1-0.3,1.5c-0.2,0.5-0.4,0.8-0.7,1.2c-0.3,0.3-0.7,0.6-1.1,0.8c-0.5,0.2-1,0.3-1.5,0.3s-1.1-0.1-1.5-0.3
		c-0.5-0.2-0.8-0.5-1.1-0.8s-0.6-0.7-0.7-1.2c-0.2-0.5-0.3-1-0.3-1.5v-5.6h1.3v5.6c0,0.4,0,0.7,0.2,1.1s0.3,0.6,0.5,0.8
		c0.2,0.2,0.5,0.4,0.7,0.6C196.1,566.5,196.5,566.6,196.8,566.6z"/>
	<path class="st17" d="M203.4,558.4c0,0,0.1,0.1,0.2,0.2l5,6.9c0-0.1,0-0.2,0-0.3c0-0.1,0-0.2,0-0.3v-6.5h1.1v9.2H209
		c-0.1,0-0.2,0-0.2,0c-0.1,0-0.1-0.1-0.2-0.2l-5-6.9c0,0.1,0,0.2,0,0.3c0,0.1,0,0.2,0,0.3v6.5h-1.1v-9.2h0.7
		C203.3,558.3,203.3,558.4,203.4,558.4z"/>
	<path class="st17" d="M213.2,567.6h-1.3v-9.2h1.3V567.6z"/>
	<path class="st17" d="M221.2,558.3v1.1h-2.7v8.1h-1.3v-8.1h-2.7v-1.1H221.2z"/>
	<path class="st17" d="M225.5,563.9v3.7h-1.3v-3.7l-2.9-5.6h1.1c0.1,0,0.2,0,0.3,0.1c0.1,0,0.1,0.1,0.2,0.2l1.6,3.6
		c0.1,0.1,0.1,0.3,0.2,0.4c0.1,0.1,0.1,0.3,0.2,0.4c0-0.1,0.1-0.3,0.2-0.4c0-0.1,0.1-0.3,0.2-0.4l1.6-3.6c0-0.1,0.1-0.1,0.2-0.2
		c0.1,0,0.2-0.1,0.3-0.1h1.1L225.5,563.9z"/>
	<path class="st17" d="M238,558.3v1h-4.1v3h3.3v1h-3.3v3.1h4.1v1h-5.4v-9.2H238z"/>
	<path class="st17" d="M246.9,563c0,0.7-0.1,1.3-0.3,1.9c-0.2,0.6-0.5,1.1-0.9,1.5c-0.4,0.4-0.8,0.7-1.3,0.9
		c-0.5,0.2-1.1,0.3-1.7,0.3h-3.2v-9.2h3.2c0.6,0,1.2,0.1,1.7,0.3c0.5,0.2,1,0.5,1.3,0.9s0.6,0.9,0.9,1.5
		C246.8,561.6,246.9,562.3,246.9,563z M245.6,563c0-0.6-0.1-1.1-0.2-1.5c-0.1-0.4-0.3-0.8-0.6-1.1c-0.2-0.3-0.6-0.6-0.9-0.7
		c-0.4-0.2-0.7-0.2-1.2-0.2h-1.9v7.2h1.9c0.4,0,0.8-0.1,1.2-0.2c0.4-0.2,0.7-0.4,0.9-0.7s0.5-0.7,0.6-1.1
		C245.6,564,245.6,563.5,245.6,563z"/>
	<path class="st17" d="M249.9,567.6h-1.3v-9.2h1.3V567.6z"/>
	<path class="st17" d="M257.9,558.3v1.1h-2.7v8.1h-1.3v-8.1h-2.7v-1.1H257.9z"/>
	<path class="st17" d="M260.5,567.6h-1.3v-9.2h1.3V567.6z"/>
	<path class="st17" d="M270.6,563c0,0.7-0.1,1.3-0.3,1.9c-0.2,0.6-0.5,1.1-0.9,1.5c-0.4,0.4-0.8,0.7-1.3,1c-0.5,0.2-1.1,0.4-1.7,0.4
		c-0.6,0-1.2-0.1-1.7-0.4c-0.5-0.2-1-0.6-1.3-1c-0.4-0.4-0.7-0.9-0.9-1.5c-0.2-0.6-0.3-1.2-0.3-1.9c0-0.7,0.1-1.3,0.3-1.9
		s0.5-1.1,0.9-1.5c0.4-0.4,0.8-0.7,1.3-1c0.5-0.2,1.1-0.4,1.7-0.4c0.6,0,1.2,0.1,1.7,0.4c0.5,0.2,1,0.6,1.3,1
		c0.4,0.4,0.7,0.9,0.9,1.5S270.6,562.3,270.6,563z M269.3,563c0-0.6-0.1-1.1-0.2-1.5s-0.3-0.8-0.6-1.1c-0.3-0.3-0.6-0.6-0.9-0.7
		c-0.4-0.2-0.8-0.2-1.2-0.2s-0.9,0.1-1.2,0.2c-0.4,0.2-0.7,0.4-0.9,0.7s-0.5,0.7-0.6,1.1c-0.1,0.4-0.2,1-0.2,1.5s0.1,1.1,0.2,1.5
		c0.1,0.5,0.3,0.8,0.6,1.1s0.6,0.6,0.9,0.7c0.4,0.2,0.8,0.2,1.2,0.2s0.9-0.1,1.2-0.2c0.4-0.2,0.7-0.4,0.9-0.7s0.5-0.7,0.6-1.1
		S269.3,563.5,269.3,563z"/>
	<path class="st17" d="M273.1,558.4c0,0,0.1,0.1,0.2,0.2l5,6.9c0-0.1,0-0.2,0-0.3c0-0.1,0-0.2,0-0.3v-6.5h1.1v9.2h-0.6
		c-0.1,0-0.2,0-0.2,0s-0.1-0.1-0.2-0.2l-5-6.9c0,0.1,0,0.2,0,0.3c0,0.1,0,0.2,0,0.3v6.5h-1.1v-9.2h0.7
		C273,558.3,273,558.4,273.1,558.4z"/>
</g>
<g>
</g>
<g>
</g>
<g>
</g>
<g>
</g>
<g>
</g>
<g>
</g>
<g>
</g>
<g>
</g>
<g>
</g>
<g>
</g>
<g>
</g>
<g>
</g>
<g>
</g>
<g>
</g>
<g>
</g>
</svg>
