<?xml version="1.0" encoding="utf-8"?>
<!-- Generator: Adobe Illustrator 27.3.0, SVG Export Plug-In . SVG Version: 6.00 Build 0)  -->
<svg version="1.1" id="Ebene_1" xmlns="http://www.w3.org/2000/svg" xmlns:xlink="http://www.w3.org/1999/xlink" x="0px" y="0px"
	 viewBox="0 0 2048 2048" style="enable-background:new 0 0 2048 2048;" xml:space="preserve">
<style type="text/css">
	.st0{fill:#00FF30;}
	.st1{stroke:#000000;stroke-miterlimit:10;}
	.st2{fill:#FFFFFF;}
	.st3{fill:none;}
	.st4{fill:#FFFFFF;stroke:#FFFFFF;stroke-miterlimit:10;}
</style>
<path id="Green_x5F_Thing" class="st0" d="M1553.5,1249.5c-5.7,50.7-11.3,101.3-17,152l0,0c-5.3,29.9-16.1,40.7-25,45
	c-11,5.2-48.1,7.5-36,6l0,0c-23.3-4.1-58.8-10.3-102-18c0,0-81.5-14.4-157-28c-163.5-29.4-653.3-121.7-490-91l0,0
	c-13-11-27-26.5-25-43c4.6-39.2,96.4-60.7,263-85c539.2-78.7,578.3,0.5,581,11c0.7,2.6,8,36,8,36l0,0c0,0,0,3.5,0,10"/>
<path id="Background" class="st1" d="M335.5,813.5L335.5,813.5c71.5,324.1,84.3,364,110,444c0.5,1.5,1,3,1,3c0.6,1.6,4.6,13.1,11,24
	c3.7,6.4,11.3,19.2,26,31c3.2,2.1,20.6,13.7,32,17c2,0.6,4,1,4,1c7.8,1.7,14.1,1.2,17,1c13.2-1,24.6-3.2,39-5c3.1-0.4,7-0.9,15-1.6
	c12-1.2,24-2.1,36-3.4c58.2-6.3,165.4-13.2,177-14c82.5-5.4,102.2-8.9,348-29c206.9-16.9,407-32,407-32c0,0,17.8-2.8,26-5
	c26.2-7,41.7-31.5,45-37c6.1-10.1,8.1-19.6,12-38c5.5-26.3,3.6-34.1,8-73c3.4-30.3,4.9-29,7-54c1.8-21.9,3-51,3-51
	c0-0.1,4.6-58.9,12-123c0,0,1.8-15.7,5-56c2.2-27.4,2.3-34.4,0-44c-1.5-6-7.1-29.5-28-45c-15.7-11.6-32.6-13.2-53-15
	c-17.2-1.5-30.2-0.2-32,0c0,0-20.3,2-1130-5c0,0-14.6-0.9-25,0c-3.4,0.3-16.1,1.7-30,9c-4.2,2.2-16.4,9.1-27,23
	c-3.6,4.7-12.6,17.5-16,36C331.9,791.3,335.5,813.5,335.5,813.5z"/>
<polyline id="N" class="st2" points="688.5,1065.5 699.5,957.5 765.5,1065.5 819.5,1065.5 843.5,822.5 776.5,822.5 766.5,931.5 
	701.4,822.5 645.5,822.5 622.5,1065.5 "/>
<polyline id="M" class="st2" points="845,1065.5 868.1,822.5 948.3,822.5 994.5,965.5 1072.8,822.5 1141.2,822.5 1117.4,1065.5 
	1051,1065.5 1061.5,953.5 1003.4,1065.5 956,1065.5 922.5,953.5 911,1065.5 "/>
<polyline id="M_x5F_2" class="st2" points="1142.1,1065.5 1166.6,822.5 1245.9,822.5 1291.5,966.5 1371.9,822.5 1438.3,822.5 
	1414.6,1065.5 1348,1065.5 1358.5,954.5 1300.8,1065.5 1254,1065.5 1219.5,954.5 1208.5,1064.5 "/>
<g>
	<rect x="638.6" y="1131.9" class="st3" width="613.4" height="42.1"/>
	<path class="st4" d="M666.5,1165.5c0.3,0,0.5,0.1,0.8,0.4l2.1,2.3c-1.4,1.8-3.1,3.3-5.1,4.3c-2,1-4.5,1.5-7.3,1.5
		c-2.5,0-4.8-0.5-6.8-1.4s-3.8-2.3-5.2-4s-2.5-3.8-3.3-6.2c-0.8-2.4-1.2-5.1-1.2-8s0.4-5.6,1.2-8s2-4.5,3.5-6.2
		c1.5-1.7,3.3-3.1,5.3-4c2.1-1,4.4-1.4,6.9-1.4c2.5,0,4.7,0.4,6.5,1.3c1.9,0.9,3.5,2.1,4.9,3.6l-1.8,2.5c-0.1,0.2-0.3,0.3-0.4,0.4
		s-0.4,0.2-0.7,0.2c-0.3,0-0.7-0.2-1.1-0.5c-0.4-0.4-0.9-0.7-1.6-1.2s-1.4-0.8-2.4-1.2c-1-0.4-2.1-0.5-3.6-0.5c-1.7,0-3.2,0.3-4.6,1
		c-1.4,0.7-2.6,1.7-3.6,3c-1,1.3-1.8,2.9-2.3,4.7s-0.8,4-0.8,6.3c0,2.4,0.3,4.5,0.9,6.4s1.4,3.5,2.4,4.7c1,1.3,2.2,2.3,3.6,3
		s2.9,1,4.4,1c1,0,1.9-0.1,2.6-0.2c0.8-0.1,1.5-0.3,2.1-0.6c0.7-0.3,1.3-0.6,1.8-1.1c0.6-0.4,1.1-1,1.7-1.6
		C665.9,1165.6,666.2,1165.5,666.5,1165.5z"/>
	<path class="st4" d="M707.6,1154.3c0,2.9-0.4,5.5-1.3,7.9s-2.1,4.5-3.6,6.2s-3.4,3.1-5.6,4.1c-2.2,1-4.6,1.5-7.3,1.5
		c-2.6,0-5-0.5-7.2-1.5c-2.2-1-4.1-2.3-5.6-4.1c-1.6-1.7-2.8-3.8-3.6-6.2c-0.9-2.4-1.3-5-1.3-7.9c0-2.9,0.4-5.5,1.3-7.9
		c0.9-2.4,2.1-4.5,3.6-6.2c1.6-1.7,3.4-3.1,5.6-4.1c2.2-1,4.6-1.5,7.2-1.5c2.7,0,5.1,0.5,7.3,1.5c2.2,1,4,2.3,5.6,4.1
		s2.8,3.8,3.6,6.2S707.6,1151.4,707.6,1154.3z M702.2,1154.3c0-2.3-0.3-4.4-0.9-6.3c-0.6-1.9-1.4-3.4-2.5-4.7
		c-1.1-1.3-2.4-2.3-3.9-3c-1.5-0.7-3.2-1-5.1-1s-3.6,0.3-5.1,1c-1.5,0.7-2.8,1.7-3.9,3c-1.1,1.3-1.9,2.9-2.5,4.7
		c-0.6,1.9-0.9,4-0.9,6.3s0.3,4.4,0.9,6.3c0.6,1.9,1.4,3.4,2.5,4.7c1.1,1.3,2.4,2.3,3.9,3c1.5,0.7,3.2,1,5.1,1s3.6-0.3,5.1-1
		c1.5-0.7,2.8-1.7,3.9-3c1.1-1.3,1.9-2.9,2.5-4.7C701.9,1158.7,702.2,1156.6,702.2,1154.3z"/>
	<path class="st4" d="M734.9,1160.9c0.2,0.5,0.4,0.9,0.6,1.4c0.2-0.5,0.4-1,0.6-1.5s0.4-0.9,0.7-1.3l13.6-23.6
		c0.2-0.4,0.5-0.7,0.8-0.7c0.3-0.1,0.6-0.1,1.1-0.1h3.9v38.5h-4.7v-28.1c0-0.4,0-0.8,0-1.3s0.1-1,0.1-1.5l-13.7,24.1
		c-0.4,0.8-1.1,1.2-1.9,1.2h-0.8c-0.8,0-1.5-0.4-1.9-1.2l-14.1-24.1c0.1,1,0.2,1.9,0.2,2.7v28.1h-4.7V1135h3.9c0.5,0,0.8,0,1.1,0.1
		s0.5,0.3,0.8,0.8l13.8,23.6C734.5,1159.9,734.7,1160.4,734.9,1160.9z"/>
	<path class="st4" d="M786.2,1160.9c0.2,0.5,0.4,0.9,0.6,1.4c0.2-0.5,0.4-1,0.6-1.5s0.4-0.9,0.7-1.3l13.6-23.6
		c0.2-0.4,0.5-0.7,0.8-0.7c0.3-0.1,0.6-0.1,1.1-0.1h3.9v38.5h-4.7v-28.1c0-0.4,0-0.8,0-1.3s0.1-1,0.1-1.5l-13.7,24.1
		c-0.4,0.8-1.1,1.2-1.9,1.2h-0.8c-0.8,0-1.5-0.4-1.9-1.2l-14.1-24.1c0.1,1,0.2,1.9,0.2,2.7v28.1h-4.7V1135h3.9c0.5,0,0.8,0,1.1,0.1
		s0.5,0.3,0.8,0.8l13.8,23.6C785.8,1159.9,786,1160.4,786.2,1160.9z"/>
	<path class="st4" d="M831.6,1169.3c1.5,0,2.9-0.3,4.1-0.8c1.2-0.5,2.3-1.3,3.1-2.3c0.8-1,1.5-2.1,1.9-3.4s0.7-2.8,0.7-4.4V1135h5.3
		v23.4c0,2.2-0.4,4.3-1.1,6.2s-1.7,3.5-3,4.9c-1.3,1.4-2.9,2.5-4.8,3.3s-4,1.2-6.3,1.2s-4.4-0.4-6.3-1.2c-1.9-0.8-3.5-1.9-4.8-3.3
		c-1.3-1.4-2.3-3-3-4.9s-1.1-4-1.1-6.2V1135h5.3v23.3c0,1.6,0.2,3.1,0.7,4.4s1.1,2.5,1.9,3.5c0.8,1,1.9,1.7,3.1,2.3
		C828.7,1169,830,1169.3,831.6,1169.3z"/>
	<path class="st4" d="M859,1135.2c0.2,0.1,0.5,0.4,0.8,0.7l20.9,28.8c0-0.5-0.1-0.9-0.1-1.4s0-0.9,0-1.3v-27h4.7v38.5h-2.7
		c-0.4,0-0.8-0.1-1-0.2c-0.3-0.1-0.6-0.4-0.8-0.7l-20.9-28.7c0,0.4,0.1,0.9,0.1,1.3c0,0.4,0,0.8,0,1.2v27.2h-4.7V1135h2.8
		C858.4,1135,858.8,1135.1,859,1135.2z"/>
	<path class="st4" d="M899.8,1173.5h-5.3V1135h5.3V1173.5z"/>
	<path class="st4" d="M933.2,1135v4.5H922v34h-5.4v-34h-11.2v-4.5H933.2z"/>
	<path class="st4" d="M951.2,1158.1v15.4h-5.3v-15.3l-12-23.2h4.7c0.4,0,0.8,0.1,1.1,0.3c0.3,0.2,0.5,0.5,0.7,0.9l6.6,14.9
		c0.3,0.6,0.6,1.2,0.9,1.7c0.3,0.5,0.5,1.1,0.7,1.6c0.2-0.5,0.4-1.1,0.7-1.6c0.2-0.5,0.5-1.1,0.9-1.7l6.5-14.9
		c0.2-0.3,0.4-0.6,0.7-0.8s0.7-0.4,1.1-0.4h4.7L951.2,1158.1z"/>
	<path class="st4" d="M1003.5,1135v4.3h-17.1v12.6h13.8v4.2h-13.8v13h17.2l0,4.3H981V1135H1003.5z"/>
	<path class="st4" d="M1040.9,1154.3c0,2.9-0.4,5.5-1.3,7.9s-2,4.4-3.6,6.1s-3.4,3-5.5,3.9s-4.5,1.4-7.2,1.4h-13.3V1135h13.3
		c2.6,0,5,0.5,7.2,1.4s4,2.2,5.5,3.9s2.7,3.7,3.6,6.1S1040.9,1151.4,1040.9,1154.3z M1035.5,1154.3c0-2.3-0.3-4.4-0.8-6.3
		c-0.6-1.8-1.4-3.4-2.4-4.7s-2.3-2.3-3.8-2.9c-1.5-0.7-3.1-1-5-1h-7.9v29.9h7.9c1.8,0,3.5-0.3,5-1c1.5-0.7,2.8-1.7,3.8-2.9
		s1.9-2.8,2.4-4.7C1035.2,1158.7,1035.5,1156.6,1035.5,1154.3z"/>
	<path class="st4" d="M1053.2,1173.5h-5.3V1135h5.3V1173.5z"/>
	<path class="st4" d="M1086.6,1135v4.5h-11.2v34h-5.4v-34h-11.2v-4.5H1086.6z"/>
	<path class="st4" d="M1097.5,1173.5h-5.3V1135h5.3V1173.5z"/>
	<path class="st4" d="M1140,1154.3c0,2.9-0.4,5.5-1.3,7.9s-2.1,4.5-3.6,6.2s-3.4,3.1-5.6,4.1s-4.6,1.5-7.3,1.5c-2.6,0-5-0.5-7.2-1.5
		s-4.1-2.3-5.6-4.1s-2.8-3.8-3.6-6.2s-1.3-5-1.3-7.9c0-2.9,0.4-5.5,1.3-7.9s2.1-4.5,3.6-6.2s3.4-3.1,5.6-4.1s4.6-1.5,7.2-1.5
		c2.7,0,5.1,0.5,7.3,1.5s4,2.3,5.6,4.1s2.8,3.8,3.6,6.2S1140,1151.4,1140,1154.3z M1134.6,1154.3c0-2.3-0.3-4.4-0.9-6.3
		s-1.4-3.4-2.5-4.7s-2.4-2.3-3.9-3s-3.2-1-5.1-1s-3.6,0.3-5.1,1s-2.8,1.7-3.9,3s-1.9,2.9-2.5,4.7s-0.9,4-0.9,6.3s0.3,4.4,0.9,6.3
		s1.4,3.4,2.5,4.7s2.4,2.3,3.9,3s3.2,1,5.1,1s3.6-0.3,5.1-1s2.8-1.7,3.9-3s1.9-2.9,2.5-4.7S1134.6,1156.6,1134.6,1154.3z"/>
	<path class="st4" d="M1150.3,1135.2c0.2,0.1,0.5,0.4,0.8,0.7l20.9,28.8c0-0.5-0.1-0.9-0.1-1.4s0-0.9,0-1.3v-27h4.7v38.5h-2.7
		c-0.4,0-0.8-0.1-1-0.2s-0.6-0.4-0.8-0.7l-20.9-28.7c0,0.4,0.1,0.9,0.1,1.3s0,0.8,0,1.2v27.2h-4.7V1135h2.8
		C1149.7,1135,1150,1135.1,1150.3,1135.2z"/>
</g>
<g>
</g>
<g>
</g>
<g>
</g>
<g>
</g>
<g>
</g>
<g>
</g>
<g>
</g>
<g>
</g>
<g>
</g>
<g>
</g>
<g>
</g>
</svg>
