<?xml version="1.0" encoding="UTF-8"?>
<svg id="NMM" xmlns="http://www.w3.org/2000/svg" viewBox="0 0 1987 632">
  <defs>
    <style>
      .cls-1 {
        fill: #fff;
      }

      .cls-2 {
        stroke-width: 5px;
      }

      .cls-2, .cls-3, .cls-4 {
        stroke-miterlimit: 10;
      }

      .cls-2, .cls-4 {
        stroke: #fff;
      }

      .cls-3 {
        fill: #292b2a;
        stroke: #00ff30;
        stroke-width: 20px;
      }

      .cls-4 {
        fill: #00ff30;
        stroke-width: 2px;
      }
    </style>
  </defs>
  <rect id="NMM_Base" class="cls-3" x="10" y="10" width="1967" height="611" rx="123.67" ry="123.67"/>
  <g id="NMM_Icon">
    <path id="Green_Thing" class="cls-4" d="m581.06,377.21c-2.04,18.11-4.04,36.19-6.07,54.3h0c-1.89,10.68-5.75,14.54-8.93,16.08-3.93,1.86-17.18,2.68-12.86,2.14h0c-8.32-1.46-21.01-3.68-36.44-6.43,0,0-29.12-5.14-56.09-10-58.41-10.5-233.4-43.48-175.06-32.51h0c-4.64-3.93-9.65-9.47-8.93-15.36,1.64-14,34.44-21.69,93.96-30.37,192.64-28.12,206.61.18,207.57,3.93.25.93,2.86,12.86,2.86,12.86h0v3.57"/>
    <path id="Background" class="cls-2" d="m145.91,221.44h0c25.54,115.79,30.12,130.04,39.3,158.63l.36,1.07c.21.57,1.64,4.68,3.93,8.57,1.32,2.29,4.04,6.86,9.29,11.08,1.14.75,7.36,4.89,11.43,6.07.71.21,1.43.36,1.43.36,2.79.61,5.04.43,6.07.36,4.72-.36,8.79-1.14,13.93-1.79,1.11-.14,2.5-.32,5.36-.57,4.29-.43,8.57-.75,12.86-1.21,20.79-2.25,59.09-4.72,63.24-5,29.47-1.93,36.51-3.18,124.33-10.36,73.92-6.04,145.41-11.43,145.41-11.43,0,0,6.36-1,9.29-1.79,9.36-2.5,14.9-11.25,16.08-13.22,2.18-3.61,2.89-7,4.29-13.58,1.96-9.4,1.29-12.18,2.86-26.08,1.21-10.83,1.75-10.36,2.5-19.29.64-7.82,1.07-18.22,1.07-18.22,0-.04,1.64-21.04,4.29-43.94,0,0,.64-5.61,1.79-20.01.79-9.79.82-12.29,0-15.72-.54-2.14-2.54-10.54-10-16.08-5.61-4.14-11.65-4.72-18.94-5.36-6.14-.54-10.79-.07-11.43,0,0,0-7.25.71-403.71-1.79,0,0-5.22-.32-8.93,0-1.21.11-5.75.61-10.72,3.22-1.5.79-5.86,3.25-9.65,8.22-1.29,1.68-4.5,6.25-5.72,12.86-1.29,7.07,0,15.01,0,15.01Z"/>
    <polyline id="N" class="cls-1" points="252.02 326.47 255.95 287.89 279.53 326.47 298.83 326.47 307.4 239.66 283.46 239.66 279.89 278.6 256.63 239.66 236.66 239.66 228.44 326.47"/>
    <polyline id="M" class="cls-1" points="307.94 326.47 316.19 239.66 344.84 239.66 361.35 290.75 389.32 239.66 413.76 239.66 405.26 326.47 381.53 326.47 385.28 286.46 364.53 326.47 347.59 326.47 335.62 286.46 331.52 326.47"/>
    <polyline id="M_2" class="cls-1" points="414.08 326.47 422.83 239.66 451.16 239.66 467.46 291.1 496.18 239.66 519.9 239.66 511.43 326.47 487.64 326.47 491.39 286.82 470.78 326.47 454.06 326.47 441.73 286.82 437.8 326.12"/>
  </g>
  <g id="NMM_Text">
    <g id="Text2_NMM">
      <path class="cls-1" d="m672.11,294.93v-145.59h20.59l33.69,105.24v-105.24h14.35v145.59h-16.85l-37.23-117.72v117.72h-14.56Z"/>
      <path class="cls-1" d="m795.45,294.72l-24.13-115.85v116.06h-14.14v-145.59h22.67l23.92,116.27,23.09-116.27h22.67v145.59h-15.39v-117.1l-23.09,116.89h-15.6Z"/>
      <path class="cls-1" d="m904.24,294.72l-24.13-115.85v116.06h-14.14v-145.59h22.67l23.92,116.27,23.09-116.27h22.67v145.59h-15.39v-117.1l-23.09,116.89h-15.6Z"/>
      <path class="cls-1" d="m1046.3,214.86v14.56h-39.73v-14.56h39.73Z"/>
    </g>
    <g id="Text1_NMM">
      <path class="cls-1" d="m722.95,371.5v10.71h-12.58v-11.39c0-10.71-4.25-17.17-13.94-17.17s-13.94,6.46-13.94,17.17v62.9c0,10.71,4.42,17.17,13.94,17.17s13.94-6.46,13.94-17.17v-15.47h12.58v14.79c0,18.02-8.5,29.92-26.86,29.92s-26.69-11.9-26.69-29.92v-61.54c0-18.02,8.5-29.92,26.69-29.92s26.86,11.9,26.86,29.92Z"/>
      <path class="cls-1" d="m761.19,341.58c18.36,0,27.37,11.73,27.37,29.92v61.54c0,18.02-9.01,29.92-27.37,29.92s-27.2-11.9-27.2-29.92v-61.54c0-18.19,9.01-29.92,27.2-29.92Zm0,109.31c9.69,0,14.11-6.29,14.11-17.17v-62.9c0-10.71-4.42-17.17-14.11-17.17s-14.11,6.46-14.11,17.17v62.9c0,10.88,4.59,17.17,14.11,17.17Z"/>
      <path class="cls-1" d="m832.25,461.6l-19.72-94.69v94.86h-11.56v-119h18.53l19.55,95.03,18.87-95.03h18.53v119h-12.58v-95.71l-18.87,95.54h-12.75Z"/>
      <path class="cls-1" d="m921.16,461.6l-19.72-94.69v94.86h-11.56v-119h18.53l19.55,95.03,18.87-95.03h18.53v119h-12.58v-95.71l-18.87,95.54h-12.75Z"/>
      <path class="cls-1" d="m1005.48,450.88c9.52,0,13.77-6.46,13.77-17.17v-90.95h12.41v90.27c0,18.02-8.33,30.09-26.69,30.09s-26.52-12.07-26.52-30.09v-90.27h13.09v90.95c0,10.71,4.25,17.17,13.94,17.17Z"/>
      <path class="cls-1" d="m1044.58,461.77v-119h16.83l27.54,86.02v-86.02h11.73v119h-13.77l-30.43-96.22v96.22h-11.9Z"/>
      <path class="cls-1" d="m1127.54,461.77h-13.26v-119h13.26v119Z"/>
      <path class="cls-1" d="m1158.48,354.84h-21.93v-12.07h57.12v12.07h-21.93v106.93h-13.26v-106.93Z"/>
      <path class="cls-1" d="m1198.77,342.77h13.77l18.53,58.48,18.7-58.48h12.58l-25.33,76.33v42.67h-13.09v-42.67l-25.16-76.33Z"/>
      <path class="cls-1" d="m1340.54,407.37h-29.07v42.33h35.7v12.07h-48.96v-119h48.96v12.07h-35.7v40.63h29.07v11.9Z"/>
      <path class="cls-1" d="m1414.32,372.35v60.01c0,18.19-8.5,29.41-27.03,29.41h-27.88v-119h27.88c18.53,0,27.03,11.22,27.03,29.58Zm-13.09,60.52v-61.2c0-10.88-4.59-16.83-14.28-16.83h-14.28v94.86h14.45c9.52,0,14.11-5.95,14.11-16.83Z"/>
      <path class="cls-1" d="m1439.99,461.77h-13.26v-119h13.26v119Z"/>
      <path class="cls-1" d="m1470.93,354.84h-21.93v-12.07h57.12v12.07h-21.93v106.93h-13.26v-106.93Z"/>
      <path class="cls-1" d="m1528.56,461.77h-13.26v-119h13.26v119Z"/>
      <path class="cls-1" d="m1568.34,341.58c18.36,0,27.37,11.73,27.37,29.92v61.54c0,18.02-9.01,29.92-27.37,29.92s-27.2-11.9-27.2-29.92v-61.54c0-18.19,9.01-29.92,27.2-29.92Zm0,109.31c9.69,0,14.11-6.29,14.11-17.17v-62.9c0-10.71-4.42-17.17-14.11-17.17s-14.11,6.46-14.11,17.17v62.9c0,10.88,4.59,17.17,14.11,17.17Z"/>
      <path class="cls-1" d="m1608.12,461.77v-119h16.83l27.54,86.02v-86.02h11.73v119h-13.77l-30.43-96.22v96.22h-11.9Z"/>
    </g>
  </g>
</svg>