<?xml version="1.0" encoding="utf-8"?>
<!-- Generator: Adobe Illustrator 27.3.0, SVG Export Plug-In . SVG Version: 6.00 Build 0)  -->
<svg version="1.1" id="Ebene_1" xmlns="http://www.w3.org/2000/svg" xmlns:xlink="http://www.w3.org/1999/xlink" x="0px" y="0px"
	 viewBox="0 0 1920 1080" style="enable-background:new 0 0 1920 1080;" xml:space="preserve">
<style type="text/css">
	.st0{fill:#333333;}
	.st1{fill:#FF0000;}
	.st2{display:none;}
	.st3{display:inline;}
	.st4{fill-rule:evenodd;clip-rule:evenodd;fill:#D68E44;}
	.st5{fill:none;stroke:#2A2B2A;stroke-width:21.8571;stroke-linecap:square;}
	.st6{fill-rule:evenodd;clip-rule:evenodd;fill:#965A28;}
	.st7{fill:none;stroke:#965A28;stroke-width:1.4571;}
	.st8{fill-rule:evenodd;clip-rule:evenodd;fill:#FEFEFE;}
	.st9{fill:none;stroke:#FEFEFE;stroke-width:1.4571;}
	.st10{fill:none;}
	.st11{fill:#FFFFFF;stroke:#000000;stroke-miterlimit:10;}
	.st12{fill:#388FBC;}
</style>
<g>
	<path class="st0" d="M136,705.5c-41.6,0-75.5-33.9-75.5-75.5V460c0-41.6,33.9-75.5,75.5-75.5h881c41.6,0,75.5,33.9,75.5,75.5v170
		c0,41.6-33.9,75.5-75.5,75.5H136z"/>
	<path class="st1" d="M1017,385c41.4,0,75,33.6,75,75v170c0,41.4-33.6,75-75,75H136c-41.4,0-75-33.6-75-75V460c0-41.4,33.6-75,75-75
		H1017 M1017,384H136c-42,0-76,34-76,76v170c0,42,34,76,76,76h881c42,0,76-34,76-76V460C1093,418,1059,384,1017,384L1017,384z"/>
</g>
<g id="Logo" class="st2">
	<g id="logomark_RGB_512x512" class="st3">
		<g id="Page-1" transform="translate(19.000000, 70.000000)">
			<path id="Fill-1" class="st4" d="M108.9,475.5l0.1-2.9c0,0,0,0,0,0c0.3,4.8,1.8,8.1,5.2,11.5l7.5,5.7c6.3,3.5,10.2,9.6,15.3,14.8
				l5.3,5.9c0,0,0,0,0,0l4.7,7.3c1.9,3.7,0.3,0.7,1.6,4.7l5.1,9.6v0c1,3,1.9,7.6,1.9,10.3c0,5.6-0.1,7.6-0.4,13.2v0l-1.8,4.8
				c0,0,0,0,0,0c0,0-9,12.4-9,12.4l24.2-4.2c2.4-0.5,16.1-7.5,18.2-8.8l9.7-5.1l3.8-2c4.3-2.3,4.1-2.8,9.4-4.5
				c5.7-1.9,12-6.6,15.8-9.8l4.5-5v0l25-14.5l2.7-1.8c7.3-4.7,9.8-13.3,8.8-21.9c-0.2-1.9,4.6-3,8.9-3.8c3.6-0.7,7.1-1.9,10.4-3.7
				l11.6-6.3c7.2-3.7,14.9-9.5,19.3-16.4c3.5-5.5,2.7-23.4,2.7-23.4v0c5.3-7.6,11.4-9.6,19.1-19.6c7-9.1,7-19.4,7-19.4
				c1-30.9-54.2-37.4-79.7-36.7l-44.9,4.3c-7.3,1.3-17.1,2-29.6,5c-1.2,0.3-41.9,13.2-41.9,13.2c-3.1,1-8.4,3.2-11.4,4.5
				c-23,10.6-42.7,19.6-55.5,41.8c0,0-6,12.1,0.3,23.3l6.4,6.1c0,0,3.8,3.2,3.8,3.2C98.3,472.4,102.8,473.3,108.9,475.5"/>
			<path id="Stroke-3" class="st5" d="M108.9,475.5l0.1-2.9c0.3,4.8,1.8,8.1,5.2,11.5l7.5,5.7c6.3,3.5,10.2,9.6,15.3,14.8l5.3,5.9
				c0,0,1.6,2.4,4.7,7.3c1.9,3.7,0.3,0.7,1.6,4.7l5.1,9.6c1,3,1.9,7.6,1.9,10.3c0,5.6-0.1,7.6-0.4,13.2l-1.8,4.8
				c0,0-12.2,15.1-10.2,13.6l25.4-5.3c2.4-0.5,16.1-7.5,18.2-8.8l9.7-5.1l3.8-2c4.3-2.3,4.1-2.8,9.4-4.5c5.7-1.9,12-6.6,15.8-9.8
				l4.5-5l25-14.5l2.7-1.8c7.3-4.7,9.8-13.3,8.8-21.9c-0.2-1.9,4.6-3,8.9-3.8c3.6-0.7,7.1-1.9,10.4-3.7l11.6-6.3
				c7.2-3.7,14.9-9.5,19.3-16.4c3.5-5.5,2.7-23.4,2.7-23.4c5.3-7.6,11.4-9.6,19.1-19.6c7-9.1,7-19.4,7-19.4
				c1-30.9-54.2-37.4-79.7-36.7l-44.9,4.3c-7.3,1.3-17.1,2-29.6,5c-1.2,0.3-41.9,13.2-41.9,13.2c-3.1,1-8.4,3.2-11.4,4.5
				c-23,10.6-42.7,19.6-55.5,41.8c0,0-6,12.1,0.3,23.3l6.4,6.1c0,0,3.8,3.2,3.8,3.2C98.3,472.4,102.8,473.3,108.9,475.5z"/>
			<path id="Fill-5" class="st6" d="M218.8,450.9c-99.1,20.3-117.1-0.1-118.3-6.6c-1.3-6.5,15.8-31,102.7-47.6
				c86.8-16.6,112.2-1.7,113.5,4.8C318,408,318,430.5,218.8,450.9 M338.1,399.2c-2.2-11.2-34.3-39.1-137-19.7
				C98.3,398.9,80.2,438.6,82.4,449.8c2.2,11.2,25.8,47.6,143,23.2C342.6,448.6,340.3,410.4,338.1,399.2"/>
			<path id="Fill-7" class="st6" d="M134.2,499.3c0,0,16.8,18.5,62.6,18.5c45.9,0,61.8-18,61.8-18s13.5,29.9-58.3,29.9
				C144,529.8,134.2,499.3,134.2,499.3"/>
			<path id="Fill-9" class="st6" d="M150,521.9c0,0,15.7,18.4,47.5,18.4c21.9,0,24.8-3.5,24.8-3.5s-4,13.4-31.8,13.4
				C162.7,550.2,150,528.3,150,521.9"/>
			<path id="Fill-11" class="st6" d="M288.6,458.9c-10,20.1-81.6,32.8-119,32.5c-35.8-0.3-58-13.5-58-13.5s9.6,26.5,76.8,27
				c67.2,0.6,124.2-25.2,124.4-46.6c0-3.2-1-6.1-2.8-8.8C303.7,452.8,296.7,455.9,288.6,458.9"/>
			<path id="Fill-13" class="st6" d="M228.2,428.2c-40.9-0.4-84.9,15.7-84.9,15.7c32.5-10.5,83.2-13.1,115.4-7.3
				c6.9-2.1,12.9-4.3,17.9-6.4C262.6,427.2,243.8,428.4,228.2,428.2"/>
			<path id="Stroke-15" class="st7" d="M147.8,440.6c11.6-3.3,26.9-6.6,45.2-7.9"/>
			<path id="Fill-17" class="st6" d="M131.9,446.9c8.2,0.3,18.8,2,26,5l-8.4-10.5l0.5-13.2C146,434.7,138.4,442,131.9,446.9"/>
			<path id="Fill-19" class="st6" d="M168.1,570.3c-1.9,0-5.3-0.3-9-2.2c-4.2-2.1-6.6-5.1-7.7-6.6l-5.9,11.3"/>
			<path id="Fill-21" class="st8" d="M222.3,448.6c-99.1,20.3-117.1-0.1-118.4-6.6c-1.3-6.5,15.8-31,102.7-47.6
				c86.9-16.6,112.3-1.7,113.6,4.8C321.4,405.7,321.4,428.3,222.3,448.6 M341.5,396.9c-2.2-11.2-34.3-39.1-137.1-19.7
				c-102.8,19.4-120.9,59.2-118.7,70.4c2.2,11.2,25.8,47.6,143,23.2C346,447,343.6,412,341.5,396.9"/>
			<path id="Fill-23" class="st8" d="M134.2,499c0,0,19.4,15.7,65.1,15.7s61.6-17.6,61.6-17.6s13.4,29.4-58.1,29.4
				C146.6,526.4,134.2,499,134.2,499"/>
			<path id="Fill-25" class="st8" d="M150,521.9c0,0,18.3,16,49.9,16c21.7,0,24.7-3.5,24.7-3.5c0,0-4,13.5-31.6,13.5
				C165.3,547.9,150,528.4,150,521.9"/>
			<path id="Fill-27" class="st4" d="M158,543.4l-5.8,18.4l1.9,1.9c1.9,1.9,4.2,3.4,6.7,4.6l5,1.2l4.3-1.4l12.6-6.5l-9,1.5
				c-3.6-0.4-6.5-0.8-9.5-2.3C161.2,559,158,543.4,158,543.4"/>
			<path id="Fill-29" class="st8" d="M290.9,456.7c-10,20.1-81.4,32.8-118.8,32.5c-35.8-0.3-60.5-10.9-60.5-10.9
				s12.2,23.9,79.3,24.5c67.1,0.6,123.9-25.2,124.1-46.6c0-3.2-1-6.1-2.8-8.8C306,450.5,299,453.6,290.9,456.7"/>
			<path id="Fill-31" class="st8" d="M230,424.8c-40.7-0.3-84.5,14.7-84.5,14.7c32.4-9.8,80-9.8,112.1-4.3c6.9-2,12.8-4,17.8-5.9
				C261.5,426.3,245.5,424.9,230,424.8"/>
			<path id="Stroke-33" class="st9" d="M151.1,438.3c11.5-3.3,26.9-6.6,45.2-7.9"/>
			<path id="Fill-35" class="st8" d="M137.6,443.5c8.2,0.3,18.8,2,26,5l-8.4-10.5l0.5-13.2C151.6,431.3,144,438.6,137.6,443.5"/>
			<path id="Fill-37" class="st8" d="M170.4,566.9c-1.9,0-5.3-0.3-9-2.2c-4.2-2.1-6.6-5.1-7.7-6.6l-5.9,11.3"/>
			<path id="Fill-39" class="st6" d="M156.5,542.3c0,0,10.3,16.4,36.4,13.9c0,0-14.7,12.9-28.7,5
				C151.9,554.2,156.5,542.3,156.5,542.3"/>
			<path id="Fill-41" class="st8" d="M156.9,542.3c0,0,10.5,16.3,37.2,13.8c0,0-12.3,10.3-26.6,2.5
				C154.9,551.6,156.9,542.3,156.9,542.3"/>
		</g>
	</g>
</g>
<g>
	<rect x="408.5" y="493" class="st10" width="1145.5" height="322"/>
	<path class="st11" d="M440.4,584.3l17-91.3h10.8l-19.6,105h-17.2l-19.8-105h11.8L440.4,584.3z"/>
	<path class="st11" d="M500.1,492c16.2,0,24.1,10.3,24.1,26.4v54.3c0,15.9-8,26.4-24.1,26.4c-16,0-24-10.5-24-26.4v-54.3
		C476.1,502.3,484.1,492,500.1,492z M500.1,588.4c8.5,0,12.4-5.6,12.4-15.2v-55.5c0-9.4-3.9-15.1-12.4-15.1
		c-8.4,0-12.4,5.7-12.4,15.1v55.5C487.7,582.8,491.7,588.4,500.1,588.4z"/>
	<path class="st11" d="M582.2,517v8.5c0,11.5-4,18.7-13,21.6c9.6,2.9,13.2,10.6,13.2,21.9v16.3c0,4.6,0.1,9,2.1,12.6h-11.8
		c-1.3-3-2-5.7-2-12.8v-16.5c0-11.8-5.5-15.6-15.3-15.6h-8.2V598h-11.7V493h23.4C575.3,493,582.2,501.4,582.2,517z M570.6,528.1v-10
		c0-9.4-3.4-14.4-12.1-14.4h-11.4v38.8h8.7C565.1,542.5,570.6,539.5,570.6,528.1z"/>
	<path class="st11" d="M609.6,503.7h-19.3V493h50.2v10.6h-19.3V598h-11.5V503.7z"/>
	<path class="st11" d="M685.8,550h-25.6v37.3h31.5V598h-43.2V493h43.2v10.6h-31.5v35.8h25.6V550z"/>
	<path class="st11" d="M711,598h-11.1l21.1-54.1L701.3,493h12.1l16.2,42l16.3-42h10.9l-19.6,50.8l21,54.1H746l-17.4-45.3L711,598z"
		/>
</g>
<path class="st12" d="M252.3,604.5"/>
<g id="Logo_00000178893597265622842420000017798992897814399892_">
	<g id="logomark_RGB_512x512_00000124864892113729488620000015564432727354110630_">
		<g id="Page-1_00000064346362173943303320000011980842498160212864_" transform="translate(19.000000, 70.000000)">
			<path id="Fill-1_00000164495647992138280860000002504780431842006405_" class="st4" d="M115.4,477.4l0.1-3c0,0,0,0,0,0
				c0.3,5,1.9,8.5,5.5,12l7.9,5.9c6.6,3.6,10.6,10,16,15.4l5.6,6.2c0,0,0,0,0,0l5,7.7c2,3.8,0.3,0.8,1.6,4.9l5.3,10.1v0
				c1,3.2,2,7.9,2,10.7c0,5.8-0.1,7.9-0.4,13.8v0l-1.9,5c0,0,0,0,0,0c0,0-9.4,13-9.4,13l25.3-4.3c2.6-0.5,16.9-7.8,19.1-9.2
				l10.1-5.3l4-2.1c4.5-2.4,4.3-2.9,9.8-4.7c6-2,12.5-6.9,16.5-10.3l4.7-5.2v0l26.1-15.2l2.9-1.8c7.6-4.9,10.2-13.9,9.2-22.9
				c-0.2-2,4.8-3.1,9.3-4c3.8-0.7,7.4-2,10.8-3.9l12.1-6.6c7.6-3.9,15.6-9.9,20.2-17.1c3.6-5.7,2.8-24.4,2.8-24.5v0
				c5.5-8,11.9-10,19.9-20.4c7.4-9.6,7.3-20.3,7.3-20.3c1.1-32.3-56.7-39.1-83.3-38.3l-46.9,4.5c-7.6,1.3-17.9,2.1-30.9,5.2
				c-1.2,0.3-43.8,13.7-43.8,13.7c-3.3,1-8.8,3.3-11.9,4.7c-24,11.1-44.6,20.5-58,43.7c0,0-6.3,12.7,0.3,24.4l6.7,6.4
				c0,0,3.9,3.3,3.9,3.3C104.3,474.2,109,475.2,115.4,477.4"/>
			<path id="Stroke-3_00000042018428964514093930000005645570157394081680_" class="st5" d="M115.4,477.4l0.1-3
				c0.3,5,1.9,8.5,5.5,12l7.9,5.9c6.6,3.6,10.6,10,16,15.4l5.6,6.2c0,0,1.7,2.6,5,7.7c2,3.8,0.3,0.8,1.6,4.9l5.3,10.1
				c1,3.2,2,7.9,2,10.7c0,5.8-0.1,7.9-0.4,13.8l-1.9,5c0,0-12.8,15.7-10.7,14.2l26.5-5.5c2.6-0.5,16.9-7.8,19.1-9.2l10.1-5.3l4-2.1
				c4.5-2.4,4.3-2.9,9.8-4.7c6-2,12.5-6.9,16.5-10.3l4.7-5.2l26.1-15.2l2.9-1.8c7.6-4.9,10.2-13.9,9.2-22.9c-0.2-2,4.8-3.1,9.3-4
				c3.8-0.7,7.4-2,10.8-3.9l12.1-6.6c7.6-3.9,15.6-9.9,20.2-17.1c3.6-5.7,2.8-24.4,2.8-24.5c5.5-8,11.9-10,19.9-20.4
				c7.4-9.6,7.3-20.3,7.3-20.3c1.1-32.3-56.7-39.1-83.3-38.3l-46.9,4.5c-7.6,1.3-17.9,2.1-30.9,5.2c-1.2,0.3-43.8,13.7-43.8,13.7
				c-3.3,1-8.8,3.3-11.9,4.7c-24,11.1-44.6,20.5-58,43.7c0,0-6.3,12.7,0.3,24.4l6.7,6.4c0,0,3.9,3.3,3.9,3.3
				C104.3,474.2,109,475.2,115.4,477.4z"/>
			<path id="Fill-5_00000021798653284413158300000016987392333472770984_" class="st6" d="M230.3,451.7
				c-103.6,21.2-122.3-0.1-123.7-6.9c-1.3-6.8,16.5-32.4,107.3-49.8c90.8-17.4,117.3-1.8,118.6,5
				C333.9,406.9,333.9,430.4,230.3,451.7 M354.9,397.7c-2.3-11.7-35.8-40.9-143.2-20.6c-107.4,20.3-126.3,61.8-124,73.5
				c2.3,11.7,27,49.7,149.4,24.2C359.6,449.3,357.2,409.4,354.9,397.7"/>
			<path id="Fill-7_00000068658708674189411950000007587953624270268853_" class="st6" d="M141.8,502.3c0,0,17.5,19.4,65.4,19.4
				c47.9,0,64.6-18.8,64.6-18.8s14.1,31.3-60.9,31.3C152.1,534.2,141.8,502.3,141.8,502.3"/>
			<path id="Fill-9_00000109014297904291967010000011153310557723661462_" class="st6" d="M158.4,525.9c0,0,16.4,19.2,49.6,19.2
				c22.8,0,25.9-3.6,25.9-3.6s-4.2,14-33.2,14C171.7,555.5,158.4,532.7,158.4,525.9"/>
			<path id="Fill-11_00000155126073630007255110000001525811871715090816_" class="st6" d="M303.2,460.1
				c-10.5,21-85.2,34.3-124.4,33.9c-37.5-0.3-60.6-14.1-60.6-14.1s10,27.7,80.2,28.3c70.2,0.6,129.8-26.4,130-48.7
				c0-3.4-1.1-6.4-3-9.2C319,453.7,311.6,456.9,303.2,460.1"/>
			<path id="Fill-13_00000139255279805124487890000003428150741301438366_" class="st6" d="M240,428c-42.7-0.4-88.8,16.4-88.8,16.4
				c34-10.9,86.9-13.7,120.6-7.6c7.2-2.2,13.4-4.5,18.7-6.7C276,427,256.4,428.2,240,428"/>
			<path id="Stroke-15_00000106849290361560624280000016586480909607659158_" class="st7" d="M156,440.9c12.1-3.4,28.1-6.9,47.2-8.3
				"/>
			<path id="Fill-17_00000054986174721818264420000008497138406415153331_" class="st6" d="M139.5,447.6c8.6,0.4,19.6,2.1,27.2,5.2
				l-8.8-11l0.5-13.8C154.1,434.7,146.2,442.4,139.5,447.6"/>
			<path id="Fill-19_00000093859959953055634550000002089350746056060062_" class="st6" d="M177.2,576.5c-1.9,0-5.5-0.3-9.4-2.3
				c-4.3-2.2-6.9-5.3-8.1-6.9l-6.1,11.8"/>
			<path id="Fill-21_00000158002682272965853980000015997597813439917746_" class="st8" d="M233.9,449.3
				c-103.6,21.2-122.3-0.1-123.7-6.9c-1.3-6.8,16.5-32.4,107.3-49.8c90.8-17.4,117.3-1.8,118.7,5
				C337.5,404.5,337.5,428.1,233.9,449.3 M358.5,395.3c-2.3-11.7-35.8-40.9-143.2-20.6c-107.4,20.3-126.3,61.8-124,73.5
				c2.3,11.7,27,49.7,149.5,24.2C363.1,447.7,360.6,411.1,358.5,395.3"/>
			<path id="Fill-23_00000176735361621169744710000012553941478595874180_" class="st8" d="M141.8,502c0,0,20.2,16.4,68,16.4
				s64.4-18.4,64.4-18.4s14,30.7-60.7,30.7C154.8,530.7,141.8,502,141.8,502"/>
			<path id="Fill-25_00000080202150199885446500000000804831700958164668_" class="st8" d="M158.4,525.9c0,0,19.1,16.7,52.1,16.7
				c22.7,0,25.8-3.7,25.8-3.7c0,0-4.2,14.1-33,14.1C174.4,553.1,158.4,532.7,158.4,525.9"/>
			<path id="Fill-27_00000021101441235194169520000012812461053903199148_" class="st4" d="M166.7,548.4l-6,19.2l2,1.9
				c2,2,4.4,3.6,7,4.8l5.2,1.2l4.5-1.4l13.2-6.8l-9.4,1.6c-3.7-0.4-6.8-0.8-9.9-2.4C170,564.7,166.7,548.4,166.7,548.4"/>
			<path id="Fill-29_00000157307079241047829250000000074130150394214833_" class="st8" d="M305.6,457.8
				c-10.5,21-85.1,34.3-124.2,33.9c-37.4-0.3-63.2-11.4-63.2-11.4s12.8,25,82.8,25.6c70.1,0.6,129.5-26.4,129.7-48.7
				c0-3.4-1.1-6.4-3-9.2C321.4,451.3,314,454.6,305.6,457.8"/>
			<path id="Fill-31_00000152948732777739486780000006493455402938401725_" class="st8" d="M241.9,424.4
				c-42.5-0.4-88.3,15.3-88.3,15.3c33.8-10.2,83.6-10.2,117.1-4.5c7.2-2.1,13.4-4.2,18.6-6.2C274.9,426,258.2,424.5,241.9,424.4"/>
			<path id="Stroke-33_00000178185944255303103650000011308293651944359320_" class="st9" d="M159.5,438.6
				c12.1-3.4,28.1-6.9,47.2-8.3"/>
			<path id="Fill-35_00000098192385893524713030000000959984868413327267_" class="st8" d="M145.4,444c8.6,0.4,19.6,2.1,27.2,5.2
				l-8.8-11l0.5-13.8C160,431.2,152.1,438.9,145.4,444"/>
			<path id="Fill-37_00000051350509256467188240000006925498359641845133_" class="st8" d="M179.6,573c-1.9,0-5.5-0.3-9.4-2.3
				c-4.3-2.2-6.9-5.3-8.1-6.9l-6.1,11.8"/>
			<path id="Fill-39_00000170269587204252848020000004497626645666431658_" class="st6" d="M165.1,547.2c0,0,10.8,17.1,38.1,14.5
				c0,0-15.4,13.5-30,5.3C160.3,559.7,165.1,547.2,165.1,547.2"/>
			<path id="Fill-41_00000107590798173974924300000014297225996028381569_" class="st8" d="M165.6,547.2c0,0,11,17,38.8,14.4
				c0,0-12.9,10.8-27.8,2.6C163.5,557,165.6,547.2,165.6,547.2"/>
		</g>
	</g>
</g>
<g>
</g>
<g>
</g>
<g>
</g>
<g>
</g>
<g>
</g>
<g>
</g>
<g>
</g>
<g>
</g>
<g>
</g>
<g>
</g>
<g>
</g>
<g>
</g>
<g>
</g>
<g>
</g>
<g>
</g>
</svg>
