<?xml version="1.0" encoding="UTF-8"?>
<svg id="Vortex" xmlns="http://www.w3.org/2000/svg" viewBox="0 0 1987 632">
  <defs>
    <style>
      .cls-1 {
        stroke: #965a28;
      }

      .cls-1, .cls-2, .cls-3 {
        fill: none;
      }

      .cls-1, .cls-3 {
        stroke-width: 1.46px;
      }

      .cls-4 {
        fill: #fff;
      }

      .cls-5 {
        fill: #292b2a;
        stroke: #d68e44;
        stroke-miterlimit: 10;
        stroke-width: 20px;
      }

      .cls-6 {
        fill: #d68e44;
      }

      .cls-6, .cls-7, .cls-8 {
        fill-rule: evenodd;
      }

      .cls-7 {
        fill: #965a28;
      }

      .cls-2 {
        stroke: #2a2b2a;
        stroke-linecap: square;
        stroke-width: 21.86px;
      }

      .cls-8 {
        fill: #fefefe;
      }

      .cls-3 {
        stroke: #fefefe;
      }
    </style>
  </defs>
  <rect id="Vortex_Base" class="cls-5" x="10" y="10" width="1967" height="611" rx="123.67" ry="123.67"/>
  <g id="Vortex_Text">
    <g>
      <path class="cls-4" d="m760.93,436.46l56.8-258.8h17.2l-60.8,280h-27.2l-61.6-280h18.8l56.8,258.8Z"/>
      <path class="cls-4" d="m922.53,175.27c43.2,0,62,30,62,70.8v143.2c0,40.8-18.8,70.8-62,70.8s-61.2-30-61.2-70.8v-143.2c0-40.8,18.8-70.8,61.2-70.8Zm0,268c31.2,0,43.6-22.4,43.6-52.8v-145.6c0-30.4-12.4-52.8-43.6-52.8s-42.8,22.4-42.8,52.8v145.6c0,30.4,12,52.8,42.8,52.8Z"/>
      <path class="cls-4" d="m1133.33,240.87v24.4c0,32.8-12.8,51.6-40.4,58,28.8,6.4,40.4,26.8,40.4,57.2v43.6c0,11.6.8,24.4,6.8,33.6h-19.2c-4.8-8.4-6-18.4-6-33.6v-44c0-37.2-20.4-47.6-52.4-47.6h-29.2v125.2h-18.4V177.67h58.4c42.8,0,60,23.6,60,63.2Zm-18.4,28v-26.4c0-30-11.6-48-42-48h-39.6v121.2h29.6c32.8,0,52-9.2,52-46.8Z"/>
      <path class="cls-4" d="m1216.53,194.47h-56.8v-16.8h132.4v16.8h-57.2v263.2h-18.4V194.47Z"/>
      <path class="cls-4" d="m1409.72,324.07h-76.4v116.8h92v16.8h-110.4V177.67h110.4v16.8h-92v112.8h76.4v16.8Z"/>
      <path class="cls-4" d="m1469.72,457.67h-18l63.2-145.2-58.8-134.8h19.2l52.8,120.4,53.2-120.4h17.6l-58.8,134.8,62.8,145.2h-19.6l-56.8-130.4-56.8,130.4Z"/>
    </g>
  </g>
  <g id="Vortex_Icon">
    <g id="Logo">
      <g id="logomark_RGB_512x512" data-name="logomark RGB 512x512">
        <g id="Page-1">
          <path id="Fill-1" class="cls-6" d="m163.05,323.23l.1-4.95s0,0,0,0c.51,8.18,3.09,13.85,8.94,19.59l12.85,9.72c10.84,5.92,17.39,16.35,26.21,25.27l9.13,10.08s0,0,0,0l8.11,12.56c3.29,6.3.44,1.23,2.65,7.98l8.68,16.47h0c1.7,5.18,3.24,12.96,3.22,17.56-.03,9.53-.14,12.92-.62,22.61h0s-3.12,8.18-3.12,8.18c0,0,0,0,0,0,0,0-15.45,21.27-15.44,21.27l41.38-7.11c4.18-.86,27.58-12.78,31.19-15.05l16.53-8.65,6.5-3.41c7.36-3.91,7.07-4.71,16.01-7.65,9.74-3.2,20.51-11.3,27.05-16.77l7.76-8.52h0s42.76-24.8,42.76-24.8l4.68-3.01c12.45-8,16.73-22.69,15.02-37.4-.38-3.31,7.8-5.13,15.28-6.54,6.2-1.17,12.18-3.33,17.72-6.36l19.85-10.85c12.37-6.38,25.52-16.26,33-28,5.94-9.33,4.58-39.98,4.57-40.03h0c9.03-13.03,19.52-16.44,32.63-33.46,12.03-15.64,11.89-33.16,11.89-33.16,1.77-52.85-92.72-63.93-136.24-62.74l-76.75,7.4c-12.49,2.2-29.25,3.4-50.62,8.52-1.99.48-71.67,22.49-71.67,22.49-5.33,1.63-14.43,5.43-19.49,7.76-39.29,18.11-72.98,33.47-94.86,71.55,0,0-10.26,20.77.54,39.89l10.9,10.51s6.44,5.45,6.44,5.45c9.03,8.36,16.74,9.89,27.24,13.58"/>
          <path id="Stroke-3" class="cls-2" d="m163.05,323.23l.1-4.95c.5,8.19,3.09,13.86,8.94,19.6l12.85,9.72c10.84,5.92,17.39,16.35,26.21,25.27l9.13,10.08s2.7,4.19,8.11,12.56c3.29,6.3.44,1.23,2.65,7.98l8.68,16.47c1.7,5.18,3.24,12.96,3.22,17.56-.03,9.53-.14,12.92-.62,22.61l-3.12,8.18s-20.94,25.74-17.46,23.2l43.39-9.04c4.18-.86,27.58-12.78,31.19-15.05l16.53-8.65,6.5-3.41c7.36-3.91,7.07-4.71,16.01-7.65,9.74-3.2,20.51-11.3,27.05-16.77l7.76-8.52,42.76-24.8,4.68-3.01c12.45-8,16.73-22.69,15.02-37.4-.38-3.31,7.8-5.13,15.28-6.54,6.2-1.17,12.18-3.33,17.72-6.36l19.85-10.85c12.37-6.38,25.52-16.26,33-28,5.94-9.33,4.58-39.98,4.57-40.03,9.03-13.03,19.52-16.44,32.63-33.46,12.03-15.64,11.89-33.16,11.89-33.16,1.77-52.85-92.72-63.93-136.24-62.74l-76.75,7.4c-12.49,2.2-29.25,3.4-50.62,8.52-1.99.48-71.67,22.49-71.67,22.49-5.33,1.63-14.43,5.43-19.49,7.76-39.29,18.11-72.98,33.47-94.86,71.55,0,0-10.26,20.77.54,39.89l10.9,10.51s6.44,5.45,6.44,5.45c9.03,8.36,16.74,9.89,27.24,13.58Z"/>
          <path id="Fill-5" class="cls-7" d="m351.02,281.1c-169.5,34.74-200.16-.11-202.36-11.25-2.2-11.15,27.05-52.99,175.57-81.46,148.51-28.46,191.94-2.9,194.14,8.24,2.2,11.14,2.15,49.73-167.35,84.47m203.94-88.37c-3.78-19.14-58.61-66.89-234.35-33.71-175.74,33.18-206.69,101.17-202.92,120.3,3.78,19.13,44.17,81.35,244.53,39.66,200.36-41.69,196.51-107.12,192.75-126.25"/>
          <path id="Fill-7" class="cls-7" d="m206.27,363.99s28.66,31.69,107.08,31.69,105.68-30.73,105.68-30.73c0,0,23.02,51.21-99.71,51.21-96.3,0-113.04-52.17-113.04-52.17"/>
          <path id="Fill-9" class="cls-7" d="m233.32,402.63s26.86,31.39,81.2,31.39c37.37,0,42.45-5.92,42.45-5.92,0,0-6.8,22.83-54.35,22.83s-69.31-37.31-69.31-48.3"/>
          <path id="Fill-11" class="cls-7" d="m470.32,294.91c-17.17,34.4-139.47,56.09-203.57,55.55-61.28-.53-99.12-23.05-99.12-23.05,0,0,16.37,45.25,131.27,46.23,114.91.98,212.32-43.14,212.65-79.61.03-5.49-1.74-10.48-4.87-15.04-10.47,5.37-22.53,10.71-36.36,15.93"/>
          <path id="Fill-13" class="cls-7" d="m366.98,242.42c-69.95-.62-145.25,26.9-145.25,26.9,55.63-17.88,142.2-22.43,197.32-12.49,11.8-3.66,21.97-7.31,30.68-10.9-23.87-5.2-56-3.27-82.75-3.51"/>
          <path id="Stroke-15" class="cls-1" d="m229.46,263.52c19.75-5.64,45.92-11.29,77.29-13.52"/>
          <path id="Fill-17" class="cls-7" d="m202.41,274.36c14.01.57,32.1,3.38,44.44,8.48l-14.36-17.92.79-22.66c-6.9,11.14-19.86,23.68-30.87,32.09"/>
          <path id="Fill-19" class="cls-7" d="m264.24,485.36c-3.17-.03-9-.51-15.4-3.73-7.1-3.57-11.27-8.68-13.18-11.37l-10.06,19.32"/>
          <path id="Fill-21" class="cls-8" d="m356.86,277.24c-169.53,34.74-200.2-.11-202.4-11.25-2.2-11.15,27.06-52.99,175.6-81.46,148.53-28.46,191.98-2.9,194.18,8.24,2.2,11.14,2.15,49.73-167.38,84.47m203.98-88.37c-3.78-19.14-58.62-66.89-234.4-33.71-175.77,33.18-206.73,101.17-202.96,120.3,3.78,19.13,44.18,81.35,244.57,39.66,200.36-40.57,196.28-100.46,192.79-126.25"/>
          <path id="Fill-23" class="cls-8" d="m206.27,363.48s33.13,26.79,111.29,26.79,105.34-30.15,105.34-30.15c0,0,22.94,50.24-99.39,50.24-95.99,0-117.23-46.88-117.23-46.88"/>
          <path id="Fill-25" class="cls-8" d="m233.32,402.63s31.25,27.34,85.3,27.34c37.17,0,42.22-5.98,42.22-5.98-.05.01-6.86,23.1-54.06,23.08-47.29-.03-73.46-33.33-73.46-44.44"/>
          <path id="Fill-27" class="cls-6" d="m247.05,439.34l-9.86,31.44,3.26,3.19c3.32,3.24,7.2,5.89,11.45,7.82l8.55,1.99,7.37-2.31,21.53-11.19-15.34,2.54c-6.12-.7-11.13-1.28-16.17-3.94-5.46-2.88-10.79-29.53-10.79-29.53"/>
          <path id="Fill-29" class="cls-8" d="m474.27,291.05c-17.13,34.4-139.19,56.09-203.16,55.55-61.16-.53-103.48-18.7-103.48-18.7,0,0,20.89,40.89,135.56,41.87,114.68.98,211.9-43.14,212.22-79.62.03-5.49-1.74-10.47-4.86-15.04-10.45,5.37-22.49,10.71-36.29,15.93"/>
          <path id="Fill-31" class="cls-8" d="m370.04,236.48c-69.57-.58-144.45,25.11-144.45,25.11,55.33-16.69,136.87-16.71,191.69-7.43,11.73-3.42,21.85-6.83,30.51-10.17-23.74-4.85-51.14-7.27-77.74-7.5"/>
          <path id="Stroke-33" class="cls-3" d="m235.25,259.66c19.75-5.64,45.92-11.29,77.29-13.52"/>
          <path id="Fill-35" class="cls-8" d="m212.07,268.56c14.01.57,32.1,3.38,44.44,8.48l-14.36-17.92.8-22.66c-6.9,11.14-19.86,23.68-30.87,32.09"/>
          <path id="Fill-37" class="cls-8" d="m268.1,479.56c-3.17-.03-9-.51-15.4-3.73-7.1-3.57-11.27-8.68-13.18-11.37l-10.06,19.32"/>
          <path id="Fill-39" class="cls-7" d="m244.43,437.41s17.68,27.98,62.31,23.74c0,0-25.16,22.12-49.15,8.59-21.05-11.87-13.16-32.33-13.16-32.33"/>
          <path id="Fill-41" class="cls-8" d="m245.12,437.41s18.04,27.8,63.56,23.59c0,0-21.06,17.65-45.53,4.21-21.47-11.79-18.03-27.8-18.03-27.8"/>
        </g>
      </g>
    </g>
  </g>
</svg>