<?xml version="1.0" encoding="utf-8"?>
<!-- Generator: Adobe Illustrator 27.3.0, SVG Export Plug-In . SVG Version: 6.00 Build 0)  -->
<svg version="1.1" id="Ebene_1" xmlns="http://www.w3.org/2000/svg" xmlns:xlink="http://www.w3.org/1999/xlink" x="0px" y="0px"
	 viewBox="0 0 2048 2048" style="enable-background:new 0 0 2048 2048;" xml:space="preserve">
<style type="text/css">
	.st0{fill:#2C2A34;}
	.st1{fill:#FFFFFF;}
	.st2{fill:#A96E3B;}
	.st3{fill:#F6A440;}
</style>
<path class="st0" d="M867.9,1918.6c-81.4,88-133.5,125.4-156.3,112.2c-34.4-19.9-1.9-155.2,97.4-405.9c-27.8,0.8-69.8,1.9-121,3
	c-134.6,2.9-100.4,0.5-135,2c-20.4,0.9-67.6-0.7-162-4c0,0-13.2-0.5-37-10c-4.6-1.9-11.6-4.9-15-12c-1.7-3.4-2-6.7-2-9
	c38.5-62.7,83.2-129.1,135-197.4c36.4-48.1,72.8-92.4,108.4-133.1c79.2-16.6,59.3,81.9,150.5,7.8c-163.4-117-130.1-269.1-9.9-461.8
	c10.7-33.1,66-47.6,88.9-38.9c-2.1-29.2,16.8-97.7-28-55.9c-206,354.1-488.5,6.5-235.9,37.5c60.9,3.8,71.3-71,113-117.9
	c97.9-79.2,32.7-69.7-21.6-43.2c-9.1,3-80.9,80.4-116.8,82.9c-48.2,4.2-118.7,12.3-99.1-59.1c-230.3,38-264.3-274.7-355.9-408.3
	c-25.5-40.9,44.1-99.3,83.2-69.7C228,162.2,256,472.1,381.4,487.7c-1.1-61.5,29.3-133.9-45.7-136.7
	c-77.3-41.9-189.4-183.1-151.1-238.4C279.4,18.2,303.4,237.9,383,216c3.8-43.1-26.6-60.7-33.3-84.5C325,33.3,467.5,57,479.1,144.7
	c53.4,96.3-26.5,264,59.8,350c105-13.4-20.5-105.2-34-166.8c-19.5-49.2-16.2-100.1,12.2-132.4c-19.6-35.5-99-96.1-34.2-130.4
	C590.2,30.8,714.5,230,623.2,298.7c20.3,55.1,131.2,181.3,163.5,131.5c-44.1-95-249.2-317.3-65.2-336.8
	c43.4,24.3,42.5,129,81.4,109.4c13.7-26.2,69.4-35.1,72.8-0.4c44.8-184.8,367.9-263.8,488.9-94c81.8,162.4,63.9-102.2,392.2-11.3
	c282.4-49.8,324.3,399.4,36.6,405.5c12.8,117.1-104,230.9-208.2,210.7c15.8,43-39.9,83.7-70.9,94.5
	c-5.2,92.4-101.7,143.4-181.1,111.3c-69.1-39.8-76.7-91.1-132.3-71.9c30.7,15.2,68.9,37.7,108.4,70.4c42.1,34.9,72.6,70.6,93.7,99.4
	c5.2,6.1,12.9,16.9,16,32c2.1,10.3,1.4,19,1,23c-0.7,7.8-2.4,14.3-4,19c-33.2,37.1-52.1,70.7-48,83c1.6,4.7,4,10,4,10
	c4.7,10.2,9.8,17.1,12,20c8.9,11.8,38.2,50.2,51,68c16.4,22.7,24.7,34.3,24,43c-1.4,18.2-19.9,30.4-51,49
	c-27.5,16.4-63.1,36.8-106,59c-22.7,15.5-47.1,31.2-73.2,46.8c-21.5,12.9-42.6,24.7-63,35.5c9.5,106.4,134.9,472.1,135.3,456.6
	c21,167.6-142.6-15.4-192-42.4c-46.4,37.7-83.1,62.7-122.8,62.2c-61.3-0.8-97.5-45.9-103.1-52.9"/>
<path class="st0" d="M1117,1423c-70-18.9-168.3-48.1-271-87.9c-37.2-14.4-82.5-33.2-128.5-71.2c-33.7-27.8-57-56.8-64.8-66.9
	c-16.4-21.1-28.5-40.7-37.2-56.7c-2.5-11.3-5.2-28.2-3.7-48.6c0.8-11.3,2.6-20.1,4.8-29.3c8.7-37.6,18.9-67.5,20.5-72.2
	c10.6-31.5,20.3-60.3,37.5-97c7.3-15.5,18.1-37.2,34-62.3c27.8-44.1,40.6-50.3,45.3-52.4c13.8-6,28-6.1,56-6.4
	c13.5-0.1,37.5,0.7,37.5,0.7c0.5,15.8,0.9,31.6,1.4,47.5c-16.3-10.3-28.6-11.2-36.9-10c0,0-4,0.6-27.6,8.6c3.4,10,8.6,23.5,16.3,39
	c1.1,2.3,20,39.6,51,74.4c10.8,12.1,54.4,59,151.6,109.8c87,45.5,182,75.8,182,75.8c7.8-22.4,15.6-44.9,23.4-67.3
	c1.2-2.5,4.9-9.1,12.7-12.7c9.2-4.3,17.9-1.7,21.2-0.7c13.5,4.2,20.9,16,23.4,19.8c15.3,24.2,33.3,46.6,49.6,70.1
	c25.7,37,31.5,26.1,63,69.4c23.6,32.4,18.8,36.3,38.2,56.7c12.1,12.6,24,21.7,28.3,39.7c3.4,14.1,0.2,26-0.7,29
	c-3,10.3-8.9,19.3-17.7,27.6c-33.7,32-106.5,51.7-168.6,92.8c-8.9,5.9-30,25.8-63,42.5c-10,5.1-21.3,10-36.1,12.5
	c-16.4,2.7-40.2,6.7-53.1-7.6c-14.5-16-5.1-43.7-4.2-46"/>
<path class="st1" d="M757.5,829.4c-11.1,9.1-25.3,24-35.8,47.8c-0.5,1-0.7,1.7-1.1,2.5c-16.3,38.7-25.2,58.8-34,80
	c-20.7,49.7-31,74.5-34,93.5c-4.3,26.9-2.5,49.7-0.4,64.8c4.7,8.8,12.1,21.5,22.4,36c17.1,23.8,36.1,43.7,63.6,67
	c70,59.3,136.6,90.9,184.1,114.7c9.6,4.8,24.3,11.6,42.8,18.1c17.3,6,36.4,10,74.7,18.1c0,0,33.4,7,74.8,14.4
	c0.4,0.1,5.7,1,12.6,3.3c8.8,2.9,13.2,4.3,15.3,7.1c3.8,5,0.7,14-5.7,31.9c-3.2,8.9-7.4,19.9-8.5,34.7c-0.3,4-0.2,6.4,1.4,7.8
	c5.1,4.2,20.1-6.5,33-15c13-8.5,31.6-19.9,56-32c20.3-12.2,37-21.7,48.4-28c36-20,51-27.8,78.6-41.8c13.1-6.6,25.8-14,39-20.5
	c2.4-1.2,26.4-13.1,24.8-20.5c-0.3-1.3-2.2-6.5-2.1-6.4c-77.6-113.7-78.6-115.4-78.6-115.4c-9.9-13.9-52.6-76-72.2-108.4
	c-2-3.4-11.6-19.2-20.5-17.7c-4.8,0.8-9,6.5-9.2,6.7c-2.8,3.9-3.4,7.9-3.7,10.1c-1.4,9.2-4.4,18-6.4,27.1
	c-3.4,15.3-5.1,20.2-6.4,23.4c-3.3,8.2-5,12.3-9,14.9c-4.3,2.7-9.1,2.5-23.4-0.4c-19.7-4-27.1-6.6-27.1-6.6
	c-22-7.5-39-14.9-45.2-17.5c-24.2-10.3-37.3-14-51-19.1c-46.8-17.4-96.9-50.1-117.9-63.7c-72.1-47-119.4-77.8-154.6-138.1
	c-8.8-15.1-14.6-28.1-18.1-36.7"/>
<path class="st1" d="M1197.3,891.3c41,21.4,73,43.2,95.7,60.3c0,0,37,27.8,75.3,74.9c12.4,15.2,23.2,30.4,20.5,47.5
	c-0.7,4.2-6,13.6-16.6,32.2c-12.8,22.4-17.7,28.1-20.2,30.8c-5.1,5.6-15.6,15.9-15.6,15.9c-3.8-5.5-9.4-13.6-16.3-23.4
	c-16.9-24-16.1-22.4-21.2-30.1c-9.9-15-12.6-21-24.7-38.5c-9-13-12.3-16.6-17.7-19.7c-12.9-7.4-26.2-5.1-28.1-4.8
	c-3,0.6-8.9,1.7-14.5,5.7c-5.9,4.2-9.3,9.9-16.6,35.8c0,0-4.3,15.2-10.3,39.7c-36.6-12.3-60.1-20.2-60.1-20.2l0,0
	c-0.1-0.4-20.4-58.1-1.2-76c1-0.9,1.9-1.6,2.1-1.7c16.2-14.7,26.8-29.3,34-39.8c7.8-11.3,21.1-33.6,27.3-64.1
	c2.2-10.9,2.9-20.2,3.2-26.6"/>
<path class="st1" d="M852,1337c0,49.6,0,99.3,0,148.9c-23.6,11.7-47.2,23.4-70.8,35.1c-1.4,1.1-3.7,3.2-4.2,6.4
	c-0.6,3.6,1.4,6.6,2.5,8.1c9.6,13.8,14.4,20.7,35.4,37.9c0.5,0.4,2.1,1.7,2.1,3.5c0,2.3-2.6,3.8-3.9,4.6c-4,2.3-8.1,2.1-8.5,2.1
	c-14.4-0.5-397.7,3.9-397.7,3.9c-1.9-1.4-2.8-2.9-3.2-3.9c0,0-0.7-1.6-0.7-7.8c62.6-88.8,125.1-177.5,187.7-266.3
	c0.4-1.1,2.1-5,6-6.7c3.2-1.4,6.2-0.7,9.2,0c1.4,0.3,5.2,1.3,8.9,4.2c4,3.2,4.2,5.9,8.1,11.7c2.1,3,2,2.3,7.9,9.2
	c2.3,2.7,3.7,4.5,16.2,19.8c2.3,2.8,3.4,4.2,4.3,4.8c6.9,4.6,16.8,0.9,21.7-1c14.2-5.5,54.2-27.2,106-58.2"/>
<path class="st2" d="M783.3,813.8c-1.4,2.9-0.9,5.7-0.7,7.1c6.9,40.2,28.6,69.6,28.7,69.8l0,0c18.8,28.2,39.9,42.9,39.9,42.9l0,0
	c0,0,16.4,11.4,24,8.8c15.6-5.3,19.9-77.7-18.5-117.5c-4.4-4.5-8.3-7.7-10.4-9.3c-14.6-8.1-27.2-9.4-34.3-9.9
	C806.8,805.3,787.8,804.5,783.3,813.8z"/>
<path class="st2" d="M1124.6,1021.5c-10.7-109.5-5-139.6,4-141.8c0,0,0.1,0,0.1,0c17.2-4.1,31.3-1.7,34.6-1c0,0,10.4,2,26.6,9.5
	c0.1,0,2.5,1.2,2.5,1.2c0,0-0.3,4.9-0.6,10.1c-0.4,7-0.8,12-0.8,12.2c-1.3,19-20.9,55.4-20.9,55.4c-21.4,39.5-35.9,49.1-42.1,52.7
	C1126.5,1020.5,1125.4,1021.1,1124.6,1021.5z"/>
<path class="st3" d="M1126.9,1097.4c0.4-99.7,0.7-199.4,1.1-299.1c18.3,9.8,33.5,11.8,44.4,11.7c30.2-0.4,62.9-18.1,62.9-18.1
	c2.9,3.9,10.3,12.6,23.1,17.5c13.8,5.3,33.3,1.5,33.3,1.5c9.5,45.4,48,77.8,90.8,78.6c45.4,0.8,78.1-34.2,87.8-58.4
	c2.5-6.2,6.4-16,5.7-28.7c-0.9-15.4-8.5-33.3-8.5-33.3c7,0.2,42.1,0.3,64.1-24.8c3.7-4.2,11.1-12.9,13.8-26.2
	c3.5-17.1-2.2-34.8-5.7-38.6c-0.2-0.2-0.7-0.7-0.7-1.4c-0.2-4,14.2-8.1,14.2-8.1c15.1,2.9,45.2,6.5,80.7-4.2
	c13.7-4.1,40.7-14.2,66.6-38.2c12.2-11.4,34.9-32.5,43.6-65.9c8.9-34.3,1.5-75.9,1.4-77.6c9.3-8.5,18.7-17,28-25.5
	c15.8,1,51.2,1.2,88.9-18.8c37.6-19.9,56.4-48.7,65.2-62.3c10.8-16.9,23.5-36.7,25.5-65.2c2.2-30.3-8.9-53.6-21.2-79.3
	c-7-14.6-15.7-32.5-33.3-51.2c-9.5-10.1-28.9-30.9-58.8-40.8c-52.1-17.5-113.8,5.3-116.2,5.7c-17.1-10.1-51.7-27.2-97.7-28.3
	c-44.6-1.1-77.6,13.3-92.1,19.8c0,0-22.8,10.2-100.6,72.2c0,0-63.7-12.7-63.7-12.7c-7.3-17.2-20.5-42.6-43.9-68
	c-25.4-27.4-51.4-42.5-65.2-49.6c-33.9-17.3-63-21.8-79.3-24.1c-22.1-3.2-55.1-5.1-93.5,2.8c-19.8,4.1-43.7,9-70.3,25.5
	c-24.6,15.2-38.3,32.2-55.8,53.9c-32,39.6-46.2,74.8-49.6,83.6c-8.3,21.4-15.6,40.6-15.6,66.6c0,15.7,2.7,28.1,12.7,59.5
	c25.6,79.6,37.8,91.7,38.2,127.5c0.1,9.7,0.7,53.6-19.8,62.3c-18.5,7.9-53.8-12.7-53.8-12.7c-0.4-15.5-1.1-37.8-2.9-64.7
	c-3.2-49-4.7-73.5-10.6-89c-7.6-20.1-77.8-106.5-58.1-81.4c5.3-0.7,25.8-3.9,38.2-21.2c12.3-17.3,11.9-42,5.7-44.6
	c-4.2-1.8-8.3,7.5-23.4,15.6c-1.2,0.6-16.7,8.8-31.2,8.5c-24-0.5-41.3-24.1-49.6-35.4c-24.7-33.9-31.5-78-31.9-79.3
	c-2.9-0.9-8.2-1.9-12.7,0.7c-4.3,2.5-7.1,7.9-7.8,19.8c-1,18.5,4.2,33.5,10.6,50.3c9,23.3,13.4,35,19.8,47.5
	c11.3,22.1,22.7,38.4,32.6,52.4c8.5,12.1,9.9,13.2,20.5,28.3c10.6,15.1,18.2,26,24.4,36.7c14.6,25.4,30.9,53.5,22.4,82.3
	c-1.4,4.9-6.8,23.2-22.7,31.9c-31.5,17.2-79.2-17.6-108.4-39c-15.4-11.3-52.2-38.7-80.7-87.1c0,0-4.9-8.2-38.2-80
	c5.2-2.3,12.3-5.8,19.8-11.3c4.6-3.3,13.1-9.6,19.1-18.4c14.1-20.7,8.2-46.4,7.1-51c-3-12-9.4-23.5-29-42.5
	C547.8,116,506,96.3,506,96.3c0,0,29.3,19,30.4,17.5c1-1.3-17.3-21.6-30.4-17.5c-6.1,1.9-11,9.1-10.6,15.6
	c0.5,8.9,10.6,12,24.1,23.4c5.6,4.8,22.2,18.8,29.7,39.7c2.9,8.1,9.7,27,1.4,43.2c-8,15.7-24.7,17.9-30.5,36.1
	c-2.4,7.6-1.6,13.6-1.4,14.9c1.1,7.7,5,12.9,6.4,14.9c9.2,12.8,14.5,28,23.4,41.1c14.5,21.4,36.1,53.4,51,88.5
	c12.1,28.7,21.9,52.9,12.7,78.6c-2.2,6.1-8.4,20.7-23.4,31.2c-23.4,16.3-53.6,12.3-72.9,2.8c-23.6-11.6-33.4-32.3-43.2-53.1
	c-21.9-46.2-19.1-91.2-17-119.7c2.5-34.7,7.4-27.5,10.6-65.2c1.8-21,4.4-71.4-14.9-125.4c-2.8-7.9-10.3-27.6-28.3-43.9
	c-5.2-4.7-20.3-18.4-32.6-14.2c-1.2,0.4-4.3,1.5-5.7,4.2c-3.6,7.1,7.4,18.8,12.7,25.5c27.2,33.6,25.1,77.9,24.8,84.3
	c-0.9,17.8-6.1,29.5-12,37.5c-2.4,3.3-5.7,7.6-11.3,10.6c-3,1.6-13.8,6.7-34.7-0.7C355,263,320.7,249,269.5,182
	c-14.2-18.6-36.1-49.6-36.1-49.6c-1-0.7-6.1-3.9-11.3-2.1c-6.5,2.1-9.2,10.5-8.5,16.3c1,8,9.2,15.6,9.2,15.6
	c6,13.3,14.2,29.4,25.5,46.7c4.8,7.4,24.1,36.4,57.4,67.3c21.7,20.1,35,27.8,43.2,31.9c14.2,7.1,23,11.5,35.4,11.3
	c8.3-0.1,12.4-2.2,17.7,0.7c6.3,3.5,8.3,10.9,12,27.6c4.5,20,6.7,30.1,7.1,34c0,0,5,48.7,0,131.7c-4.6,5-12,11.6-22.7,15.6
	c-37.7,14.1-79.3-19.1-89.9-27.6c-13.9-11.1-28.7-26.7-64.4-102c-33.2-70-50-104.9-58.8-133.1c0,0-5.6-18.2-39.7-80.4
	c-1.1-2.1-3.9-7-9.2-11.5c-2.9-2.5-5.7-4.1-7.3-4.9c-2.6-0.5-7.2-1-12.6,0.5c-1.8,0.5-11.1,3.2-13.5,9.9c-2.1,5.8,2.1,11.8,6.4,18.4
	c6.9,10.8,11.5,23,19.1,33.3c12,16.2,19.4,37.3,40.4,92.1c24.6,64.1,36.8,96.1,43.2,109.1c27.2,55.5,50,80.8,60.9,92.1
	c27.1,28,47.9,37.7,58.1,41.8c7.3,2.9,24.8,9.8,48.2,10.6c15.6,0.5,14.2-2.3,45.3-4.2c0,0,8.1-0.5,48.2-1.4
	c2.4,7.8,4.6,19.3,1.4,31.9c-4.5,17.5-15.9,23.3-13.5,29c3.9,9.1,39.1,8.2,70.8-6.4c24.9-11.5,27.3-22,58.1-46
	c27-21.1,49.4-38.5,81.4-45.3c13.6-2.9,61-10.6,95.6,15.6c23,17.4,43.9,52.4,43.9,52.4c-24.8-3.5-42.7,1.4-52.4,5
	c-27.7,10.2-44.1,30.5-63,53.8c-2.7,3.4-14.1,17.6-26.2,38.2c-15.8,27.1-14.1,33-25.5,48.2c-4.9,6.5-20.5,26.7-47.5,36.8
	c-9.3,3.5-40.2,15.1-69.4,4.2c-7.2-2.7-19.8-8.8-28.3-3.5c-6,3.7-7.8,9.9-7.8,9.9c-0.4,1.2-1.4,4.9,0,8.5c2.2,5.5,8.8,7.7,11.3,8.5
	c21.3,7.1,23.8,14.2,45.3,19.1c7,1.6,50,10.7,89.2-8.5c30.9-15.1,28-32.4,75.8-90.7c34.1-41.6,65.9-79.5,95.6-73.7
	c15.3,3,41.1,19.8,41.1,19.8c3.5,58.1,4.6,105.2,5,137.4c0.9,58.1,0,119,0,119c0,0,65.3,54.3,117.6,88.5c27.9,18.3,73.4,44,138.1,68
	"/>
<path class="st3" d="M852,1337c-1.6,103.6-2.3,150.2-2.1,153c0,0,0,0.4,0,0.8c0.1,1.4,0.2,4.2,0.2,7.8c0.1,7.2,0.1,17.7-0.8,30.2
	c-2.2,29.8-7.9,51.7-10.1,60c-17.4,67.4-7.9,54.2-49.4,212.5c-16.2,61.6-67.4,245.7-50.5,184.3c41.1-39.7,82.2-79.3,123.2-119
	c43.2,26.6,86.4,53.1,129.6,79.7c40.2-28,80.4-56,120.6-83.9c93.3,90.9,143.1,133.6,149.3,128c0.9-0.8,0.7-2.3,0.5-3.2
	c-5.7-37.1-51.7-144.9-69.6-201.3c-1.2-3.8-4.9-17.3-12.2-44.1c-14.8-54-22.1-81-27.1-102.5c-16.8-72.8-23.9-142.4-23.9-142.4
	l-20.2-7.4c-0.3-0.3-1.2-1-2.1-2.1c-3.4-3.9-8.4-12.7-1.5-51.3c0.6-3.1,3-15,3-15c-12.8-0.8-26.2-2.1-40-4
	c-56.2-7.8-104.2-23.8-143-41"/>
</svg>
